NimbusMonL-BoldObli.ufo
<glyph name="exclam" format="1">
  <advance width="600"/>
  <unicode hex="0021"/>
  <outline>
    <contour>
      <point x="490" y="525" type="line" smooth="yes"/>
      <point x="499" y="553"/>
      <point x="501" y="564"/>
      <point x="501" y="577" type="curve" smooth="yes"/>
      <point x="501" y="613"/>
      <point x="474" y="638"/>
      <point x="435" y="638" type="curve" smooth="yes"/>
      <point x="408" y="638"/>
      <point x="380" y="625"/>
      <point x="361" y="603" type="curve" smooth="yes"/>
      <point x="344" y="585"/>
      <point x="338" y="568"/>
      <point x="333" y="525" type="curve" smooth="yes"/>
      <point x="299" y="228" type="line"/>
      <point x="298" y="225"/>
      <point x="298" y="221"/>
      <point x="298" y="219" type="curve" smooth="yes"/>
      <point x="298" y="194"/>
      <point x="313" y="179"/>
      <point x="338" y="179" type="curve" smooth="yes"/>
      <point x="366" y="179"/>
      <point x="388" y="197"/>
      <point x="398" y="228" type="curve" smooth="yes"/>
    </contour>
    <contour>
      <point x="305" y="-15" type="line" smooth="yes"/>
      <point x="348" y="-15"/>
      <point x="387" y="24"/>
      <point x="387" y="65" type="curve" smooth="yes"/>
      <point x="387" y="95"/>
      <point x="365" y="117"/>
      <point x="333" y="117" type="curve" smooth="yes"/>
      <point x="316" y="117" type="line" smooth="yes"/>
      <point x="274" y="117"/>
      <point x="234" y="78"/>
      <point x="234" y="38" type="curve" smooth="yes"/>
      <point x="234" y="7"/>
      <point x="256" y="-15"/>
      <point x="288" y="-15" type="curve" smooth="yes"/>
    </contour>
  </outline>
</glyph>
<glyph name="quotedbl" format="1">
  <advance width="600"/>
  <unicode hex="0022"/>
  <outline>
    <contour>
      <point x="264" y="602" type="line"/>
      <point x="244" y="347" type="line"/>
      <point x="243" y="342"/>
      <point x="243" y="337"/>
      <point x="243" y="335" type="curve" smooth="yes"/>
      <point x="243" y="322"/>
      <point x="253" y="312"/>
      <point x="267" y="312" type="curve" smooth="yes"/>
      <point x="287" y="312"/>
      <point x="298" y="323"/>
      <point x="306" y="348" type="curve" smooth="yes"/>
      <point x="392" y="602" type="line"/>
    </contour>
    <contour>
      <point x="464" y="602" type="line"/>
      <point x="444" y="347" type="line"/>
      <point x="443" y="342"/>
      <point x="443" y="336"/>
      <point x="443" y="335" type="curve" smooth="yes"/>
      <point x="443" y="322"/>
      <point x="453" y="312"/>
      <point x="467" y="312" type="curve" smooth="yes"/>
      <point x="487" y="312"/>
      <point x="498" y="322"/>
      <point x="507" y="348" type="curve" smooth="yes"/>
      <point x="592" y="602" type="line"/>
    </contour>
  </outline>
</glyph>
<glyph name="numbersign" format="1">
  <advance width="600"/>
  <unicode hex="0023"/>
  <outline>
    <contour>
      <point x="541" y="444" type="line"/>
      <point x="587" y="605" type="line" smooth="yes"/>
      <point x="594" y="630"/>
      <point x="594" y="630"/>
      <point x="594" y="635" type="curve" smooth="yes"/>
      <point x="594" y="658"/>
      <point x="576" y="675"/>
      <point x="554" y="675" type="curve" smooth="yes"/>
      <point x="538" y="675"/>
      <point x="522" y="668"/>
      <point x="510" y="656" type="curve" smooth="yes"/>
      <point x="500" y="646"/>
      <point x="497" y="640"/>
      <point x="489" y="612" type="curve" smooth="yes"/>
      <point x="442" y="444" type="line"/>
      <point x="370" y="444" type="line"/>
      <point x="416" y="605" type="line" smooth="yes"/>
      <point x="421" y="624"/>
      <point x="422" y="630"/>
      <point x="422" y="638" type="curve" smooth="yes"/>
      <point x="422" y="658"/>
      <point x="404" y="675"/>
      <point x="382" y="675" type="curve" smooth="yes"/>
      <point x="349" y="675"/>
      <point x="328" y="654"/>
      <point x="317" y="612" type="curve" smooth="yes"/>
      <point x="270" y="444" type="line"/>
      <point x="243" y="444" type="line" smooth="yes"/>
      <point x="211" y="444"/>
      <point x="203" y="442"/>
      <point x="188" y="430" type="curve" smooth="yes"/>
      <point x="174" y="418"/>
      <point x="165" y="400"/>
      <point x="165" y="384" type="curve" smooth="yes"/>
      <point x="165" y="368"/>
      <point x="174" y="353"/>
      <point x="187" y="348" type="curve" smooth="yes"/>
      <point x="195" y="345"/>
      <point x="202" y="344"/>
      <point x="222" y="344" type="curve" smooth="yes"/>
      <point x="242" y="344" type="line"/>
      <point x="212" y="238" type="line"/>
      <point x="179" y="238" type="line" smooth="yes"/>
      <point x="148" y="238"/>
      <point x="139" y="236"/>
      <point x="124" y="224" type="curve" smooth="yes"/>
      <point x="110" y="212"/>
      <point x="101" y="194"/>
      <point x="101" y="179" type="curve" smooth="yes"/>
      <point x="101" y="150"/>
      <point x="117" y="139"/>
      <point x="158" y="139" type="curve" smooth="yes"/>
      <point x="184" y="139" type="line"/>
      <point x="138" y="-22" type="line" smooth="yes"/>
      <point x="133" y="-39"/>
      <point x="132" y="-46"/>
      <point x="132" y="-54" type="curve" smooth="yes"/>
      <point x="132" y="-75"/>
      <point x="150" y="-92"/>
      <point x="172" y="-92" type="curve" smooth="yes"/>
      <point x="205" y="-92"/>
      <point x="227" y="-70"/>
      <point x="236" y="-29" type="curve"/>
      <point x="284" y="139" type="line"/>
      <point x="356" y="139" type="line"/>
      <point x="310" y="-22" type="line" smooth="yes"/>
      <point x="303" y="-46"/>
      <point x="303" y="-46"/>
      <point x="303" y="-54" type="curve" smooth="yes"/>
      <point x="303" y="-75"/>
      <point x="320" y="-92"/>
      <point x="342" y="-92" type="curve" smooth="yes"/>
      <point x="357" y="-92"/>
      <point x="373" y="-85"/>
      <point x="386" y="-73" type="curve" smooth="yes"/>
      <point x="392" y="-67"/>
      <point x="403" y="-45"/>
      <point x="408" y="-29" type="curve" smooth="yes"/>
      <point x="455" y="139" type="line"/>
      <point x="481" y="139" type="line" smooth="yes"/>
      <point x="511" y="139"/>
      <point x="522" y="142"/>
      <point x="537" y="154" type="curve" smooth="yes"/>
      <point x="551" y="165"/>
      <point x="560" y="183"/>
      <point x="560" y="199" type="curve" smooth="yes"/>
      <point x="560" y="215"/>
      <point x="550" y="230"/>
      <point x="537" y="234" type="curve"/>
      <point x="529" y="237"/>
      <point x="521" y="238"/>
      <point x="502" y="238" type="curve" smooth="yes"/>
      <point x="483" y="238" type="line"/>
      <point x="513" y="344" type="line"/>
      <point x="545" y="344" type="line" smooth="yes"/>
      <point x="576" y="344"/>
      <point x="586" y="347"/>
      <point x="600" y="359" type="curve" smooth="yes"/>
      <point x="614" y="371"/>
      <point x="623" y="388"/>
      <point x="623" y="404" type="curve" smooth="yes"/>
      <point x="623" y="421"/>
      <point x="614" y="436"/>
      <point x="601" y="440" type="curve" smooth="yes"/>
      <point x="592" y="443"/>
      <point x="586" y="444"/>
      <point x="566" y="444" type="curve" smooth="yes"/>
    </contour>
    <contour>
      <point x="414" y="344" type="line"/>
      <point x="383" y="238" type="line"/>
      <point x="312" y="238" type="line"/>
      <point x="342" y="344" type="line"/>
    </contour>
  </outline>
</glyph>
<glyph name="dollar" format="1">
  <advance width="600"/>
  <unicode hex="0024"/>
  <outline>
    <contour>
      <point x="483" y="618" type="line" smooth="yes"/>
      <point x="487" y="637"/>
      <point x="487" y="639"/>
      <point x="487" y="646" type="curve" smooth="yes"/>
      <point x="487" y="668"/>
      <point x="470" y="684"/>
      <point x="448" y="684" type="curve" smooth="yes"/>
      <point x="432" y="684"/>
      <point x="415" y="676"/>
      <point x="403" y="664" type="curve" smooth="yes"/>
      <point x="393" y="653"/>
      <point x="389" y="645"/>
      <point x="384" y="618" type="curve" smooth="yes"/>
      <point x="378" y="592" type="line"/>
      <point x="275" y="575"/>
      <point x="196" y="493"/>
      <point x="196" y="403" type="curve" smooth="yes"/>
      <point x="196" y="338"/>
      <point x="237" y="297"/>
      <point x="319" y="280" type="curve" smooth="yes"/>
      <point x="389" y="265" type="line" smooth="yes"/>
      <point x="437" y="255"/>
      <point x="458" y="240"/>
      <point x="458" y="214" type="curve" smooth="yes"/>
      <point x="458" y="164"/>
      <point x="399" y="124"/>
      <point x="328" y="124" type="curve" smooth="yes"/>
      <point x="271" y="124"/>
      <point x="224" y="149"/>
      <point x="222" y="180" type="curve" smooth="yes"/>
      <point x="221" y="207"/>
      <point x="221" y="207"/>
      <point x="215" y="214" type="curve" smooth="yes"/>
      <point x="208" y="223"/>
      <point x="195" y="229"/>
      <point x="182" y="229" type="curve" smooth="yes"/>
      <point x="166" y="229"/>
      <point x="150" y="221"/>
      <point x="137" y="208" type="curve" smooth="yes"/>
      <point x="127" y="198"/>
      <point x="123" y="190"/>
      <point x="117" y="162" type="curve" smooth="yes"/>
      <point x="104" y="101" type="line" smooth="yes"/>
      <point x="101" y="85"/>
      <point x="100" y="78"/>
      <point x="100" y="72" type="curve" smooth="yes"/>
      <point x="100" y="50"/>
      <point x="117" y="34"/>
      <point x="141" y="34" type="curve" smooth="yes"/>
      <point x="155" y="34"/>
      <point x="165" y="38"/>
      <point x="184" y="52" type="curve"/>
      <point x="212" y="38"/>
      <point x="218" y="36"/>
      <point x="258" y="27" type="curve"/>
      <point x="240" y="-56" type="line" smooth="yes"/>
      <point x="237" y="-69"/>
      <point x="236" y="-79"/>
      <point x="236" y="-86" type="curve" smooth="yes"/>
      <point x="236" y="-107"/>
      <point x="253" y="-123"/>
      <point x="276" y="-123" type="curve" smooth="yes"/>
      <point x="291" y="-123"/>
      <point x="308" y="-115"/>
      <point x="320" y="-102" type="curve" smooth="yes"/>
      <point x="330" y="-92"/>
      <point x="333" y="-84"/>
      <point x="339" y="-56" type="curve" smooth="yes"/>
      <point x="357" y="27" type="line"/>
      <point x="481" y="50"/>
      <point x="564" y="134"/>
      <point x="564" y="235" type="curve" smooth="yes"/>
      <point x="564" y="306"/>
      <point x="525" y="342"/>
      <point x="428" y="363" type="curve" smooth="yes"/>
      <point x="366" y="377" type="line" smooth="yes"/>
      <point x="323" y="386"/>
      <point x="302" y="402"/>
      <point x="302" y="424" type="curve" smooth="yes"/>
      <point x="302" y="465"/>
      <point x="350" y="495"/>
      <point x="415" y="495" type="curve" smooth="yes"/>
      <point x="455" y="495"/>
      <point x="492" y="478"/>
      <point x="492" y="460" type="curve" smooth="yes"/>
      <point x="492" y="432"/>
      <point x="507" y="417"/>
      <point x="535" y="417" type="curve" smooth="yes"/>
      <point x="551" y="417"/>
      <point x="567" y="424"/>
      <point x="580" y="438" type="curve" smooth="yes"/>
      <point x="590" y="448"/>
      <point x="593" y="455"/>
      <point x="599" y="483" type="curve" smooth="yes"/>
      <point x="606" y="515" type="line" smooth="yes"/>
      <point x="609" y="527"/>
      <point x="610" y="537"/>
      <point x="610" y="544" type="curve" smooth="yes"/>
      <point x="610" y="565"/>
      <point x="593" y="581"/>
      <point x="570" y="581" type="curve" smooth="yes"/>
      <point x="560" y="581"/>
      <point x="553" y="579"/>
      <point x="541" y="574" type="curve"/>
      <point x="536" y="575"/>
      <point x="533" y="576"/>
      <point x="532" y="577" type="curve"/>
      <point x="525" y="579"/>
      <point x="517" y="582"/>
      <point x="510" y="585" type="curve"/>
      <point x="500" y="588" type="line" smooth="yes"/>
      <point x="492" y="590"/>
      <point x="488" y="590"/>
      <point x="477" y="592" type="curve"/>
    </contour>
  </outline>
</glyph>
<glyph name="percent" format="1">
  <advance width="600"/>
  <unicode hex="0025"/>
  <outline>
    <contour>
      <point x="360" y="617" type="curve" smooth="yes"/>
      <point x="272" y="617"/>
      <point x="188" y="535"/>
      <point x="188" y="449" type="curve" smooth="yes"/>
      <point x="188" y="385"/>
      <point x="235" y="338"/>
      <point x="299" y="338" type="curve" smooth="yes"/>
      <point x="389" y="338"/>
      <point x="473" y="419"/>
      <point x="473" y="506" type="curve" smooth="yes"/>
      <point x="473" y="572"/>
      <point x="427" y="617"/>
    </contour>
    <contour>
      <point x="346" y="552" type="curve" smooth="yes"/>
      <point x="382" y="552"/>
      <point x="407" y="527"/>
      <point x="407" y="493" type="curve" smooth="yes"/>
      <point x="407" y="447"/>
      <point x="362" y="403"/>
      <point x="314" y="403" type="curve" smooth="yes"/>
      <point x="279" y="403"/>
      <point x="254" y="428"/>
      <point x="254" y="463" type="curve" smooth="yes"/>
      <point x="254" y="508"/>
      <point x="299" y="552"/>
    </contour>
    <contour>
      <point x="562" y="331" type="line" smooth="yes"/>
      <point x="588" y="338"/>
      <point x="599" y="350"/>
      <point x="599" y="368" type="curve" smooth="yes"/>
      <point x="599" y="383"/>
      <point x="590" y="394"/>
      <point x="576" y="394" type="curve" smooth="yes"/>
      <point x="570" y="394"/>
      <point x="568" y="394"/>
      <point x="555" y="390" type="curve" smooth="yes"/>
      <point x="168" y="272" type="line" smooth="yes"/>
      <point x="142" y="264"/>
      <point x="131" y="253"/>
      <point x="131" y="235" type="curve" smooth="yes"/>
      <point x="131" y="220"/>
      <point x="140" y="209"/>
      <point x="153" y="209" type="curve" smooth="yes"/>
      <point x="158" y="209"/>
      <point x="166" y="210"/>
      <point x="174" y="213" type="curve"/>
    </contour>
    <contour>
      <point x="425" y="264" type="curve" smooth="yes"/>
      <point x="337" y="264"/>
      <point x="253" y="182"/>
      <point x="253" y="96" type="curve" smooth="yes"/>
      <point x="253" y="32"/>
      <point x="300" y="-15"/>
      <point x="364" y="-15" type="curve" smooth="yes"/>
      <point x="454" y="-15"/>
      <point x="538" y="66"/>
      <point x="538" y="153" type="curve" smooth="yes"/>
      <point x="538" y="219"/>
      <point x="492" y="264"/>
    </contour>
    <contour>
      <point x="411" y="199" type="curve" smooth="yes"/>
      <point x="447" y="199"/>
      <point x="472" y="175"/>
      <point x="472" y="139" type="curve" smooth="yes"/>
      <point x="472" y="93"/>
      <point x="427" y="50"/>
      <point x="379" y="50" type="curve" smooth="yes"/>
      <point x="345" y="50"/>
      <point x="320" y="75"/>
      <point x="320" y="109" type="curve" smooth="yes"/>
      <point x="320" y="155"/>
      <point x="365" y="199"/>
    </contour>
  </outline>
</glyph>
<glyph name="ampersand" format="1">
  <advance width="600"/>
  <unicode hex="0026"/>
  <outline>
    <contour>
      <point x="407" y="198" type="line"/>
      <point x="338" y="343" type="line" smooth="yes"/>
      <point x="328" y="362"/>
      <point x="321" y="384"/>
      <point x="321" y="392" type="curve" smooth="yes"/>
      <point x="321" y="421"/>
      <point x="353" y="450"/>
      <point x="385" y="450" type="curve" smooth="yes"/>
      <point x="405" y="450"/>
      <point x="419" y="442"/>
      <point x="441" y="416" type="curve"/>
      <point x="488" y="438" type="line" smooth="yes"/>
      <point x="528" y="458"/>
      <point x="541" y="473"/>
      <point x="541" y="501" type="curve" smooth="yes"/>
      <point x="541" y="521"/>
      <point x="523" y="540"/>
      <point x="503" y="540" type="curve" smooth="yes"/>
      <point x="495" y="540"/>
      <point x="485" y="538"/>
      <point x="473" y="533" type="curve"/>
      <point x="449" y="545"/>
      <point x="430" y="550"/>
      <point x="406" y="550" type="curve" smooth="yes"/>
      <point x="315" y="550"/>
      <point x="219" y="460"/>
      <point x="219" y="374" type="curve" smooth="yes"/>
      <point x="219" y="355"/>
      <point x="223" y="336"/>
      <point x="236" y="303" type="curve"/>
      <point x="152" y="260"/>
      <point x="102" y="186"/>
      <point x="102" y="106" type="curve" smooth="yes"/>
      <point x="102" y="32"/>
      <point x="160" y="-14"/>
      <point x="255" y="-14" type="curve" smooth="yes"/>
      <point x="307" y="-14"/>
      <point x="339" y="-6"/>
      <point x="373" y="15" type="curve"/>
      <point x="381" y="0" type="line"/>
      <point x="442" y="0" type="line" smooth="yes"/>
      <point x="470" y="0"/>
      <point x="483" y="3"/>
      <point x="497" y="15" type="curve" smooth="yes"/>
      <point x="511" y="26"/>
      <point x="520" y="44"/>
      <point x="520" y="60" type="curve" smooth="yes"/>
      <point x="520" y="77"/>
      <point x="511" y="92"/>
      <point x="498" y="96" type="curve"/>
      <point x="490" y="99"/>
      <point x="483" y="100"/>
      <point x="463" y="100" type="curve" smooth="yes"/>
      <point x="455" y="100" type="line"/>
      <point x="472" y="121"/>
      <point x="483" y="140"/>
      <point x="502" y="180" type="curve"/>
      <point x="531" y="182"/>
      <point x="557" y="210"/>
      <point x="557" y="241" type="curve" smooth="yes"/>
      <point x="557" y="256"/>
      <point x="548" y="271"/>
      <point x="535" y="276" type="curve" smooth="yes"/>
      <point x="527" y="279"/>
      <point x="520" y="280"/>
      <point x="500" y="280" type="curve" smooth="yes"/>
      <point x="448" y="280" type="line"/>
    </contour>
    <contour>
      <point x="333" y="100" type="line"/>
      <point x="312" y="89"/>
      <point x="300" y="86"/>
      <point x="275" y="86" type="curve" smooth="yes"/>
      <point x="228" y="86"/>
      <point x="204" y="100"/>
      <point x="204" y="129" type="curve" smooth="yes"/>
      <point x="204" y="167"/>
      <point x="231" y="201"/>
      <point x="275" y="220" type="curve"/>
    </contour>
  </outline>
</glyph>
<glyph name="quotesingle" format="1">
  <advance width="600"/>
  <unicode hex="0027"/>
  <outline>
    <contour>
      <point x="364" y="602" type="line"/>
      <point x="344" y="347" type="line"/>
      <point x="343" y="342"/>
      <point x="343" y="337"/>
      <point x="343" y="335" type="curve" smooth="yes"/>
      <point x="343" y="322"/>
      <point x="353" y="312"/>
      <point x="367" y="312" type="curve" smooth="yes"/>
      <point x="387" y="312"/>
      <point x="398" y="322"/>
      <point x="407" y="348" type="curve" smooth="yes"/>
      <point x="492" y="602" type="line"/>
    </contour>
  </outline>
</glyph>
<glyph name="parenleft" format="1">
  <advance width="600"/>
  <unicode hex="0028"/>
  <outline>
    <contour>
      <point x="572" y="632" type="curve" smooth="yes"/>
      <point x="544" y="632"/>
      <point x="524" y="615"/>
      <point x="471" y="547" type="curve" smooth="yes"/>
      <point x="356" y="398"/>
      <point x="304" y="269"/>
      <point x="304" y="131" type="curve" smooth="yes"/>
      <point x="304" y="44"/>
      <point x="333" y="-72"/>
      <point x="370" y="-134" type="curve" smooth="yes"/>
      <point x="377" y="-147"/>
      <point x="389" y="-153"/>
      <point x="405" y="-153" type="curve" smooth="yes"/>
      <point x="437" y="-153"/>
      <point x="467" y="-124"/>
      <point x="467" y="-92" type="curve" smooth="yes"/>
      <point x="467" y="-87"/>
      <point x="466" y="-82"/>
      <point x="461" y="-70" type="curve" smooth="yes"/>
      <point x="429" y="9"/>
      <point x="416" y="71"/>
      <point x="416" y="140" type="curve" smooth="yes"/>
      <point x="416" y="276"/>
      <point x="470" y="401"/>
      <point x="593" y="549" type="curve" smooth="yes"/>
      <point x="608" y="567"/>
      <point x="613" y="578"/>
      <point x="613" y="593" type="curve" smooth="yes"/>
      <point x="613" y="616"/>
      <point x="596" y="632"/>
    </contour>
  </outline>
</glyph>
<glyph name="parenright" format="1">
  <advance width="600"/>
  <unicode hex="0029"/>
  <outline>
    <contour>
      <point x="302" y="632" type="curve" smooth="yes"/>
      <point x="269" y="632"/>
      <point x="240" y="603"/>
      <point x="240" y="571" type="curve" smooth="yes"/>
      <point x="240" y="565"/>
      <point x="241" y="560"/>
      <point x="246" y="549" type="curve" smooth="yes"/>
      <point x="277" y="471"/>
      <point x="291" y="408"/>
      <point x="291" y="340" type="curve" smooth="yes"/>
      <point x="291" y="202"/>
      <point x="239" y="81"/>
      <point x="114" y="-70" type="curve" smooth="yes"/>
      <point x="99" y="-88"/>
      <point x="94" y="-99"/>
      <point x="94" y="-114" type="curve" smooth="yes"/>
      <point x="94" y="-137"/>
      <point x="111" y="-153"/>
      <point x="135" y="-153" type="curve" smooth="yes"/>
      <point x="163" y="-153"/>
      <point x="184" y="-135"/>
      <point x="236" y="-68" type="curve" smooth="yes"/>
      <point x="353" y="84"/>
      <point x="403" y="210"/>
      <point x="403" y="348" type="curve" smooth="yes"/>
      <point x="403" y="435"/>
      <point x="374" y="551"/>
      <point x="337" y="613" type="curve" smooth="yes"/>
      <point x="330" y="626"/>
      <point x="318" y="632"/>
    </contour>
  </outline>
</glyph>
<glyph name="asterisk" format="1">
  <advance width="600"/>
  <unicode hex="002A"/>
  <outline>
    <contour>
      <point x="298" y="372" type="line"/>
      <point x="231" y="301" type="line" smooth="yes"/>
      <point x="208" y="276"/>
      <point x="202" y="265"/>
      <point x="202" y="248" type="curve" smooth="yes"/>
      <point x="202" y="225"/>
      <point x="219" y="208"/>
      <point x="243" y="208" type="curve" smooth="yes"/>
      <point x="263" y="208"/>
      <point x="273" y="214"/>
      <point x="299" y="242" type="curve" smooth="yes"/>
      <point x="367" y="314" type="line"/>
      <point x="403" y="242" type="line" smooth="yes"/>
      <point x="418" y="214"/>
      <point x="426" y="208"/>
      <point x="446" y="208" type="curve" smooth="yes"/>
      <point x="477" y="208"/>
      <point x="508" y="238"/>
      <point x="508" y="267" type="curve" smooth="yes"/>
      <point x="508" y="276"/>
      <point x="506" y="283"/>
      <point x="497" y="301" type="curve" smooth="yes"/>
      <point x="460" y="372" type="line"/>
      <point x="552" y="400" type="line" smooth="yes"/>
      <point x="595" y="413"/>
      <point x="614" y="432"/>
      <point x="614" y="462" type="curve" smooth="yes"/>
      <point x="614" y="484"/>
      <point x="597" y="502"/>
      <point x="576" y="502" type="curve" smooth="yes"/>
      <point x="566" y="502"/>
      <point x="563" y="501"/>
      <point x="541" y="495" type="curve" smooth="yes"/>
      <point x="449" y="467" type="line"/>
      <point x="468" y="556" type="line" smooth="yes"/>
      <point x="471" y="569"/>
      <point x="472" y="578"/>
      <point x="472" y="584" type="curve" smooth="yes"/>
      <point x="472" y="606"/>
      <point x="455" y="622"/>
      <point x="432" y="622" type="curve" smooth="yes"/>
      <point x="399" y="622"/>
      <point x="378" y="600"/>
      <point x="368" y="556" type="curve" smooth="yes"/>
      <point x="349" y="467" type="line"/>
      <point x="269" y="495" type="line" smooth="yes"/>
      <point x="249" y="501"/>
      <point x="246" y="502"/>
      <point x="238" y="502" type="curve" smooth="yes"/>
      <point x="207" y="502"/>
      <point x="178" y="472"/>
      <point x="178" y="441" type="curve" smooth="yes"/>
      <point x="178" y="420"/>
      <point x="188" y="410"/>
      <point x="218" y="400" type="curve" smooth="yes"/>
    </contour>
  </outline>
</glyph>
<glyph name="plus" format="1">
  <advance width="600"/>
  <unicode hex="002B"/>
  <outline>
    <contour>
      <point x="399" y="230" type="line"/>
      <point x="541" y="230" type="line" smooth="yes"/>
      <point x="570" y="230"/>
      <point x="582" y="233"/>
      <point x="596" y="245" type="curve" smooth="yes"/>
      <point x="610" y="257"/>
      <point x="619" y="274"/>
      <point x="619" y="290" type="curve" smooth="yes"/>
      <point x="619" y="307"/>
      <point x="610" y="321"/>
      <point x="597" y="326" type="curve"/>
      <point x="588" y="330"/>
      <point x="584" y="330"/>
      <point x="562" y="330" type="curve" smooth="yes"/>
      <point x="421" y="330" type="line"/>
      <point x="455" y="494" type="line"/>
      <point x="460" y="513"/>
      <point x="460" y="515"/>
      <point x="460" y="522" type="curve" smooth="yes"/>
      <point x="460" y="544"/>
      <point x="443" y="560"/>
      <point x="420" y="560" type="curve" smooth="yes"/>
      <point x="386" y="560"/>
      <point x="365" y="538"/>
      <point x="355" y="494" type="curve" smooth="yes"/>
      <point x="321" y="330" type="line"/>
      <point x="179" y="330" type="line" smooth="yes"/>
      <point x="148" y="330"/>
      <point x="139" y="328"/>
      <point x="124" y="316" type="curve" smooth="yes"/>
      <point x="110" y="304"/>
      <point x="101" y="286"/>
      <point x="101" y="270" type="curve" smooth="yes"/>
      <point x="101" y="241"/>
      <point x="117" y="230"/>
      <point x="158" y="230" type="curve" smooth="yes"/>
      <point x="299" y="230" type="line"/>
      <point x="265" y="66" type="line" smooth="yes"/>
      <point x="263" y="57"/>
      <point x="261" y="44"/>
      <point x="261" y="37" type="curve" smooth="yes"/>
      <point x="261" y="16"/>
      <point x="278" y="0"/>
      <point x="301" y="0" type="curve" smooth="yes"/>
      <point x="316" y="0"/>
      <point x="334" y="8"/>
      <point x="346" y="21" type="curve" smooth="yes"/>
      <point x="356" y="31"/>
      <point x="359" y="39"/>
      <point x="365" y="66" type="curve" smooth="yes"/>
    </contour>
  </outline>
</glyph>
<glyph name="period" format="1">
  <advance width="600"/>
  <unicode hex="002E"/>
  <outline>
    <contour>
      <point x="305" y="-15" type="line" smooth="yes"/>
      <point x="347" y="-15"/>
      <point x="387" y="24"/>
      <point x="387" y="65" type="curve" smooth="yes"/>
      <point x="387" y="95"/>
      <point x="365" y="117"/>
      <point x="333" y="117" type="curve" smooth="yes"/>
      <point x="316" y="117" type="line" smooth="yes"/>
      <point x="274" y="117"/>
      <point x="234" y="78"/>
      <point x="234" y="38" type="curve" smooth="yes"/>
      <point x="234" y="7"/>
      <point x="256" y="-15"/>
      <point x="288" y="-15" type="curve" smooth="yes"/>
    </contour>
  </outline>
</glyph>
<glyph name="slash" format="1">
  <advance width="600"/>
  <unicode hex="002F"/>
  <outline>
    <contour>
      <point x="636" y="610" type="line" smooth="yes"/>
      <point x="652" y="634"/>
      <point x="656" y="643"/>
      <point x="656" y="656" type="curve" smooth="yes"/>
      <point x="656" y="678"/>
      <point x="639" y="695"/>
      <point x="616" y="695" type="curve" smooth="yes"/>
      <point x="592" y="695"/>
      <point x="578" y="685"/>
      <point x="555" y="651" type="curve" smooth="yes"/>
      <point x="90" y="-27" type="line" smooth="yes"/>
      <point x="74" y="-49"/>
      <point x="69" y="-61"/>
      <point x="69" y="-74" type="curve" smooth="yes"/>
      <point x="69" y="-96"/>
      <point x="87" y="-113"/>
      <point x="110" y="-113" type="curve" smooth="yes"/>
      <point x="134" y="-113"/>
      <point x="148" y="-103"/>
      <point x="171" y="-69" type="curve" smooth="yes"/>
    </contour>
  </outline>
</glyph>
<glyph name="zero" format="1">
  <advance width="600"/>
  <unicode hex="0030"/>
  <outline>
    <contour>
      <point x="593" y="359" type="line" smooth="yes"/>
      <point x="599" y="387"/>
      <point x="602" y="416"/>
      <point x="602" y="444" type="curve" smooth="yes"/>
      <point x="602" y="568"/>
      <point x="542" y="638"/>
      <point x="436" y="638" type="curve" smooth="yes"/>
      <point x="378" y="638"/>
      <point x="326" y="619"/>
      <point x="285" y="583" type="curve" smooth="yes"/>
      <point x="224" y="530"/>
      <point x="178" y="449"/>
      <point x="159" y="359" type="curve" smooth="yes"/>
      <point x="139" y="264" type="line" smooth="yes"/>
      <point x="133" y="236"/>
      <point x="130" y="207"/>
      <point x="130" y="179" type="curve" smooth="yes"/>
      <point x="130" y="55"/>
      <point x="190" y="-15"/>
      <point x="296" y="-15" type="curve" smooth="yes"/>
      <point x="354" y="-15"/>
      <point x="405" y="4"/>
      <point x="447" y="40" type="curve" smooth="yes"/>
      <point x="508" y="93"/>
      <point x="554" y="174"/>
      <point x="573" y="264" type="curve" smooth="yes"/>
    </contour>
    <contour>
      <point x="260" y="366" type="line" smooth="yes"/>
      <point x="283" y="470"/>
      <point x="343" y="538"/>
      <point x="414" y="538" type="curve" smooth="yes"/>
      <point x="469" y="538"/>
      <point x="501" y="498"/>
      <point x="501" y="428" type="curve" smooth="yes"/>
      <point x="501" y="407"/>
      <point x="499" y="386"/>
      <point x="494" y="366" type="curve" smooth="yes"/>
      <point x="471" y="257" type="line" smooth="yes"/>
      <point x="449" y="153"/>
      <point x="388" y="85"/>
      <point x="318" y="85" type="curve" smooth="yes"/>
      <point x="263" y="85"/>
      <point x="231" y="126"/>
      <point x="231" y="195" type="curve" smooth="yes"/>
      <point x="231" y="216"/>
      <point x="233" y="237"/>
      <point x="238" y="257" type="curve" smooth="yes"/>
    </contour>
  </outline>
</glyph>
<glyph name="one" format="1">
  <advance width="600"/>
  <unicode hex="0031"/>
  <outline>
    <contour>
      <point x="486" y="638" type="line"/>
      <point x="262" y="583" type="line" smooth="yes"/>
      <point x="215" y="572"/>
      <point x="197" y="554"/>
      <point x="197" y="520" type="curve" smooth="yes"/>
      <point x="197" y="496"/>
      <point x="212" y="480"/>
      <point x="233" y="480" type="curve" smooth="yes"/>
      <point x="243" y="480"/>
      <point x="246" y="481"/>
      <point x="267" y="486" type="curve" smooth="yes"/>
      <point x="358" y="509" type="line"/>
      <point x="272" y="100" type="line"/>
      <point x="171" y="100" type="line" smooth="yes"/>
      <point x="139" y="100"/>
      <point x="131" y="98"/>
      <point x="116" y="85" type="curve" smooth="yes"/>
      <point x="102" y="73"/>
      <point x="93" y="56"/>
      <point x="93" y="40" type="curve" smooth="yes"/>
      <point x="93" y="12"/>
      <point x="109" y="0"/>
      <point x="150" y="0" type="curve" smooth="yes"/>
      <point x="451" y="0" type="line" smooth="yes"/>
      <point x="479" y="0"/>
      <point x="492" y="4"/>
      <point x="506" y="15" type="curve" smooth="yes"/>
      <point x="520" y="27"/>
      <point x="529" y="44"/>
      <point x="529" y="61" type="curve" smooth="yes"/>
      <point x="529" y="76"/>
      <point x="519" y="92"/>
      <point x="507" y="96" type="curve" smooth="yes"/>
      <point x="499" y="99"/>
      <point x="492" y="100"/>
      <point x="472" y="100" type="curve" smooth="yes"/>
      <point x="371" y="100" type="line"/>
    </contour>
  </outline>
</glyph>
<glyph name="two" format="1">
  <advance width="600"/>
  <unicode hex="0032"/>
  <outline>
    <contour>
      <point x="228" y="100" type="line"/>
      <point x="276" y="135" type="line"/>
      <point x="352" y="189" type="line" smooth="yes"/>
      <point x="459" y="268"/>
      <point x="523" y="320"/>
      <point x="551" y="352" type="curve" smooth="yes"/>
      <point x="584" y="391"/>
      <point x="602" y="437"/>
      <point x="602" y="484" type="curve" smooth="yes"/>
      <point x="602" y="575"/>
      <point x="530" y="638"/>
      <point x="426" y="638" type="curve" smooth="yes"/>
      <point x="366" y="638"/>
      <point x="305" y="618"/>
      <point x="258" y="582" type="curve" smooth="yes"/>
      <point x="212" y="546"/>
      <point x="173" y="491"/>
      <point x="173" y="460" type="curve" smooth="yes"/>
      <point x="173" y="439"/>
      <point x="192" y="422"/>
      <point x="214" y="422" type="curve" smooth="yes"/>
      <point x="235" y="422"/>
      <point x="256" y="434"/>
      <point x="265" y="451" type="curve" smooth="yes"/>
      <point x="283" y="483"/>
      <point x="284" y="485"/>
      <point x="297" y="497" type="curve" smooth="yes"/>
      <point x="324" y="523"/>
      <point x="363" y="538"/>
      <point x="403" y="538" type="curve" smooth="yes"/>
      <point x="459" y="538"/>
      <point x="500" y="507"/>
      <point x="500" y="465" type="curve" smooth="yes"/>
      <point x="500" y="422"/>
      <point x="483" y="403"/>
      <point x="350" y="301" type="curve" smooth="yes"/>
      <point x="300" y="263"/>
      <point x="258" y="233"/>
      <point x="76" y="105" type="curve"/>
      <point x="54" y="0" type="line"/>
      <point x="508" y="0" type="line"/>
      <point x="527" y="88" type="line" smooth="yes"/>
      <point x="530" y="105"/>
      <point x="531" y="109"/>
      <point x="531" y="116" type="curve" smooth="yes"/>
      <point x="531" y="138"/>
      <point x="514" y="154"/>
      <point x="491" y="154" type="curve" smooth="yes"/>
      <point x="460" y="154"/>
      <point x="440" y="136"/>
      <point x="430" y="100" type="curve"/>
    </contour>
  </outline>
</glyph>
<glyph name="three" format="1">
  <advance width="600"/>
  <unicode hex="0033"/>
  <outline>
    <contour>
      <point x="357" y="383" type="line" smooth="yes"/>
      <point x="324" y="383"/>
      <point x="294" y="355"/>
      <point x="294" y="324" type="curve" smooth="yes"/>
      <point x="294" y="301"/>
      <point x="308" y="289"/>
      <point x="337" y="287" type="curve" smooth="yes"/>
      <point x="378" y="285"/>
      <point x="392" y="283"/>
      <point x="411" y="275" type="curve" smooth="yes"/>
      <point x="445" y="259"/>
      <point x="469" y="229"/>
      <point x="469" y="201" type="curve" smooth="yes"/>
      <point x="469" y="171"/>
      <point x="452" y="139"/>
      <point x="426" y="119" type="curve" smooth="yes"/>
      <point x="394" y="94"/>
      <point x="355" y="85"/>
      <point x="286" y="85" type="curve" smooth="yes"/>
      <point x="222" y="85"/>
      <point x="193" y="91"/>
      <point x="171" y="108" type="curve" smooth="yes"/>
      <point x="158" y="118"/>
      <point x="153" y="120"/>
      <point x="142" y="120" type="curve" smooth="yes"/>
      <point x="109" y="120"/>
      <point x="80" y="91"/>
      <point x="80" y="58" type="curve" smooth="yes"/>
      <point x="80" y="15"/>
      <point x="156" y="-15"/>
      <point x="268" y="-15" type="curve" smooth="yes"/>
      <point x="372" y="-15"/>
      <point x="438" y="6"/>
      <point x="494" y="58" type="curve" smooth="yes"/>
      <point x="539" y="99"/>
      <point x="571" y="163"/>
      <point x="571" y="211" type="curve" smooth="yes"/>
      <point x="571" y="262"/>
      <point x="544" y="302"/>
      <point x="487" y="333" type="curve"/>
      <point x="490" y="335"/>
      <point x="493" y="336"/>
      <point x="494" y="336" type="curve"/>
      <point x="569" y="376"/>
      <point x="609" y="430"/>
      <point x="609" y="495" type="curve" smooth="yes"/>
      <point x="609" y="582"/>
      <point x="543" y="638"/>
      <point x="438" y="638" type="curve" smooth="yes"/>
      <point x="320" y="638"/>
      <point x="206" y="578"/>
      <point x="206" y="516" type="curve" smooth="yes"/>
      <point x="206" y="494"/>
      <point x="224" y="477"/>
      <point x="246" y="477" type="curve" smooth="yes"/>
      <point x="259" y="477"/>
      <point x="274" y="483"/>
      <point x="284" y="492" type="curve" smooth="yes"/>
      <point x="324" y="527"/>
      <point x="354" y="538"/>
      <point x="410" y="538" type="curve" smooth="yes"/>
      <point x="470" y="538"/>
      <point x="507" y="515"/>
      <point x="507" y="477" type="curve" smooth="yes"/>
      <point x="507" y="429"/>
      <point x="454" y="383"/>
      <point x="398" y="383" type="curve" smooth="yes"/>
    </contour>
  </outline>
</glyph>
<glyph name="four" format="1">
  <advance width="600"/>
  <unicode hex="0034"/>
  <outline>
    <contour>
      <point x="579" y="622" type="line"/>
      <point x="448" y="622" type="line"/>
      <point x="122" y="221" type="line"/>
      <point x="104" y="138" type="line"/>
      <point x="376" y="138" type="line"/>
      <point x="368" y="100" type="line"/>
      <point x="330" y="100" type="line" smooth="yes"/>
      <point x="299" y="100"/>
      <point x="290" y="97"/>
      <point x="275" y="85" type="curve" smooth="yes"/>
      <point x="261" y="73"/>
      <point x="252" y="56"/>
      <point x="252" y="40" type="curve" smooth="yes"/>
      <point x="252" y="12"/>
      <point x="268" y="0"/>
      <point x="309" y="0" type="curve" smooth="yes"/>
      <point x="441" y="0" type="line" smooth="yes"/>
      <point x="469" y="0"/>
      <point x="483" y="4"/>
      <point x="497" y="15" type="curve" smooth="yes"/>
      <point x="511" y="27"/>
      <point x="520" y="44"/>
      <point x="520" y="60" type="curve" smooth="yes"/>
      <point x="520" y="87"/>
      <point x="503" y="100"/>
      <point x="468" y="100" type="curve"/>
      <point x="476" y="138" type="line"/>
      <point x="502" y="138"/>
      <point x="512" y="141"/>
      <point x="526" y="153" type="curve" smooth="yes"/>
      <point x="540" y="165"/>
      <point x="549" y="182"/>
      <point x="549" y="198" type="curve" smooth="yes"/>
      <point x="549" y="226"/>
      <point x="533" y="238"/>
      <point x="497" y="238" type="curve"/>
    </contour>
    <contour>
      <point x="397" y="238" type="line"/>
      <point x="248" y="238" type="line"/>
      <point x="449" y="480" type="line"/>
    </contour>
  </outline>
</glyph>
<glyph name="five" format="1">
  <advance width="600"/>
  <unicode hex="0035"/>
  <outline>
    <contour>
      <point x="330" y="522" type="line"/>
      <point x="532" y="522" type="line" smooth="yes"/>
      <point x="561" y="522"/>
      <point x="574" y="525"/>
      <point x="587" y="537" type="curve" smooth="yes"/>
      <point x="601" y="549"/>
      <point x="610" y="566"/>
      <point x="610" y="583" type="curve" smooth="yes"/>
      <point x="610" y="599"/>
      <point x="601" y="613"/>
      <point x="588" y="618" type="curve" smooth="yes"/>
      <point x="579" y="621"/>
      <point x="573" y="622"/>
      <point x="553" y="622" type="curve" smooth="yes"/>
      <point x="252" y="622" type="line"/>
      <point x="191" y="338" type="line" smooth="yes"/>
      <point x="190" y="332"/>
      <point x="189" y="327"/>
      <point x="189" y="322" type="curve"/>
      <point x="188" y="300"/>
      <point x="206" y="282"/>
      <point x="229" y="282" type="curve" smooth="yes"/>
      <point x="238" y="282"/>
      <point x="244" y="284"/>
      <point x="258" y="290" type="curve" smooth="yes"/>
      <point x="305" y="311"/>
      <point x="353" y="324"/>
      <point x="387" y="324" type="curve" smooth="yes"/>
      <point x="441" y="324"/>
      <point x="476" y="290"/>
      <point x="476" y="236" type="curve" smooth="yes"/>
      <point x="476" y="202"/>
      <point x="465" y="167"/>
      <point x="446" y="142" type="curve" smooth="yes"/>
      <point x="416" y="102"/>
      <point x="371" y="85"/>
      <point x="295" y="85" type="curve" smooth="yes"/>
      <point x="230" y="85"/>
      <point x="202" y="93"/>
      <point x="177" y="118" type="curve" smooth="yes"/>
      <point x="165" y="130"/>
      <point x="159" y="133"/>
      <point x="145" y="133" type="curve" smooth="yes"/>
      <point x="113" y="133"/>
      <point x="83" y="104"/>
      <point x="83" y="72" type="curve" smooth="yes"/>
      <point x="83" y="22"/>
      <point x="165" y="-15"/>
      <point x="274" y="-15" type="curve" smooth="yes"/>
      <point x="384" y="-15"/>
      <point x="455" y="13"/>
      <point x="512" y="79" type="curve" smooth="yes"/>
      <point x="554" y="128"/>
      <point x="578" y="193"/>
      <point x="578" y="255" type="curve" smooth="yes"/>
      <point x="578" y="357"/>
      <point x="511" y="424"/>
      <point x="410" y="424" type="curve" smooth="yes"/>
      <point x="379" y="424"/>
      <point x="345" y="418"/>
      <point x="306" y="407" type="curve"/>
    </contour>
  </outline>
</glyph>
<glyph name="six" format="1">
  <advance width="600"/>
  <unicode hex="0036"/>
  <outline>
    <contour>
      <point x="276" y="324" type="curve"/>
      <point x="286" y="348"/>
      <point x="289" y="355"/>
      <point x="295" y="366" type="curve" smooth="yes"/>
      <point x="347" y="464"/>
      <point x="453" y="535"/>
      <point x="543" y="535" type="curve" smooth="yes"/>
      <point x="552" y="535"/>
      <point x="556" y="534"/>
      <point x="566" y="530" type="curve" smooth="yes"/>
      <point x="581" y="524"/>
      <point x="592" y="522"/>
      <point x="600" y="522" type="curve" smooth="yes"/>
      <point x="632" y="522"/>
      <point x="663" y="552"/>
      <point x="663" y="583" type="curve" smooth="yes"/>
      <point x="663" y="616"/>
      <point x="622" y="638"/>
      <point x="559" y="638" type="curve" smooth="yes"/>
      <point x="502" y="638"/>
      <point x="452" y="624"/>
      <point x="398" y="594" type="curve" smooth="yes"/>
      <point x="333" y="558"/>
      <point x="272" y="502"/>
      <point x="231" y="443" type="curve" smooth="yes"/>
      <point x="181" y="368"/>
      <point x="154" y="276"/>
      <point x="154" y="180" type="curve" smooth="yes"/>
      <point x="154" y="50"/>
      <point x="212" y="-15"/>
      <point x="328" y="-15" type="curve" smooth="yes"/>
      <point x="407" y="-15"/>
      <point x="470" y="13"/>
      <point x="518" y="70" type="curve" smooth="yes"/>
      <point x="557" y="116"/>
      <point x="581" y="180"/>
      <point x="581" y="238" type="curve" smooth="yes"/>
      <point x="581" y="327"/>
      <point x="515" y="394"/>
      <point x="428" y="394" type="curve" smooth="yes"/>
      <point x="377" y="394"/>
      <point x="335" y="374"/>
    </contour>
    <contour>
      <point x="262" y="209" type="curve"/>
      <point x="300" y="259"/>
      <point x="357" y="294"/>
      <point x="401" y="294" type="curve" smooth="yes"/>
      <point x="445" y="294"/>
      <point x="478" y="260"/>
      <point x="478" y="214" type="curve" smooth="yes"/>
      <point x="478" y="189"/>
      <point x="468" y="158"/>
      <point x="450" y="134" type="curve" smooth="yes"/>
      <point x="427" y="101"/>
      <point x="395" y="85"/>
      <point x="352" y="85" type="curve" smooth="yes"/>
      <point x="322" y="85"/>
      <point x="296" y="95"/>
      <point x="283" y="110" type="curve"/>
      <point x="271" y="127"/>
      <point x="261" y="163"/>
      <point x="261" y="194" type="curve" smooth="yes"/>
      <point x="261" y="197"/>
      <point x="261" y="202"/>
    </contour>
  </outline>
</glyph>
<glyph name="seven" format="1">
  <advance width="600"/>
  <unicode hex="0037"/>
  <outline>
    <contour>
      <point x="513" y="522" type="line"/>
      <point x="270" y="81" type="line" smooth="yes"/>
      <point x="257" y="57"/>
      <point x="254" y="48"/>
      <point x="254" y="37" type="curve" smooth="yes"/>
      <point x="254" y="17"/>
      <point x="273" y="-1"/>
      <point x="295" y="-1" type="curve" smooth="yes"/>
      <point x="322" y="-1"/>
      <point x="339" y="12"/>
      <point x="359" y="48" type="curve" smooth="yes"/>
      <point x="619" y="523" type="line"/>
      <point x="640" y="622" type="line"/>
      <point x="207" y="622" type="line"/>
      <point x="188" y="534" type="line" smooth="yes"/>
      <point x="185" y="521"/>
      <point x="184" y="512"/>
      <point x="184" y="506" type="curve" smooth="yes"/>
      <point x="184" y="484"/>
      <point x="201" y="468"/>
      <point x="224" y="468" type="curve" smooth="yes"/>
      <point x="255" y="468"/>
      <point x="275" y="486"/>
      <point x="285" y="522" type="curve"/>
    </contour>
  </outline>
</glyph>
<glyph name="eight" format="1">
  <advance width="600"/>
  <unicode hex="0038"/>
  <outline>
    <contour>
      <point x="487" y="319" type="curve"/>
      <point x="569" y="367"/>
      <point x="608" y="421"/>
      <point x="608" y="489" type="curve" smooth="yes"/>
      <point x="608" y="576"/>
      <point x="537" y="638"/>
      <point x="435" y="638" type="curve" smooth="yes"/>
      <point x="371" y="638"/>
      <point x="305" y="613"/>
      <point x="258" y="570" type="curve" smooth="yes"/>
      <point x="214" y="531"/>
      <point x="185" y="474"/>
      <point x="185" y="429" type="curve" smooth="yes"/>
      <point x="185" y="386"/>
      <point x="204" y="353"/>
      <point x="248" y="319" type="curve"/>
      <point x="161" y="271"/>
      <point x="114" y="205"/>
      <point x="114" y="129" type="curve" smooth="yes"/>
      <point x="114" y="40"/>
      <point x="183" y="-15"/>
      <point x="295" y="-15" type="curve" smooth="yes"/>
      <point x="375" y="-15"/>
      <point x="454" y="16"/>
      <point x="499" y="64" type="curve" smooth="yes"/>
      <point x="533" y="101"/>
      <point x="556" y="154"/>
      <point x="556" y="198" type="curve" smooth="yes"/>
      <point x="556" y="246"/>
      <point x="534" y="286"/>
    </contour>
    <contour>
      <point x="413" y="538" type="curve" smooth="yes"/>
      <point x="470" y="538"/>
      <point x="505" y="511"/>
      <point x="505" y="466" type="curve" smooth="yes"/>
      <point x="505" y="410"/>
      <point x="447" y="364"/>
      <point x="376" y="364" type="curve" smooth="yes"/>
      <point x="321" y="364"/>
      <point x="285" y="392"/>
      <point x="285" y="433" type="curve" smooth="yes"/>
      <point x="285" y="492"/>
      <point x="341" y="538"/>
    </contour>
    <contour>
      <point x="357" y="263" type="curve" smooth="yes"/>
      <point x="414" y="263"/>
      <point x="456" y="231"/>
      <point x="456" y="187" type="curve" smooth="yes"/>
      <point x="456" y="131"/>
      <point x="394" y="85"/>
      <point x="318" y="85" type="curve" smooth="yes"/>
      <point x="257" y="85"/>
      <point x="218" y="113"/>
      <point x="218" y="158" type="curve" smooth="yes"/>
      <point x="218" y="214"/>
      <point x="283" y="263"/>
    </contour>
  </outline>
</glyph>
<glyph name="nine" format="1">
  <advance width="600"/>
  <unicode hex="0039"/>
  <outline>
    <contour>
      <point x="502" y="299" type="curve"/>
      <point x="492" y="275"/>
      <point x="489" y="268"/>
      <point x="483" y="257" type="curve" smooth="yes"/>
      <point x="431" y="160"/>
      <point x="325" y="88"/>
      <point x="235" y="88" type="curve" smooth="yes"/>
      <point x="226" y="88"/>
      <point x="222" y="89"/>
      <point x="212" y="93" type="curve" smooth="yes"/>
      <point x="197" y="99"/>
      <point x="187" y="101"/>
      <point x="178" y="101" type="curve" smooth="yes"/>
      <point x="146" y="101"/>
      <point x="115" y="71"/>
      <point x="115" y="40" type="curve" smooth="yes"/>
      <point x="115" y="7"/>
      <point x="157" y="-15"/>
      <point x="219" y="-15" type="curve" smooth="yes"/>
      <point x="276" y="-15"/>
      <point x="326" y="-1"/>
      <point x="380" y="29" type="curve" smooth="yes"/>
      <point x="445" y="65"/>
      <point x="506" y="121"/>
      <point x="547" y="180" type="curve" smooth="yes"/>
      <point x="597" y="255"/>
      <point x="624" y="347"/>
      <point x="624" y="443" type="curve" smooth="yes"/>
      <point x="624" y="573"/>
      <point x="566" y="638"/>
      <point x="450" y="638" type="curve" smooth="yes"/>
      <point x="371" y="638"/>
      <point x="309" y="610"/>
      <point x="260" y="553" type="curve" smooth="yes"/>
      <point x="221" y="507"/>
      <point x="197" y="443"/>
      <point x="197" y="385" type="curve" smooth="yes"/>
      <point x="197" y="296"/>
      <point x="263" y="229"/>
      <point x="350" y="229" type="curve" smooth="yes"/>
      <point x="401" y="229"/>
      <point x="442" y="248"/>
    </contour>
    <contour>
      <point x="516" y="414" type="curve"/>
      <point x="478" y="364"/>
      <point x="421" y="329"/>
      <point x="377" y="329" type="curve" smooth="yes"/>
      <point x="333" y="329"/>
      <point x="300" y="363"/>
      <point x="300" y="408" type="curve" smooth="yes"/>
      <point x="300" y="434"/>
      <point x="311" y="465"/>
      <point x="328" y="489" type="curve" smooth="yes"/>
      <point x="351" y="522"/>
      <point x="383" y="538"/>
      <point x="426" y="538" type="curve" smooth="yes"/>
      <point x="457" y="538"/>
      <point x="482" y="528"/>
      <point x="495" y="513" type="curve"/>
      <point x="508" y="496"/>
      <point x="517" y="461"/>
      <point x="517" y="428" type="curve" smooth="yes"/>
      <point x="517" y="426"/>
      <point x="517" y="420"/>
    </contour>
  </outline>
</glyph>
<glyph name="colon" format="1">
  <advance width="600"/>
  <unicode hex="003A"/>
  <outline>
    <contour>
      <point x="305" y="-15" type="line" smooth="yes"/>
      <point x="348" y="-15"/>
      <point x="387" y="24"/>
      <point x="387" y="65" type="curve" smooth="yes"/>
      <point x="387" y="95"/>
      <point x="365" y="117"/>
      <point x="333" y="117" type="curve" smooth="yes"/>
      <point x="316" y="117" type="line" smooth="yes"/>
      <point x="274" y="117"/>
      <point x="234" y="78"/>
      <point x="234" y="38" type="curve" smooth="yes"/>
      <point x="234" y="7"/>
      <point x="256" y="-15"/>
      <point x="288" y="-15" type="curve" smooth="yes"/>
    </contour>
    <contour>
      <point x="373" y="304" type="line" smooth="yes"/>
      <point x="415" y="304"/>
      <point x="455" y="343"/>
      <point x="455" y="384" type="curve" smooth="yes"/>
      <point x="455" y="415"/>
      <point x="433" y="437"/>
      <point x="401" y="437" type="curve" smooth="yes"/>
      <point x="384" y="437" type="line" smooth="yes"/>
      <point x="342" y="437"/>
      <point x="302" y="398"/>
      <point x="302" y="357" type="curve" smooth="yes"/>
      <point x="302" y="326"/>
      <point x="324" y="304"/>
      <point x="356" y="304" type="curve" smooth="yes"/>
    </contour>
  </outline>
</glyph>
<glyph name="semicolon" format="1">
  <advance width="600"/>
  <unicode hex="003B"/>
  <outline>
    <contour>
      <point x="247" y="134" type="line"/>
      <point x="126" y="-111" type="line" smooth="yes"/>
      <point x="119" y="-125"/>
      <point x="118" y="-129"/>
      <point x="118" y="-136" type="curve" smooth="yes"/>
      <point x="118" y="-148"/>
      <point x="130" y="-158"/>
      <point x="144" y="-158" type="curve" smooth="yes"/>
      <point x="156" y="-158"/>
      <point x="169" y="-150"/>
      <point x="181" y="-134" type="curve" smooth="yes"/>
      <point x="379" y="134" type="line"/>
    </contour>
    <contour>
      <point x="368" y="437" type="curve" smooth="yes"/>
      <point x="318" y="437"/>
      <point x="278" y="401"/>
      <point x="278" y="357" type="curve" smooth="yes"/>
      <point x="278" y="323"/>
      <point x="301" y="304"/>
      <point x="340" y="304" type="curve" smooth="yes"/>
      <point x="391" y="304"/>
      <point x="431" y="339"/>
      <point x="431" y="384" type="curve" smooth="yes"/>
      <point x="431" y="418"/>
      <point x="409" y="437"/>
    </contour>
  </outline>
</glyph>
<glyph name="less" format="1">
  <advance width="600"/>
  <unicode hex="003C"/>
  <outline>
    <contour>
      <point x="311" y="279" type="line"/>
      <point x="600" y="412" type="line" smooth="yes"/>
      <point x="629" y="425"/>
      <point x="642" y="442"/>
      <point x="642" y="463" type="curve" smooth="yes"/>
      <point x="642" y="467"/>
      <point x="642" y="470"/>
      <point x="641" y="474" type="curve"/>
      <point x="640" y="476" type="line"/>
      <point x="636" y="490"/>
      <point x="623" y="501"/>
      <point x="609" y="501" type="curve" smooth="yes"/>
      <point x="601" y="501"/>
      <point x="590" y="498"/>
      <point x="577" y="492" type="curve" smooth="yes"/>
      <point x="102" y="280" type="line"/>
      <point x="486" y="63" type="line" smooth="yes"/>
      <point x="496" y="57"/>
      <point x="506" y="54"/>
      <point x="514" y="54" type="curve" smooth="yes"/>
      <point x="528" y="54"/>
      <point x="546" y="65"/>
      <point x="556" y="79" type="curve"/>
      <point x="557" y="81" type="line"/>
      <point x="563" y="90"/>
      <point x="567" y="100"/>
      <point x="567" y="109" type="curve" smooth="yes"/>
      <point x="567" y="124"/>
      <point x="561" y="132"/>
      <point x="543" y="143" type="curve" smooth="yes"/>
    </contour>
  </outline>
</glyph>
<glyph name="greater" format="1">
  <advance width="600"/>
  <unicode hex="003E"/>
  <outline>
    <contour>
      <point x="407" y="275" type="line"/>
      <point x="118" y="142" type="line" smooth="yes"/>
      <point x="89" y="129"/>
      <point x="76" y="113"/>
      <point x="76" y="91" type="curve" smooth="yes"/>
      <point x="76" y="87"/>
      <point x="76" y="84"/>
      <point x="77" y="80" type="curve"/>
      <point x="78" y="78" type="line"/>
      <point x="82" y="64"/>
      <point x="95" y="53"/>
      <point x="109" y="53" type="curve" smooth="yes"/>
      <point x="116" y="53"/>
      <point x="128" y="56"/>
      <point x="141" y="62" type="curve" smooth="yes"/>
      <point x="616" y="274" type="line"/>
      <point x="232" y="491" type="line" smooth="yes"/>
      <point x="222" y="497"/>
      <point x="212" y="500"/>
      <point x="204" y="500" type="curve" smooth="yes"/>
      <point x="190" y="500"/>
      <point x="171" y="488"/>
      <point x="162" y="475" type="curve"/>
      <point x="161" y="473" type="line"/>
      <point x="154" y="463"/>
      <point x="151" y="453"/>
      <point x="151" y="445" type="curve" smooth="yes"/>
      <point x="151" y="430"/>
      <point x="157" y="422"/>
      <point x="175" y="412" type="curve" smooth="yes"/>
    </contour>
  </outline>
</glyph>
<glyph name="question" format="1">
  <advance width="600"/>
  <unicode hex="003F"/>
  <outline>
    <contour>
      <point x="201" y="460" type="line" smooth="yes"/>
      <point x="198" y="447"/>
      <point x="197" y="437"/>
      <point x="197" y="431" type="curve" smooth="yes"/>
      <point x="197" y="410"/>
      <point x="215" y="394"/>
      <point x="237" y="394" type="curve" smooth="yes"/>
      <point x="252" y="394"/>
      <point x="270" y="402"/>
      <point x="282" y="415" type="curve" smooth="yes"/>
      <point x="292" y="425"/>
      <point x="295" y="432"/>
      <point x="301" y="460" type="curve" smooth="yes"/>
      <point x="304" y="474" type="line"/>
      <point x="340" y="490"/>
      <point x="377" y="498"/>
      <point x="415" y="498" type="curve" smooth="yes"/>
      <point x="473" y="498"/>
      <point x="506" y="472"/>
      <point x="506" y="428" type="curve" smooth="yes"/>
      <point x="506" y="377"/>
      <point x="466" y="349"/>
      <point x="315" y="296" type="curve"/>
      <point x="304" y="240" type="line"/>
      <point x="299" y="221"/>
      <point x="299" y="219"/>
      <point x="299" y="211" type="curve" smooth="yes"/>
      <point x="299" y="191"/>
      <point x="317" y="174"/>
      <point x="339" y="174" type="curve" smooth="yes"/>
      <point x="368" y="174"/>
      <point x="389" y="192"/>
      <point x="401" y="228" type="curve"/>
      <point x="471" y="256"/>
      <point x="512" y="279"/>
      <point x="547" y="309" type="curve" smooth="yes"/>
      <point x="585" y="343"/>
      <point x="608" y="395"/>
      <point x="608" y="450" type="curve" smooth="yes"/>
      <point x="608" y="542"/>
      <point x="543" y="598"/>
      <point x="436" y="598" type="curve" smooth="yes"/>
      <point x="370" y="598"/>
      <point x="327" y="586"/>
      <point x="218" y="539" type="curve"/>
    </contour>
    <contour>
      <point x="308" y="-15" type="line" smooth="yes"/>
      <point x="350" y="-15"/>
      <point x="389" y="24"/>
      <point x="389" y="65" type="curve" smooth="yes"/>
      <point x="389" y="95"/>
      <point x="367" y="117"/>
      <point x="336" y="117" type="curve" smooth="yes"/>
      <point x="318" y="117" type="line" smooth="yes"/>
      <point x="276" y="117"/>
      <point x="236" y="78"/>
      <point x="236" y="38" type="curve" smooth="yes"/>
      <point x="236" y="7"/>
      <point x="258" y="-15"/>
      <point x="290" y="-15" type="curve" smooth="yes"/>
    </contour>
  </outline>
</glyph>
<glyph name="at" format="1">
  <advance width="600"/>
  <unicode hex="0040"/>
  <outline>
    <contour>
      <point x="492" y="398" type="line"/>
      <point x="364" y="389"/>
      <point x="262" y="299"/>
      <point x="262" y="196" type="curve" smooth="yes"/>
      <point x="262" y="122"/>
      <point x="316" y="72"/>
      <point x="396" y="72" type="curve" smooth="yes"/>
      <point x="469" y="72" type="line" smooth="yes"/>
      <point x="494" y="72"/>
      <point x="503" y="74"/>
      <point x="515" y="84" type="curve" smooth="yes"/>
      <point x="527" y="94"/>
      <point x="534" y="108"/>
      <point x="534" y="122" type="curve" smooth="yes"/>
      <point x="534" y="135"/>
      <point x="530" y="142"/>
      <point x="517" y="148" type="curve"/>
      <point x="577" y="429" type="line" smooth="yes"/>
      <point x="580" y="444"/>
      <point x="582" y="459"/>
      <point x="582" y="473" type="curve" smooth="yes"/>
      <point x="582" y="563"/>
      <point x="524" y="620"/>
      <point x="433" y="620" type="curve" smooth="yes"/>
      <point x="302" y="620"/>
      <point x="181" y="495"/>
      <point x="144" y="323" type="curve" smooth="yes"/>
      <point x="108" y="154" type="line" smooth="yes"/>
      <point x="101" y="122"/>
      <point x="98" y="90"/>
      <point x="98" y="59" type="curve" smooth="yes"/>
      <point x="98" y="1"/>
      <point x="110" y="-47"/>
      <point x="133" y="-85" type="curve" smooth="yes"/>
      <point x="161" y="-131"/>
      <point x="204" y="-152"/>
      <point x="269" y="-152" type="curve" smooth="yes"/>
      <point x="373" y="-152"/>
      <point x="466" y="-107"/>
      <point x="466" y="-57" type="curve" smooth="yes"/>
      <point x="466" y="-38"/>
      <point x="453" y="-25"/>
      <point x="434" y="-25" type="curve" smooth="yes"/>
      <point x="422" y="-25"/>
      <point x="416" y="-28"/>
      <point x="399" y="-42" type="curve" smooth="yes"/>
      <point x="376" y="-62"/>
      <point x="334" y="-74"/>
      <point x="289" y="-74" type="curve" smooth="yes"/>
      <point x="258" y="-74"/>
      <point x="237" y="-67"/>
      <point x="220" y="-51" type="curve" smooth="yes"/>
      <point x="194" y="-27"/>
      <point x="179" y="22"/>
      <point x="179" y="78" type="curve" smooth="yes"/>
      <point x="179" y="103"/>
      <point x="182" y="130"/>
      <point x="189" y="161" type="curve" smooth="yes"/>
      <point x="222" y="317" type="line" smooth="yes"/>
      <point x="249" y="445"/>
      <point x="333" y="541"/>
      <point x="417" y="541" type="curve" smooth="yes"/>
      <point x="469" y="541"/>
      <point x="501" y="509"/>
      <point x="501" y="458" type="curve" smooth="yes"/>
      <point x="501" y="447"/>
      <point x="500" y="439"/>
      <point x="498" y="429" type="curve" smooth="yes"/>
    </contour>
    <contour>
      <point x="440" y="155" type="line"/>
      <point x="426" y="153"/>
      <point x="419" y="153"/>
      <point x="413" y="153" type="curve" smooth="yes"/>
      <point x="372" y="153"/>
      <point x="343" y="177"/>
      <point x="343" y="211" type="curve" smooth="yes"/>
      <point x="343" y="264"/>
      <point x="400" y="309"/>
      <point x="474" y="316" type="curve"/>
    </contour>
  </outline>
</glyph>
<glyph name="B" format="1">
  <advance width="600"/>
  <unicode hex="0042"/>
  <outline>
    <contour>
      <point x="115" y="100" type="line"/>
      <point x="100" y="100" type="line" smooth="yes"/>
      <point x="69" y="100"/>
      <point x="59" y="97"/>
      <point x="45" y="85" type="curve" smooth="yes"/>
      <point x="31" y="73"/>
      <point x="22" y="56"/>
      <point x="22" y="40" type="curve" smooth="yes"/>
      <point x="22" y="12"/>
      <point x="38" y="0"/>
      <point x="79" y="0" type="curve" smooth="yes"/>
      <point x="374" y="0" type="line" smooth="yes"/>
      <point x="446" y="0"/>
      <point x="505" y="21"/>
      <point x="549" y="63" type="curve" smooth="yes"/>
      <point x="585" y="97"/>
      <point x="608" y="147"/>
      <point x="608" y="189" type="curve" smooth="yes"/>
      <point x="608" y="239"/>
      <point x="584" y="275"/>
      <point x="529" y="305" type="curve"/>
      <point x="590" y="345"/>
      <point x="620" y="391"/>
      <point x="620" y="448" type="curve" smooth="yes"/>
      <point x="620" y="482"/>
      <point x="606" y="515"/>
      <point x="582" y="539" type="curve" smooth="yes"/>
      <point x="552" y="569"/>
      <point x="512" y="583"/>
      <point x="455" y="583" type="curve" smooth="yes"/>
      <point x="203" y="583" type="line" smooth="yes"/>
      <point x="172" y="583"/>
      <point x="162" y="580"/>
      <point x="148" y="569" type="curve"/>
      <point x="134" y="556"/>
      <point x="125" y="539"/>
      <point x="125" y="523" type="curve" smooth="yes"/>
      <point x="125" y="494"/>
      <point x="140" y="483"/>
      <point x="181" y="483" type="curve" smooth="yes"/>
      <point x="196" y="483" type="line"/>
    </contour>
    <contour>
      <point x="266" y="342" type="line"/>
      <point x="296" y="483" type="line"/>
      <point x="429" y="483" type="line" smooth="yes"/>
      <point x="485" y="483"/>
      <point x="518" y="464"/>
      <point x="518" y="431" type="curve" smooth="yes"/>
      <point x="518" y="380"/>
      <point x="458" y="342"/>
      <point x="379" y="342" type="curve" smooth="yes"/>
    </contour>
    <contour>
      <point x="215" y="100" type="line"/>
      <point x="245" y="242" type="line"/>
      <point x="380" y="242" type="line" smooth="yes"/>
      <point x="456" y="242"/>
      <point x="504" y="213"/>
      <point x="504" y="166" type="curve" smooth="yes"/>
      <point x="504" y="123"/>
      <point x="464" y="100"/>
      <point x="390" y="100" type="curve" smooth="yes"/>
    </contour>
  </outline>
</glyph>
<glyph name="C" format="1">
  <advance width="600"/>
  <unicode hex="0043"/>
  <outline>
    <contour>
      <point x="567" y="563" type="line"/>
      <point x="517" y="589"/>
      <point x="484" y="597"/>
      <point x="432" y="597" type="curve" smooth="yes"/>
      <point x="277" y="597"/>
      <point x="134" y="475"/>
      <point x="100" y="315" type="curve" smooth="yes"/>
      <point x="86" y="249" type="line" smooth="yes"/>
      <point x="82" y="231"/>
      <point x="80" y="213"/>
      <point x="80" y="195" type="curve" smooth="yes"/>
      <point x="80" y="69"/>
      <point x="176" y="-14"/>
      <point x="324" y="-14" type="curve" smooth="yes"/>
      <point x="414" y="-14"/>
      <point x="493" y="11"/>
      <point x="550" y="59" type="curve" smooth="yes"/>
      <point x="576" y="80"/>
      <point x="588" y="99"/>
      <point x="588" y="118" type="curve" smooth="yes"/>
      <point x="588" y="141"/>
      <point x="570" y="159"/>
      <point x="547" y="159" type="curve" smooth="yes"/>
      <point x="534" y="159"/>
      <point x="522" y="154"/>
      <point x="508" y="143" type="curve" smooth="yes"/>
      <point x="476" y="116"/>
      <point x="475" y="116"/>
      <point x="463" y="109" type="curve" smooth="yes"/>
      <point x="436" y="95"/>
      <point x="393" y="86"/>
      <point x="347" y="86" type="curve" smooth="yes"/>
      <point x="245" y="86"/>
      <point x="182" y="135"/>
      <point x="182" y="214" type="curve" smooth="yes"/>
      <point x="182" y="225"/>
      <point x="183" y="238"/>
      <point x="186" y="251" type="curve" smooth="yes"/>
      <point x="200" y="315" type="line" smooth="yes"/>
      <point x="222" y="420"/>
      <point x="313" y="497"/>
      <point x="415" y="497" type="curve" smooth="yes"/>
      <point x="482" y="497"/>
      <point x="541" y="463"/>
      <point x="539" y="425" type="curve" smooth="yes"/>
      <point x="538" y="406" type="line" smooth="yes"/>
      <point x="537" y="383"/>
      <point x="553" y="367"/>
      <point x="577" y="367" type="curve" smooth="yes"/>
      <point x="593" y="367"/>
      <point x="610" y="375"/>
      <point x="622" y="388" type="curve" smooth="yes"/>
      <point x="632" y="398"/>
      <point x="635" y="407"/>
      <point x="641" y="433" type="curve" smooth="yes"/>
      <point x="659" y="517" type="line" smooth="yes"/>
      <point x="663" y="534"/>
      <point x="663" y="538"/>
      <point x="663" y="545" type="curve" smooth="yes"/>
      <point x="663" y="567"/>
      <point x="646" y="583"/>
      <point x="623" y="583" type="curve" smooth="yes"/>
      <point x="606" y="583"/>
      <point x="593" y="576"/>
      <point x="576" y="559" type="curve"/>
    </contour>
  </outline>
</glyph>
<glyph name="D" format="1">
  <advance width="600"/>
  <unicode hex="0044"/>
  <outline>
    <contour>
      <point x="96" y="100" type="line"/>
      <point x="71" y="100"/>
      <point x="60" y="97"/>
      <point x="46" y="85" type="curve" smooth="yes"/>
      <point x="32" y="73"/>
      <point x="23" y="56"/>
      <point x="23" y="40" type="curve" smooth="yes"/>
      <point x="23" y="12"/>
      <point x="39" y="0"/>
      <point x="80" y="0" type="curve" smooth="yes"/>
      <point x="285" y="0" type="line" smooth="yes"/>
      <point x="371" y="0"/>
      <point x="437" y="23"/>
      <point x="497" y="75" type="curve" smooth="yes"/>
      <point x="553" y="123"/>
      <point x="590" y="185"/>
      <point x="605" y="258" type="curve" smooth="yes"/>
      <point x="615" y="305" type="line" smooth="yes"/>
      <point x="620" y="326"/>
      <point x="622" y="348"/>
      <point x="622" y="369" type="curve" smooth="yes"/>
      <point x="622" y="497"/>
      <point x="539" y="583"/>
      <point x="417" y="583" type="curve" smooth="yes"/>
      <point x="204" y="583" type="line" smooth="yes"/>
      <point x="172" y="583"/>
      <point x="164" y="581"/>
      <point x="149" y="569" type="curve"/>
      <point x="135" y="556"/>
      <point x="126" y="539"/>
      <point x="126" y="523" type="curve" smooth="yes"/>
      <point x="126" y="496"/>
      <point x="142" y="483"/>
      <point x="177" y="483" type="curve"/>
    </contour>
    <contour>
      <point x="196" y="100" type="line"/>
      <point x="277" y="483" type="line"/>
      <point x="387" y="483" type="line" smooth="yes"/>
      <point x="424" y="483"/>
      <point x="456" y="474"/>
      <point x="475" y="457" type="curve" smooth="yes"/>
      <point x="503" y="434"/>
      <point x="520" y="392"/>
      <point x="520" y="350" type="curve" smooth="yes"/>
      <point x="520" y="335"/>
      <point x="519" y="321"/>
      <point x="516" y="307" type="curve" smooth="yes"/>
      <point x="506" y="261" type="line" smooth="yes"/>
      <point x="495" y="210"/>
      <point x="475" y="174"/>
      <point x="440" y="144" type="curve" smooth="yes"/>
      <point x="401" y="112"/>
      <point x="366" y="100"/>
      <point x="306" y="100" type="curve" smooth="yes"/>
    </contour>
  </outline>
</glyph>
<glyph name="F" format="1">
  <advance width="600"/>
  <unicode hex="0046"/>
  <outline>
    <contour>
      <point x="246" y="243" type="line"/>
      <point x="331" y="243" type="line"/>
      <point x="329" y="236" type="line"/>
      <point x="327" y="225"/>
      <point x="325" y="213"/>
      <point x="325" y="206" type="curve" smooth="yes"/>
      <point x="325" y="185"/>
      <point x="342" y="169"/>
      <point x="364" y="169" type="curve" smooth="yes"/>
      <point x="380" y="169"/>
      <point x="397" y="177"/>
      <point x="409" y="190" type="curve" smooth="yes"/>
      <point x="419" y="200"/>
      <point x="423" y="209"/>
      <point x="428" y="236" type="curve" smooth="yes"/>
      <point x="452" y="349" type="line" smooth="yes"/>
      <point x="457" y="368"/>
      <point x="457" y="369"/>
      <point x="457" y="377" type="curve" smooth="yes"/>
      <point x="457" y="399"/>
      <point x="440" y="415"/>
      <point x="417" y="415" type="curve" smooth="yes"/>
      <point x="401" y="415"/>
      <point x="384" y="407"/>
      <point x="372" y="394" type="curve" smooth="yes"/>
      <point x="363" y="384"/>
      <point x="358" y="375"/>
      <point x="353" y="349" type="curve"/>
      <point x="351" y="342" type="line"/>
      <point x="267" y="342" type="line"/>
      <point x="297" y="483" type="line"/>
      <point x="553" y="483" type="line"/>
      <point x="542" y="432" type="line" smooth="yes"/>
      <point x="540" y="421"/>
      <point x="538" y="409"/>
      <point x="538" y="403" type="curve" smooth="yes"/>
      <point x="538" y="382"/>
      <point x="556" y="366"/>
      <point x="578" y="366" type="curve" smooth="yes"/>
      <point x="594" y="366"/>
      <point x="610" y="374"/>
      <point x="623" y="387" type="curve" smooth="yes"/>
      <point x="633" y="397"/>
      <point x="636" y="405"/>
      <point x="642" y="432" type="curve" smooth="yes"/>
      <point x="674" y="583" type="line"/>
      <point x="204" y="583" type="line" smooth="yes"/>
      <point x="172" y="583"/>
      <point x="163" y="581"/>
      <point x="148" y="569" type="curve"/>
      <point x="134" y="556"/>
      <point x="125" y="539"/>
      <point x="125" y="523" type="curve" smooth="yes"/>
      <point x="125" y="494"/>
      <point x="141" y="483"/>
      <point x="182" y="483" type="curve" smooth="yes"/>
      <point x="197" y="483" type="line"/>
      <point x="116" y="100" type="line"/>
      <point x="101" y="100" type="line" smooth="yes"/>
      <point x="70" y="100"/>
      <point x="61" y="97"/>
      <point x="46" y="85" type="curve" smooth="yes"/>
      <point x="32" y="73"/>
      <point x="23" y="56"/>
      <point x="23" y="40" type="curve" smooth="yes"/>
      <point x="23" y="12"/>
      <point x="39" y="0"/>
      <point x="80" y="0" type="curve" smooth="yes"/>
      <point x="294" y="0" type="line" smooth="yes"/>
      <point x="322" y="0"/>
      <point x="335" y="4"/>
      <point x="349" y="15" type="curve" smooth="yes"/>
      <point x="363" y="27"/>
      <point x="372" y="44"/>
      <point x="372" y="61" type="curve" smooth="yes"/>
      <point x="372" y="76"/>
      <point x="363" y="92"/>
      <point x="350" y="96" type="curve"/>
      <point x="342" y="99"/>
      <point x="335" y="100"/>
      <point x="315" y="100" type="curve" smooth="yes"/>
      <point x="216" y="100" type="line"/>
    </contour>
  </outline>
</glyph>
<glyph name="G" format="1">
  <advance width="600"/>
  <unicode hex="0047"/>
  <outline>
    <contour>
      <point x="588" y="180" type="line"/>
      <point x="621" y="189"/>
      <point x="642" y="212"/>
      <point x="642" y="241" type="curve" smooth="yes"/>
      <point x="642" y="257"/>
      <point x="633" y="272"/>
      <point x="620" y="276" type="curve" smooth="yes"/>
      <point x="611" y="279"/>
      <point x="605" y="280"/>
      <point x="585" y="280" type="curve" smooth="yes"/>
      <point x="410" y="280" type="line" smooth="yes"/>
      <point x="379" y="280"/>
      <point x="370" y="278"/>
      <point x="355" y="266" type="curve" smooth="yes"/>
      <point x="341" y="254"/>
      <point x="332" y="236"/>
      <point x="332" y="220" type="curve" smooth="yes"/>
      <point x="332" y="191"/>
      <point x="348" y="180"/>
      <point x="389" y="180" type="curve" smooth="yes"/>
      <point x="488" y="180" type="line"/>
      <point x="474" y="111" type="line"/>
      <point x="431" y="94"/>
      <point x="391" y="86"/>
      <point x="342" y="86" type="curve" smooth="yes"/>
      <point x="239" y="86"/>
      <point x="181" y="127"/>
      <point x="181" y="199" type="curve" smooth="yes"/>
      <point x="181" y="217"/>
      <point x="183" y="234"/>
      <point x="187" y="253" type="curve" smooth="yes"/>
      <point x="201" y="317" type="line" smooth="yes"/>
      <point x="223" y="425"/>
      <point x="313" y="497"/>
      <point x="423" y="497" type="curve" smooth="yes"/>
      <point x="496" y="497"/>
      <point x="542" y="475"/>
      <point x="544" y="440" type="curve" smooth="yes"/>
      <point x="546" y="409"/>
      <point x="546" y="409"/>
      <point x="551" y="402" type="curve"/>
      <point x="556" y="393"/>
      <point x="569" y="387"/>
      <point x="582" y="387" type="curve" smooth="yes"/>
      <point x="598" y="387"/>
      <point x="615" y="395"/>
      <point x="627" y="408" type="curve" smooth="yes"/>
      <point x="637" y="418"/>
      <point x="640" y="426"/>
      <point x="646" y="453" type="curve" smooth="yes"/>
      <point x="663" y="531" type="line" smooth="yes"/>
      <point x="667" y="550"/>
      <point x="667" y="552"/>
      <point x="667" y="560" type="curve" smooth="yes"/>
      <point x="667" y="582"/>
      <point x="652" y="597"/>
      <point x="630" y="597" type="curve" smooth="yes"/>
      <point x="611" y="597"/>
      <point x="599" y="589"/>
      <point x="583" y="565" type="curve"/>
      <point x="544" y="587"/>
      <point x="498" y="597"/>
      <point x="444" y="597" type="curve" smooth="yes"/>
      <point x="362" y="597"/>
      <point x="292" y="572"/>
      <point x="228" y="520" type="curve" smooth="yes"/>
      <point x="163" y="467"/>
      <point x="117" y="393"/>
      <point x="101" y="317" type="curve" smooth="yes"/>
      <point x="86" y="246" type="line" smooth="yes"/>
      <point x="81" y="225"/>
      <point x="79" y="205"/>
      <point x="79" y="184" type="curve" smooth="yes"/>
      <point x="79" y="115"/>
      <point x="103" y="63"/>
      <point x="149" y="32" type="curve" smooth="yes"/>
      <point x="193" y="2"/>
      <point x="257" y="-14"/>
      <point x="327" y="-14" type="curve" smooth="yes"/>
      <point x="407" y="-14"/>
      <point x="460" y="0"/>
      <point x="560" y="48" type="curve"/>
    </contour>
  </outline>
</glyph>
<glyph name="H" format="1">
  <advance width="600"/>
  <unicode hex="0048"/>
  <outline>
    <contour>
      <point x="460" y="241" type="line"/>
      <point x="430" y="100" type="line"/>
      <point x="415" y="100" type="line" smooth="yes"/>
      <point x="384" y="100"/>
      <point x="375" y="97"/>
      <point x="360" y="85" type="curve" smooth="yes"/>
      <point x="346" y="73"/>
      <point x="337" y="56"/>
      <point x="337" y="40" type="curve" smooth="yes"/>
      <point x="337" y="11"/>
      <point x="353" y="0"/>
      <point x="394" y="0" type="curve" smooth="yes"/>
      <point x="515" y="0" type="line" smooth="yes"/>
      <point x="543" y="0"/>
      <point x="556" y="3"/>
      <point x="569" y="15" type="curve" smooth="yes"/>
      <point x="583" y="27"/>
      <point x="592" y="44"/>
      <point x="592" y="60" type="curve" smooth="yes"/>
      <point x="592" y="76"/>
      <point x="583" y="92"/>
      <point x="570" y="96" type="curve"/>
      <point x="562" y="99"/>
      <point x="556" y="100"/>
      <point x="536" y="100" type="curve" smooth="yes"/>
      <point x="530" y="100" type="line"/>
      <point x="611" y="483" type="line"/>
      <point x="649" y="486"/>
      <point x="675" y="511"/>
      <point x="675" y="544" type="curve" smooth="yes"/>
      <point x="675" y="560"/>
      <point x="666" y="575"/>
      <point x="653" y="579" type="curve"/>
      <point x="645" y="582"/>
      <point x="638" y="583"/>
      <point x="618" y="583" type="curve" smooth="yes"/>
      <point x="518" y="583" type="line" smooth="yes"/>
      <point x="487" y="583"/>
      <point x="477" y="581"/>
      <point x="463" y="569" type="curve" smooth="yes"/>
      <point x="449" y="556"/>
      <point x="440" y="539"/>
      <point x="440" y="523" type="curve" smooth="yes"/>
      <point x="440" y="506"/>
      <point x="449" y="492"/>
      <point x="462" y="487" type="curve" smooth="yes"/>
      <point x="471" y="484"/>
      <point x="477" y="483"/>
      <point x="496" y="483" type="curve" smooth="yes"/>
      <point x="511" y="483" type="line"/>
      <point x="481" y="341" type="line"/>
      <point x="267" y="341" type="line"/>
      <point x="297" y="483" type="line"/>
      <point x="312" y="483" type="line" smooth="yes"/>
      <point x="343" y="483"/>
      <point x="352" y="486"/>
      <point x="367" y="498" type="curve" smooth="yes"/>
      <point x="381" y="509"/>
      <point x="390" y="527"/>
      <point x="390" y="544" type="curve" smooth="yes"/>
      <point x="390" y="560"/>
      <point x="381" y="575"/>
      <point x="368" y="579" type="curve"/>
      <point x="360" y="582"/>
      <point x="353" y="583"/>
      <point x="333" y="583" type="curve" smooth="yes"/>
      <point x="233" y="583" type="line" smooth="yes"/>
      <point x="202" y="583"/>
      <point x="193" y="581"/>
      <point x="178" y="569" type="curve"/>
      <point x="164" y="556"/>
      <point x="155" y="539"/>
      <point x="155" y="523" type="curve" smooth="yes"/>
      <point x="155" y="498"/>
      <point x="169" y="485"/>
      <point x="197" y="483" type="curve"/>
      <point x="116" y="100" type="line"/>
      <point x="110" y="100" type="line" smooth="yes"/>
      <point x="79" y="100"/>
      <point x="69" y="97"/>
      <point x="55" y="85" type="curve" smooth="yes"/>
      <point x="41" y="73"/>
      <point x="32" y="56"/>
      <point x="32" y="40" type="curve" smooth="yes"/>
      <point x="32" y="11"/>
      <point x="48" y="0"/>
      <point x="88" y="0" type="curve" smooth="yes"/>
      <point x="209" y="0" type="line" smooth="yes"/>
      <point x="238" y="0"/>
      <point x="250" y="3"/>
      <point x="264" y="15" type="curve" smooth="yes"/>
      <point x="278" y="27"/>
      <point x="287" y="44"/>
      <point x="287" y="60" type="curve" smooth="yes"/>
      <point x="287" y="76"/>
      <point x="278" y="92"/>
      <point x="265" y="96" type="curve"/>
      <point x="257" y="99"/>
      <point x="249" y="100"/>
      <point x="230" y="100" type="curve" smooth="yes"/>
      <point x="216" y="100" type="line"/>
      <point x="246" y="241" type="line"/>
    </contour>
  </outline>
</glyph>
<glyph name="J" format="1">
  <advance width="600"/>
  <unicode hex="004A"/>
  <outline>
    <contour>
      <point x="592" y="483" type="line"/>
      <point x="649" y="483" type="line" smooth="yes"/>
      <point x="679" y="483"/>
      <point x="690" y="486"/>
      <point x="704" y="498" type="curve" smooth="yes"/>
      <point x="718" y="509"/>
      <point x="727" y="527"/>
      <point x="727" y="543" type="curve" smooth="yes"/>
      <point x="727" y="560"/>
      <point x="718" y="575"/>
      <point x="705" y="579" type="curve"/>
      <point x="697" y="582"/>
      <point x="690" y="583"/>
      <point x="670" y="583" type="curve" smooth="yes"/>
      <point x="394" y="583" type="line" smooth="yes"/>
      <point x="363" y="583"/>
      <point x="354" y="581"/>
      <point x="339" y="569" type="curve"/>
      <point x="325" y="556"/>
      <point x="316" y="539"/>
      <point x="316" y="523" type="curve" smooth="yes"/>
      <point x="316" y="494"/>
      <point x="332" y="483"/>
      <point x="373" y="483" type="curve" smooth="yes"/>
      <point x="492" y="483" type="line"/>
      <point x="431" y="198" type="line" smooth="yes"/>
      <point x="422" y="152"/>
      <point x="417" y="143"/>
      <point x="391" y="122" type="curve" smooth="yes"/>
      <point x="363" y="100"/>
      <point x="324" y="86"/>
      <point x="288" y="86" type="curve" smooth="yes"/>
      <point x="255" y="86"/>
      <point x="223" y="95"/>
      <point x="178" y="117" type="curve"/>
      <point x="199" y="213" type="line"/>
      <point x="202" y="232"/>
      <point x="203" y="235"/>
      <point x="203" y="243" type="curve" smooth="yes"/>
      <point x="203" y="264"/>
      <point x="186" y="280"/>
      <point x="163" y="280" type="curve" smooth="yes"/>
      <point x="147" y="280"/>
      <point x="130" y="272"/>
      <point x="118" y="259" type="curve" smooth="yes"/>
      <point x="108" y="249"/>
      <point x="104" y="240"/>
      <point x="98" y="213" type="curve" smooth="yes"/>
      <point x="64" y="51" type="line"/>
      <point x="146" y="6"/>
      <point x="208" y="-14"/>
      <point x="266" y="-14" type="curve" smooth="yes"/>
      <point x="324" y="-14"/>
      <point x="384" y="6"/>
      <point x="434" y="43" type="curve" smooth="yes"/>
      <point x="490" y="83"/>
      <point x="515" y="121"/>
      <point x="529" y="187" type="curve" smooth="yes"/>
    </contour>
  </outline>
</glyph>
<glyph name="M" format="1">
  <advance width="600"/>
  <unicode hex="004D"/>
  <outline>
    <contour>
      <point x="224" y="389" type="line"/>
      <point x="289" y="138" type="line"/>
      <point x="380" y="138" type="line"/>
      <point x="544" y="389" type="line"/>
      <point x="483" y="100" type="line"/>
      <point x="448" y="100" type="line" smooth="yes"/>
      <point x="416" y="100"/>
      <point x="408" y="98"/>
      <point x="393" y="85" type="curve" smooth="yes"/>
      <point x="379" y="73"/>
      <point x="370" y="56"/>
      <point x="370" y="40" type="curve" smooth="yes"/>
      <point x="370" y="11"/>
      <point x="386" y="0"/>
      <point x="427" y="0" type="curve" smooth="yes"/>
      <point x="556" y="0" type="line" smooth="yes"/>
      <point x="584" y="0"/>
      <point x="597" y="4"/>
      <point x="611" y="15" type="curve" smooth="yes"/>
      <point x="625" y="26"/>
      <point x="634" y="44"/>
      <point x="634" y="61" type="curve" smooth="yes"/>
      <point x="634" y="88"/>
      <point x="618" y="100"/>
      <point x="583" y="100" type="curve"/>
      <point x="664" y="483" type="line"/>
      <point x="688" y="485"/>
      <point x="698" y="490"/>
      <point x="711" y="504" type="curve" smooth="yes"/>
      <point x="722" y="515"/>
      <point x="728" y="530"/>
      <point x="728" y="544" type="curve" smooth="yes"/>
      <point x="728" y="560"/>
      <point x="719" y="575"/>
      <point x="706" y="579" type="curve"/>
      <point x="698" y="582"/>
      <point x="691" y="583"/>
      <point x="671" y="583" type="curve" smooth="yes"/>
      <point x="562" y="583" type="line"/>
      <point x="363" y="286" type="line"/>
      <point x="288" y="583" type="line"/>
      <point x="180" y="583" type="line" smooth="yes"/>
      <point x="149" y="583"/>
      <point x="139" y="580"/>
      <point x="125" y="569" type="curve" smooth="yes"/>
      <point x="111" y="557"/>
      <point x="102" y="539"/>
      <point x="102" y="523" type="curve" smooth="yes"/>
      <point x="102" y="498"/>
      <point x="115" y="486"/>
      <point x="144" y="483" type="curve"/>
      <point x="63" y="100" type="line"/>
      <point x="38" y="100"/>
      <point x="27" y="97"/>
      <point x="13" y="85" type="curve" smooth="yes"/>
      <point x="-1" y="74"/>
      <point x="-10" y="56"/>
      <point x="-10" y="40" type="curve" smooth="yes"/>
      <point x="-10" y="11"/>
      <point x="6" y="0"/>
      <point x="47" y="0" type="curve" smooth="yes"/>
      <point x="176" y="0" type="line" smooth="yes"/>
      <point x="204" y="0"/>
      <point x="217" y="4"/>
      <point x="231" y="15" type="curve" smooth="yes"/>
      <point x="245" y="27"/>
      <point x="254" y="44"/>
      <point x="254" y="61" type="curve" smooth="yes"/>
      <point x="254" y="76"/>
      <point x="245" y="92"/>
      <point x="232" y="96" type="curve"/>
      <point x="224" y="99"/>
      <point x="218" y="100"/>
      <point x="198" y="100" type="curve" smooth="yes"/>
      <point x="163" y="100" type="line"/>
    </contour>
  </outline>
</glyph>
<glyph name="O" format="1">
  <advance width="600"/>
  <unicode hex="004F"/>
  <outline>
    <contour>
      <point x="426" y="597" type="curve" smooth="yes"/>
      <point x="345" y="597"/>
      <point x="250" y="552"/>
      <point x="182" y="481" type="curve" smooth="yes"/>
      <point x="116" y="411"/>
      <point x="75" y="312"/>
      <point x="75" y="220" type="curve" smooth="yes"/>
      <point x="75" y="86"/>
      <point x="170" y="-14"/>
      <point x="297" y="-14" type="curve" smooth="yes"/>
      <point x="380" y="-14"/>
      <point x="472" y="30"/>
      <point x="541" y="102" type="curve" smooth="yes"/>
      <point x="610" y="174"/>
      <point x="649" y="270"/>
      <point x="649" y="366" type="curve" smooth="yes"/>
      <point x="649" y="498"/>
      <point x="554" y="597"/>
    </contour>
    <contour>
      <point x="405" y="497" type="curve" smooth="yes"/>
      <point x="486" y="497"/>
      <point x="546" y="431"/>
      <point x="546" y="342" type="curve" smooth="yes"/>
      <point x="546" y="211"/>
      <point x="434" y="86"/>
      <point x="317" y="86" type="curve" smooth="yes"/>
      <point x="237" y="86"/>
      <point x="178" y="153"/>
      <point x="178" y="243" type="curve" smooth="yes"/>
      <point x="178" y="371"/>
      <point x="290" y="497"/>
    </contour>
  </outline>
</glyph>
<glyph name="P" format="1">
  <advance width="600"/>
  <unicode hex="0050"/>
  <outline>
    <contour>
      <point x="237" y="200" type="line"/>
      <point x="335" y="200" type="line" smooth="yes"/>
      <point x="440" y="200"/>
      <point x="502" y="225"/>
      <point x="558" y="289" type="curve" smooth="yes"/>
      <point x="596" y="331"/>
      <point x="617" y="384"/>
      <point x="617" y="431" type="curve" smooth="yes"/>
      <point x="617" y="525"/>
      <point x="548" y="583"/>
      <point x="436" y="583" type="curve" smooth="yes"/>
      <point x="203" y="583" type="line" smooth="yes"/>
      <point x="172" y="583"/>
      <point x="163" y="581"/>
      <point x="148" y="569" type="curve"/>
      <point x="134" y="556"/>
      <point x="125" y="539"/>
      <point x="125" y="523" type="curve" smooth="yes"/>
      <point x="125" y="494"/>
      <point x="140" y="483"/>
      <point x="182" y="483" type="curve" smooth="yes"/>
      <point x="197" y="483" type="line"/>
      <point x="116" y="100" type="line"/>
      <point x="101" y="100" type="line" smooth="yes"/>
      <point x="70" y="100"/>
      <point x="60" y="97"/>
      <point x="46" y="85" type="curve" smooth="yes"/>
      <point x="32" y="73"/>
      <point x="23" y="56"/>
      <point x="23" y="40" type="curve" smooth="yes"/>
      <point x="23" y="12"/>
      <point x="39" y="0"/>
      <point x="80" y="0" type="curve" smooth="yes"/>
      <point x="293" y="0" type="line" smooth="yes"/>
      <point x="321" y="0"/>
      <point x="335" y="4"/>
      <point x="348" y="15" type="curve" smooth="yes"/>
      <point x="362" y="26"/>
      <point x="371" y="45"/>
      <point x="371" y="61" type="curve" smooth="yes"/>
      <point x="371" y="76"/>
      <point x="361" y="92"/>
      <point x="349" y="96" type="curve" smooth="yes"/>
      <point x="341" y="99"/>
      <point x="334" y="100"/>
      <point x="314" y="100" type="curve" smooth="yes"/>
      <point x="216" y="100" type="line"/>
    </contour>
    <contour>
      <point x="297" y="483" type="line"/>
      <point x="415" y="483" type="line" smooth="yes"/>
      <point x="473" y="483"/>
      <point x="509" y="457"/>
      <point x="509" y="414" type="curve" smooth="yes"/>
      <point x="509" y="347"/>
      <point x="454" y="300"/>
      <point x="376" y="300" type="curve" smooth="yes"/>
      <point x="258" y="300" type="line"/>
    </contour>
  </outline>
</glyph>
<glyph name="Q" format="1">
  <advance width="600"/>
  <unicode hex="0051"/>
  <outline>
    <contour>
      <point x="269" y="-6" type="line"/>
      <point x="277" y="-7"/>
      <point x="284" y="-7"/>
      <point x="286" y="-7" type="curve" smooth="yes"/>
      <point x="360" y="-7"/>
      <point x="416" y="10"/>
      <point x="476" y="53" type="curve" smooth="yes"/>
      <point x="586" y="130"/>
      <point x="649" y="243"/>
      <point x="649" y="363" type="curve" smooth="yes"/>
      <point x="649" y="497"/>
      <point x="555" y="597"/>
      <point x="427" y="597" type="curve" smooth="yes"/>
      <point x="246" y="597"/>
      <point x="75" y="413"/>
      <point x="75" y="220" type="curve" smooth="yes"/>
      <point x="75" y="177"/>
      <point x="85" y="135"/>
      <point x="102" y="101" type="curve" smooth="yes"/>
      <point x="119" y="67"/>
      <point x="145" y="43"/>
      <point x="200" y="7" type="curve"/>
      <point x="125" y="-53" type="line" smooth="yes"/>
      <point x="103" y="-71"/>
      <point x="96" y="-83"/>
      <point x="96" y="-104" type="curve" smooth="yes"/>
      <point x="96" y="-125"/>
      <point x="113" y="-143"/>
      <point x="134" y="-143" type="curve" smooth="yes"/>
      <point x="141" y="-143"/>
      <point x="151" y="-141"/>
      <point x="163" y="-138" type="curve" smooth="yes"/>
      <point x="206" y="-128"/>
      <point x="273" y="-117"/>
      <point x="295" y="-117" type="curve" smooth="yes"/>
      <point x="308" y="-117"/>
      <point x="330" y="-121"/>
      <point x="340" y="-125" type="curve" smooth="yes"/>
      <point x="384" y="-144"/>
      <point x="389" y="-145"/>
      <point x="413" y="-145" type="curve" smooth="yes"/>
      <point x="450" y="-145"/>
      <point x="496" y="-129"/>
      <point x="536" y="-102" type="curve" smooth="yes"/>
      <point x="554" y="-90"/>
      <point x="565" y="-71"/>
      <point x="565" y="-52" type="curve" smooth="yes"/>
      <point x="565" y="-29"/>
      <point x="548" y="-13"/>
      <point x="524" y="-13" type="curve" smooth="yes"/>
      <point x="512" y="-13"/>
      <point x="506" y="-15"/>
      <point x="480" y="-30" type="curve" smooth="yes"/>
      <point x="458" y="-42"/>
      <point x="449" y="-45"/>
      <point x="434" y="-45" type="curve" smooth="yes"/>
      <point x="422" y="-45"/>
      <point x="416" y="-44"/>
      <point x="394" y="-38" type="curve" smooth="yes"/>
      <point x="363" y="-29"/>
      <point x="339" y="-25"/>
      <point x="312" y="-25" type="curve" smooth="yes"/>
      <point x="298" y="-25"/>
      <point x="286" y="-26"/>
      <point x="261" y="-30" type="curve"/>
    </contour>
    <contour>
      <point x="405" y="497" type="curve" smooth="yes"/>
      <point x="486" y="497"/>
      <point x="546" y="431"/>
      <point x="546" y="342" type="curve" smooth="yes"/>
      <point x="546" y="210"/>
      <point x="434" y="85"/>
      <point x="317" y="85" type="curve" smooth="yes"/>
      <point x="237" y="85"/>
      <point x="177" y="152"/>
      <point x="177" y="242" type="curve" smooth="yes"/>
      <point x="177" y="371"/>
      <point x="290" y="497"/>
    </contour>
  </outline>
</glyph>
<glyph name="T" format="1">
  <advance width="600"/>
  <unicode hex="0054"/>
  <outline>
    <contour>
      <point x="452" y="483" type="line"/>
      <point x="561" y="483" type="line"/>
      <point x="541" y="390" type="line" smooth="yes"/>
      <point x="538" y="377"/>
      <point x="537" y="368"/>
      <point x="537" y="361" type="curve" smooth="yes"/>
      <point x="537" y="340"/>
      <point x="554" y="324"/>
      <point x="577" y="324" type="curve" smooth="yes"/>
      <point x="593" y="324"/>
      <point x="610" y="332"/>
      <point x="622" y="345" type="curve" smooth="yes"/>
      <point x="632" y="355"/>
      <point x="635" y="362"/>
      <point x="641" y="390" type="curve" smooth="yes"/>
      <point x="682" y="583" type="line"/>
      <point x="166" y="583" type="line"/>
      <point x="125" y="390" type="line" smooth="yes"/>
      <point x="122" y="378"/>
      <point x="121" y="368"/>
      <point x="121" y="361" type="curve" smooth="yes"/>
      <point x="121" y="341"/>
      <point x="139" y="324"/>
      <point x="161" y="324" type="curve" smooth="yes"/>
      <point x="176" y="324"/>
      <point x="193" y="332"/>
      <point x="206" y="345" type="curve" smooth="yes"/>
      <point x="216" y="355"/>
      <point x="219" y="363"/>
      <point x="225" y="390" type="curve" smooth="yes"/>
      <point x="245" y="483" type="line"/>
      <point x="352" y="483" type="line"/>
      <point x="270" y="100" type="line"/>
      <point x="206" y="100" type="line" smooth="yes"/>
      <point x="174" y="100"/>
      <point x="166" y="98"/>
      <point x="151" y="85" type="curve" smooth="yes"/>
      <point x="137" y="73"/>
      <point x="128" y="56"/>
      <point x="128" y="40" type="curve" smooth="yes"/>
      <point x="128" y="12"/>
      <point x="144" y="0"/>
      <point x="184" y="0" type="curve" smooth="yes"/>
      <point x="415" y="0" type="line" smooth="yes"/>
      <point x="442" y="0"/>
      <point x="456" y="4"/>
      <point x="470" y="15" type="curve" smooth="yes"/>
      <point x="484" y="27"/>
      <point x="493" y="44"/>
      <point x="493" y="61" type="curve" smooth="yes"/>
      <point x="493" y="77"/>
      <point x="484" y="92"/>
      <point x="471" y="96" type="curve" smooth="yes"/>
      <point x="462" y="99"/>
      <point x="456" y="100"/>
      <point x="436" y="100" type="curve" smooth="yes"/>
      <point x="370" y="100" type="line"/>
    </contour>
  </outline>
</glyph>
<glyph name="V" format="1">
  <advance width="600"/>
  <unicode hex="0056"/>
  <outline>
    <contour>
      <point x="333" y="144" type="line"/>
      <point x="261" y="483" type="line"/>
      <point x="280" y="483" type="line" smooth="yes"/>
      <point x="311" y="483"/>
      <point x="321" y="486"/>
      <point x="335" y="498" type="curve" smooth="yes"/>
      <point x="349" y="510"/>
      <point x="358" y="527"/>
      <point x="358" y="543" type="curve" smooth="yes"/>
      <point x="358" y="560"/>
      <point x="349" y="575"/>
      <point x="336" y="579" type="curve"/>
      <point x="328" y="582"/>
      <point x="320" y="583"/>
      <point x="302" y="583" type="curve" smooth="yes"/>
      <point x="169" y="583" type="line" smooth="yes"/>
      <point x="138" y="583"/>
      <point x="129" y="581"/>
      <point x="114" y="569" type="curve" smooth="yes"/>
      <point x="100" y="557"/>
      <point x="91" y="539"/>
      <point x="91" y="523" type="curve" smooth="yes"/>
      <point x="91" y="497"/>
      <point x="106" y="485"/>
      <point x="137" y="483" type="curve"/>
      <point x="149" y="483" type="line"/>
      <point x="249" y="0" type="line"/>
      <point x="347" y="0" type="line"/>
      <point x="655" y="483" type="line"/>
      <point x="682" y="483"/>
      <point x="690" y="484"/>
      <point x="701" y="490" type="curve" smooth="yes"/>
      <point x="721" y="501"/>
      <point x="735" y="523"/>
      <point x="735" y="543" type="curve" smooth="yes"/>
      <point x="735" y="560"/>
      <point x="726" y="575"/>
      <point x="713" y="579" type="curve"/>
      <point x="705" y="582"/>
      <point x="697" y="583"/>
      <point x="678" y="583" type="curve" smooth="yes"/>
      <point x="547" y="583" type="line" smooth="yes"/>
      <point x="515" y="583"/>
      <point x="507" y="581"/>
      <point x="492" y="569" type="curve" smooth="yes"/>
      <point x="478" y="557"/>
      <point x="469" y="539"/>
      <point x="469" y="523" type="curve" smooth="yes"/>
      <point x="469" y="507"/>
      <point x="478" y="492"/>
      <point x="491" y="487" type="curve" smooth="yes"/>
      <point x="499" y="484"/>
      <point x="505" y="483"/>
      <point x="525" y="483" type="curve" smooth="yes"/>
      <point x="550" y="483" type="line"/>
    </contour>
  </outline>
</glyph>
<glyph name="W" format="1">
  <advance width="600"/>
  <unicode hex="0057"/>
  <outline>
    <contour>
      <point x="359" y="277" type="line"/>
      <point x="394" y="0" type="line"/>
      <point x="504" y="0" type="line"/>
      <point x="667" y="483" type="line"/>
      <point x="702" y="489"/>
      <point x="725" y="513"/>
      <point x="725" y="544" type="curve" smooth="yes"/>
      <point x="725" y="560"/>
      <point x="716" y="575"/>
      <point x="703" y="579" type="curve"/>
      <point x="695" y="582"/>
      <point x="688" y="583"/>
      <point x="668" y="583" type="curve" smooth="yes"/>
      <point x="538" y="583" type="line" smooth="yes"/>
      <point x="506" y="583"/>
      <point x="497" y="581"/>
      <point x="483" y="569" type="curve" smooth="yes"/>
      <point x="469" y="556"/>
      <point x="460" y="539"/>
      <point x="460" y="523" type="curve" smooth="yes"/>
      <point x="460" y="494"/>
      <point x="475" y="483"/>
      <point x="516" y="483" type="curve" smooth="yes"/>
      <point x="570" y="483" type="line"/>
      <point x="476" y="211" type="line"/>
      <point x="448" y="437" type="line"/>
      <point x="345" y="437" type="line"/>
      <point x="221" y="211" type="line"/>
      <point x="242" y="483" type="line"/>
      <point x="290" y="483" type="line" smooth="yes"/>
      <point x="320" y="483"/>
      <point x="331" y="486"/>
      <point x="346" y="498" type="curve" smooth="yes"/>
      <point x="360" y="509"/>
      <point x="369" y="527"/>
      <point x="369" y="543" type="curve" smooth="yes"/>
      <point x="369" y="560"/>
      <point x="360" y="575"/>
      <point x="347" y="579" type="curve" smooth="yes"/>
      <point x="338" y="582"/>
      <point x="332" y="583"/>
      <point x="312" y="583" type="curve" smooth="yes"/>
      <point x="180" y="583" type="line" smooth="yes"/>
      <point x="149" y="583"/>
      <point x="141" y="581"/>
      <point x="126" y="569" type="curve" smooth="yes"/>
      <point x="111" y="556"/>
      <point x="102" y="537"/>
      <point x="102" y="519" type="curve" smooth="yes"/>
      <point x="102" y="498"/>
      <point x="114" y="486"/>
      <point x="139" y="483" type="curve"/>
      <point x="98" y="0" type="line"/>
      <point x="209" y="0" type="line"/>
    </contour>
  </outline>
</glyph>
<glyph name="X" format="1">
  <advance width="600"/>
  <unicode hex="0058"/>
  <outline>
    <contour>
      <point x="427" y="297" type="line"/>
      <point x="623" y="483" type="line"/>
      <point x="663" y="484"/>
      <point x="692" y="509"/>
      <point x="692" y="544" type="curve" smooth="yes"/>
      <point x="692" y="560"/>
      <point x="683" y="575"/>
      <point x="670" y="579" type="curve"/>
      <point x="662" y="582"/>
      <point x="655" y="583"/>
      <point x="635" y="583" type="curve" smooth="yes"/>
      <point x="545" y="583" type="line" smooth="yes"/>
      <point x="514" y="583"/>
      <point x="505" y="580"/>
      <point x="490" y="569" type="curve"/>
      <point x="476" y="556"/>
      <point x="467" y="539"/>
      <point x="467" y="523" type="curve" smooth="yes"/>
      <point x="467" y="504"/>
      <point x="472" y="497"/>
      <point x="495" y="484" type="curve"/>
      <point x="379" y="375" type="line"/>
      <point x="308" y="484" type="line"/>
      <point x="342" y="500"/>
      <point x="357" y="517"/>
      <point x="357" y="544" type="curve" smooth="yes"/>
      <point x="357" y="560"/>
      <point x="347" y="575"/>
      <point x="335" y="579" type="curve" smooth="yes"/>
      <point x="326" y="582"/>
      <point x="320" y="583"/>
      <point x="300" y="583" type="curve" smooth="yes"/>
      <point x="209" y="583" type="line" smooth="yes"/>
      <point x="178" y="583"/>
      <point x="168" y="580"/>
      <point x="154" y="569" type="curve" smooth="yes"/>
      <point x="140" y="557"/>
      <point x="131" y="539"/>
      <point x="131" y="523" type="curve" smooth="yes"/>
      <point x="131" y="497"/>
      <point x="146" y="484"/>
      <point x="179" y="483" type="curve"/>
      <point x="298" y="298" type="line"/>
      <point x="89" y="100" type="line"/>
      <point x="48" y="100"/>
      <point x="19" y="75"/>
      <point x="19" y="40" type="curve" smooth="yes"/>
      <point x="19" y="11"/>
      <point x="35" y="0"/>
      <point x="76" y="0" type="curve" smooth="yes"/>
      <point x="186" y="0" type="line" smooth="yes"/>
      <point x="215" y="0"/>
      <point x="227" y="3"/>
      <point x="241" y="15" type="curve" smooth="yes"/>
      <point x="255" y="26"/>
      <point x="264" y="44"/>
      <point x="264" y="60" type="curve" smooth="yes"/>
      <point x="264" y="86"/>
      <point x="249" y="99"/>
      <point x="219" y="100" type="curve"/>
      <point x="347" y="220" type="line"/>
      <point x="423" y="100" type="line"/>
      <point x="398" y="98"/>
      <point x="386" y="94"/>
      <point x="373" y="79" type="curve"/>
      <point x="362" y="68"/>
      <point x="356" y="53"/>
      <point x="356" y="40" type="curve" smooth="yes"/>
      <point x="356" y="11"/>
      <point x="372" y="0"/>
      <point x="413" y="0" type="curve" smooth="yes"/>
      <point x="523" y="0" type="line" smooth="yes"/>
      <point x="552" y="0"/>
      <point x="564" y="3"/>
      <point x="578" y="15" type="curve" smooth="yes"/>
      <point x="592" y="27"/>
      <point x="601" y="44"/>
      <point x="601" y="60" type="curve" smooth="yes"/>
      <point x="601" y="87"/>
      <point x="585" y="100"/>
      <point x="552" y="100" type="curve"/>
    </contour>
  </outline>
</glyph>
<glyph name="bracketleft" format="1">
  <advance width="600"/>
  <unicode hex="005B"/>
  <outline>
    <contour>
      <point x="462" y="527" type="line"/>
      <point x="520" y="527" type="line" smooth="yes"/>
      <point x="550" y="527"/>
      <point x="561" y="530"/>
      <point x="575" y="542" type="curve" smooth="yes"/>
      <point x="589" y="554"/>
      <point x="598" y="572"/>
      <point x="598" y="588" type="curve" smooth="yes"/>
      <point x="598" y="604"/>
      <point x="589" y="618"/>
      <point x="576" y="623" type="curve" smooth="yes"/>
      <point x="568" y="626"/>
      <point x="562" y="627"/>
      <point x="542" y="627" type="curve" smooth="yes"/>
      <point x="384" y="627" type="line"/>
      <point x="219" y="-148" type="line"/>
      <point x="378" y="-148" type="line" smooth="yes"/>
      <point x="407" y="-148"/>
      <point x="419" y="-145"/>
      <point x="433" y="-133" type="curve" smooth="yes"/>
      <point x="447" y="-121"/>
      <point x="456" y="-104"/>
      <point x="456" y="-87" type="curve" smooth="yes"/>
      <point x="456" y="-71"/>
      <point x="447" y="-56"/>
      <point x="434" y="-52" type="curve" smooth="yes"/>
      <point x="425" y="-49"/>
      <point x="419" y="-48"/>
      <point x="399" y="-48" type="curve" smooth="yes"/>
      <point x="340" y="-48" type="line"/>
    </contour>
  </outline>
</glyph>
<glyph name="backslash" format="1">
  <advance width="600"/>
  <unicode hex="005C"/>
  <outline>
    <contour>
      <point x="322" y="651" type="line" smooth="yes"/>
      <point x="314" y="685"/>
      <point x="304" y="695"/>
      <point x="280" y="695" type="curve" smooth="yes"/>
      <point x="249" y="695"/>
      <point x="219" y="666"/>
      <point x="219" y="636" type="curve" smooth="yes"/>
      <point x="219" y="630"/>
      <point x="220" y="623"/>
      <point x="224" y="610" type="curve" smooth="yes"/>
      <point x="400" y="-69" type="line" smooth="yes"/>
      <point x="408" y="-103"/>
      <point x="418" y="-113"/>
      <point x="443" y="-113" type="curve" smooth="yes"/>
      <point x="474" y="-113"/>
      <point x="504" y="-84"/>
      <point x="504" y="-54" type="curve" smooth="yes"/>
      <point x="504" y="-48"/>
      <point x="502" y="-38"/>
      <point x="499" y="-27" type="curve" smooth="yes"/>
    </contour>
  </outline>
</glyph>
<glyph name="bracketright" format="1">
  <advance width="600"/>
  <unicode hex="005D"/>
  <outline>
    <contour>
      <point x="240" y="-48" type="line"/>
      <point x="182" y="-48" type="line" smooth="yes"/>
      <point x="152" y="-48"/>
      <point x="141" y="-51"/>
      <point x="127" y="-63" type="curve" smooth="yes"/>
      <point x="113" y="-75"/>
      <point x="104" y="-93"/>
      <point x="104" y="-109" type="curve" smooth="yes"/>
      <point x="104" y="-125"/>
      <point x="113" y="-139"/>
      <point x="126" y="-144" type="curve" smooth="yes"/>
      <point x="134" y="-147"/>
      <point x="140" y="-148"/>
      <point x="160" y="-148" type="curve" smooth="yes"/>
      <point x="318" y="-148" type="line"/>
      <point x="483" y="627" type="line"/>
      <point x="324" y="627" type="line" smooth="yes"/>
      <point x="295" y="627"/>
      <point x="283" y="624"/>
      <point x="269" y="612" type="curve" smooth="yes"/>
      <point x="255" y="600"/>
      <point x="246" y="583"/>
      <point x="246" y="566" type="curve" smooth="yes"/>
      <point x="246" y="550"/>
      <point x="255" y="535"/>
      <point x="268" y="531" type="curve" smooth="yes"/>
      <point x="277" y="528"/>
      <point x="283" y="527"/>
      <point x="303" y="527" type="curve" smooth="yes"/>
      <point x="362" y="527" type="line"/>
    </contour>
  </outline>
</glyph>
<glyph name="asciicircum" format="1">
  <advance width="600"/>
  <unicode hex="005E"/>
  <outline>
    <contour>
      <point x="404" y="494" type="line"/>
      <point x="494" y="355" type="line" smooth="yes"/>
      <point x="510" y="330"/>
      <point x="517" y="325"/>
      <point x="536" y="325" type="curve" smooth="yes"/>
      <point x="567" y="325"/>
      <point x="598" y="355"/>
      <point x="598" y="384" type="curve" smooth="yes"/>
      <point x="598" y="395"/>
      <point x="595" y="402"/>
      <point x="584" y="419" type="curve" smooth="yes"/>
      <point x="438" y="652" type="line"/>
      <point x="193" y="419" type="line" smooth="yes"/>
      <point x="168" y="395"/>
      <point x="161" y="384"/>
      <point x="161" y="365" type="curve" smooth="yes"/>
      <point x="161" y="342"/>
      <point x="178" y="325"/>
      <point x="202" y="325" type="curve" smooth="yes"/>
      <point x="221" y="325"/>
      <point x="229" y="330"/>
      <point x="257" y="356" type="curve" smooth="yes"/>
    </contour>
  </outline>
</glyph>
<glyph name="grave" format="1">
  <advance width="600"/>
  <unicode hex="0060"/>
  <outline>
    <contour>
      <point x="338" y="680" type="line" smooth="yes"/>
      <point x="326" y="693"/>
      <point x="320" y="696"/>
      <point x="310" y="696" type="curve" smooth="yes"/>
      <point x="286" y="696"/>
      <point x="264" y="675"/>
      <point x="264" y="652" type="curve" smooth="yes"/>
      <point x="264" y="644"/>
      <point x="269" y="634"/>
      <point x="280" y="624" type="curve"/>
      <point x="390" y="512" type="line" smooth="yes"/>
      <point x="402" y="500"/>
      <point x="409" y="496"/>
      <point x="418" y="496" type="curve" smooth="yes"/>
      <point x="441" y="496"/>
      <point x="464" y="517"/>
      <point x="464" y="540" type="curve" smooth="yes"/>
      <point x="464" y="549"/>
      <point x="459" y="559"/>
      <point x="448" y="569" type="curve"/>
    </contour>
  </outline>
</glyph>
<glyph name="b" format="1">
  <advance width="600"/>
  <unicode hex="0062"/>
  <outline>
    <contour>
      <point x="307" y="624" type="line"/>
      <point x="191" y="624" type="line" smooth="yes"/>
      <point x="160" y="624"/>
      <point x="150" y="621"/>
      <point x="136" y="610" type="curve" smooth="yes"/>
      <point x="122" y="598"/>
      <point x="113" y="580"/>
      <point x="113" y="564" type="curve" smooth="yes"/>
      <point x="113" y="535"/>
      <point x="128" y="524"/>
      <point x="170" y="524" type="curve" smooth="yes"/>
      <point x="186" y="524" type="line"/>
      <point x="96" y="100" type="line"/>
      <point x="80" y="100" type="line" smooth="yes"/>
      <point x="49" y="100"/>
      <point x="39" y="97"/>
      <point x="25" y="85" type="curve" smooth="yes"/>
      <point x="11" y="73"/>
      <point x="2" y="56"/>
      <point x="2" y="40" type="curve" smooth="yes"/>
      <point x="2" y="11"/>
      <point x="18" y="0"/>
      <point x="58" y="0" type="curve" smooth="yes"/>
      <point x="174" y="0" type="line"/>
      <point x="182" y="35" type="line"/>
      <point x="226" y="-1"/>
      <point x="263" y="-14"/>
      <point x="321" y="-14" type="curve" smooth="yes"/>
      <point x="409" y="-14"/>
      <point x="481" y="16"/>
      <point x="541" y="77" type="curve" smooth="yes"/>
      <point x="592" y="129"/>
      <point x="623" y="201"/>
      <point x="623" y="269" type="curve" smooth="yes"/>
      <point x="623" y="324"/>
      <point x="600" y="376"/>
      <point x="560" y="409" type="curve" smooth="yes"/>
      <point x="528" y="437"/>
      <point x="479" y="451"/>
      <point x="418" y="451" type="curve" smooth="yes"/>
      <point x="360" y="451"/>
      <point x="309" y="435"/>
      <point x="259" y="401" type="curve"/>
    </contour>
    <contour>
      <point x="395" y="351" type="curve" smooth="yes"/>
      <point x="431" y="351"/>
      <point x="460" y="344"/>
      <point x="478" y="330" type="curve" smooth="yes"/>
      <point x="505" y="310"/>
      <point x="520" y="279"/>
      <point x="520" y="244" type="curve" smooth="yes"/>
      <point x="520" y="213"/>
      <point x="506" y="179"/>
      <point x="483" y="151" type="curve" smooth="yes"/>
      <point x="448" y="108"/>
      <point x="400" y="86"/>
      <point x="343" y="86" type="curve" smooth="yes"/>
      <point x="264" y="86"/>
      <point x="218" y="126"/>
      <point x="218" y="193" type="curve" smooth="yes"/>
      <point x="218" y="224"/>
      <point x="231" y="258"/>
      <point x="255" y="286" type="curve" smooth="yes"/>
      <point x="291" y="329"/>
      <point x="337" y="351"/>
    </contour>
  </outline>
</glyph>
<glyph name="c" format="1">
  <advance width="600"/>
  <unicode hex="0063"/>
  <outline>
    <contour>
      <point x="622" y="384" type="line" smooth="yes"/>
      <point x="625" y="400"/>
      <point x="626" y="405"/>
      <point x="626" y="412" type="curve" smooth="yes"/>
      <point x="626" y="436"/>
      <point x="612" y="450"/>
      <point x="588" y="450" type="curve" smooth="yes"/>
      <point x="567" y="450"/>
      <point x="554" y="441"/>
      <point x="544" y="420" type="curve"/>
      <point x="509" y="440"/>
      <point x="463" y="450"/>
      <point x="407" y="450" type="curve" smooth="yes"/>
      <point x="314" y="450"/>
      <point x="234" y="416"/>
      <point x="174" y="351" type="curve" smooth="yes"/>
      <point x="124" y="297"/>
      <point x="93" y="223"/>
      <point x="93" y="156" type="curve" smooth="yes"/>
      <point x="93" y="104"/>
      <point x="115" y="56"/>
      <point x="154" y="26" type="curve" smooth="yes"/>
      <point x="189" y="-2"/>
      <point x="244" y="-16"/>
      <point x="317" y="-16" type="curve" smooth="yes"/>
      <point x="417" y="-16"/>
      <point x="491" y="2"/>
      <point x="544" y="39" type="curve" smooth="yes"/>
      <point x="570" y="57"/>
      <point x="585" y="79"/>
      <point x="585" y="99" type="curve" smooth="yes"/>
      <point x="585" y="123"/>
      <point x="568" y="140"/>
      <point x="545" y="140" type="curve" smooth="yes"/>
      <point x="533" y="140"/>
      <point x="523" y="136"/>
      <point x="512" y="128" type="curve" smooth="yes"/>
      <point x="464" y="94"/>
      <point x="428" y="84"/>
      <point x="348" y="84" type="curve" smooth="yes"/>
      <point x="245" y="84"/>
      <point x="195" y="115"/>
      <point x="195" y="178" type="curve" smooth="yes"/>
      <point x="195" y="213"/>
      <point x="210" y="252"/>
      <point x="234" y="282" type="curve" smooth="yes"/>
      <point x="271" y="327"/>
      <point x="321" y="350"/>
      <point x="385" y="350" type="curve" smooth="yes"/>
      <point x="429" y="350"/>
      <point x="463" y="341"/>
      <point x="486" y="325" type="curve"/>
      <point x="497" y="316"/>
      <point x="501" y="306"/>
      <point x="501" y="289" type="curve" smooth="yes"/>
      <point x="501" y="268"/>
      <point x="502" y="262"/>
      <point x="508" y="255" type="curve" smooth="yes"/>
      <point x="515" y="247"/>
      <point x="529" y="241"/>
      <point x="541" y="241" type="curve" smooth="yes"/>
      <point x="557" y="241"/>
      <point x="574" y="249"/>
      <point x="586" y="261" type="curve" smooth="yes"/>
      <point x="596" y="271"/>
      <point x="600" y="282"/>
      <point x="606" y="307" type="curve" smooth="yes"/>
    </contour>
  </outline>
</glyph>
<glyph name="f" format="1">
  <advance width="600"/>
  <unicode hex="0066"/>
  <outline>
    <contour>
      <point x="370" y="337" type="line"/>
      <point x="521" y="337" type="line" smooth="yes"/>
      <point x="550" y="337"/>
      <point x="562" y="340"/>
      <point x="576" y="352" type="curve" smooth="yes"/>
      <point x="590" y="364"/>
      <point x="599" y="381"/>
      <point x="599" y="397" type="curve" smooth="yes"/>
      <point x="599" y="414"/>
      <point x="590" y="429"/>
      <point x="577" y="433" type="curve"/>
      <point x="569" y="436"/>
      <point x="563" y="437"/>
      <point x="542" y="437" type="curve" smooth="yes"/>
      <point x="392" y="437" type="line"/>
      <point x="399" y="474" type="line"/>
      <point x="407" y="507"/>
      <point x="437" y="523"/>
      <point x="494" y="523" type="curve" smooth="yes"/>
      <point x="525" y="523"/>
      <point x="570" y="519"/>
      <point x="605" y="512" type="curve" smooth="yes"/>
      <point x="617" y="510"/>
      <point x="626" y="509"/>
      <point x="632" y="509" type="curve" smooth="yes"/>
      <point x="662" y="509"/>
      <point x="691" y="539"/>
      <point x="691" y="570" type="curve" smooth="yes"/>
      <point x="691" y="589"/>
      <point x="680" y="601"/>
      <point x="658" y="607" type="curve" smooth="yes"/>
      <point x="628" y="616"/>
      <point x="566" y="623"/>
      <point x="525" y="623" type="curve" smooth="yes"/>
      <point x="405" y="623"/>
      <point x="319" y="566"/>
      <point x="299" y="474" type="curve" smooth="yes"/>
      <point x="291" y="437" type="line"/>
      <point x="245" y="437" type="line" smooth="yes"/>
      <point x="213" y="437"/>
      <point x="204" y="435"/>
      <point x="189" y="423" type="curve" smooth="yes"/>
      <point x="175" y="411"/>
      <point x="166" y="393"/>
      <point x="166" y="377" type="curve" smooth="yes"/>
      <point x="166" y="348"/>
      <point x="182" y="337"/>
      <point x="224" y="337" type="curve" smooth="yes"/>
      <point x="270" y="337" type="line"/>
      <point x="220" y="100" type="line"/>
      <point x="162" y="100" type="line" smooth="yes"/>
      <point x="130" y="100"/>
      <point x="122" y="98"/>
      <point x="107" y="85" type="curve" smooth="yes"/>
      <point x="93" y="73"/>
      <point x="84" y="56"/>
      <point x="84" y="40" type="curve" smooth="yes"/>
      <point x="84" y="12"/>
      <point x="100" y="0"/>
      <point x="140" y="0" type="curve" smooth="yes"/>
      <point x="438" y="0" type="line" smooth="yes"/>
      <point x="466" y="0"/>
      <point x="479" y="4"/>
      <point x="493" y="15" type="curve" smooth="yes"/>
      <point x="507" y="27"/>
      <point x="516" y="44"/>
      <point x="516" y="61" type="curve" smooth="yes"/>
      <point x="516" y="76"/>
      <point x="507" y="92"/>
      <point x="494" y="96" type="curve"/>
      <point x="486" y="99"/>
      <point x="479" y="100"/>
      <point x="459" y="100" type="curve" smooth="yes"/>
      <point x="320" y="100" type="line"/>
    </contour>
  </outline>
</glyph>
<glyph name="h" format="1">
  <advance width="600"/>
  <unicode hex="0068"/>
  <outline>
    <contour>
      <point x="328" y="624" type="line"/>
      <point x="212" y="624" type="line" smooth="yes"/>
      <point x="181" y="624"/>
      <point x="171" y="621"/>
      <point x="157" y="610" type="curve" smooth="yes"/>
      <point x="143" y="598"/>
      <point x="134" y="580"/>
      <point x="134" y="564" type="curve" smooth="yes"/>
      <point x="134" y="535"/>
      <point x="149" y="524"/>
      <point x="191" y="524" type="curve" smooth="yes"/>
      <point x="207" y="524" type="line"/>
      <point x="117" y="100" type="line"/>
      <point x="111" y="100" type="line" smooth="yes"/>
      <point x="80" y="100"/>
      <point x="71" y="97"/>
      <point x="56" y="85" type="curve" smooth="yes"/>
      <point x="42" y="73"/>
      <point x="33" y="56"/>
      <point x="33" y="40" type="curve" smooth="yes"/>
      <point x="33" y="11"/>
      <point x="49" y="0"/>
      <point x="89" y="0" type="curve" smooth="yes"/>
      <point x="201" y="0" type="line" smooth="yes"/>
      <point x="230" y="0"/>
      <point x="243" y="3"/>
      <point x="257" y="15" type="curve" smooth="yes"/>
      <point x="271" y="26"/>
      <point x="280" y="44"/>
      <point x="280" y="60" type="curve" smooth="yes"/>
      <point x="280" y="76"/>
      <point x="270" y="91"/>
      <point x="258" y="96" type="curve"/>
      <point x="249" y="99"/>
      <point x="243" y="100"/>
      <point x="223" y="100" type="curve" smooth="yes"/>
      <point x="217" y="100" type="line"/>
      <point x="256" y="283" type="line"/>
      <point x="324" y="339"/>
      <point x="348" y="350"/>
      <point x="396" y="350" type="curve" smooth="yes"/>
      <point x="442" y="350"/>
      <point x="471" y="331"/>
      <point x="471" y="302" type="curve" smooth="yes"/>
      <point x="471" y="294"/>
      <point x="470" y="283"/>
      <point x="467" y="271" type="curve" smooth="yes"/>
      <point x="431" y="100" type="line"/>
      <point x="425" y="100" type="line" smooth="yes"/>
      <point x="394" y="100"/>
      <point x="384" y="97"/>
      <point x="369" y="85" type="curve" smooth="yes"/>
      <point x="355" y="73"/>
      <point x="346" y="56"/>
      <point x="346" y="40" type="curve" smooth="yes"/>
      <point x="346" y="11"/>
      <point x="362" y="0"/>
      <point x="403" y="0" type="curve" smooth="yes"/>
      <point x="515" y="0" type="line" smooth="yes"/>
      <point x="544" y="0"/>
      <point x="556" y="3"/>
      <point x="570" y="15" type="curve" smooth="yes"/>
      <point x="584" y="27"/>
      <point x="593" y="44"/>
      <point x="593" y="60" type="curve" smooth="yes"/>
      <point x="593" y="76"/>
      <point x="584" y="91"/>
      <point x="571" y="96" type="curve" smooth="yes"/>
      <point x="563" y="99"/>
      <point x="557" y="100"/>
      <point x="536" y="100" type="curve" smooth="yes"/>
      <point x="530" y="100" type="line"/>
      <point x="570" y="284" type="line" smooth="yes"/>
      <point x="573" y="298"/>
      <point x="574" y="312"/>
      <point x="574" y="325" type="curve" smooth="yes"/>
      <point x="574" y="401"/>
      <point x="516" y="450"/>
      <point x="428" y="450" type="curve" smooth="yes"/>
      <point x="376" y="450"/>
      <point x="327" y="430"/>
      <point x="278" y="389" type="curve"/>
    </contour>
  </outline>
</glyph>
<glyph name="j" format="1">
  <advance width="600"/>
  <unicode hex="006A"/>
  <outline>
    <contour>
      <point x="460" y="337" type="line"/>
      <point x="384" y="-20" type="line" smooth="yes"/>
      <point x="373" y="-72"/>
      <point x="329" y="-105"/>
      <point x="271" y="-105" type="curve" smooth="yes"/>
      <point x="161" y="-105" type="line" smooth="yes"/>
      <point x="130" y="-105"/>
      <point x="121" y="-107"/>
      <point x="106" y="-120" type="curve" smooth="yes"/>
      <point x="92" y="-132"/>
      <point x="83" y="-149"/>
      <point x="83" y="-165" type="curve" smooth="yes"/>
      <point x="83" y="-194"/>
      <point x="99" y="-205"/>
      <point x="140" y="-205" type="curve" smooth="yes"/>
      <point x="253" y="-205" type="line" smooth="yes"/>
      <point x="362" y="-205"/>
      <point x="462" y="-125"/>
      <point x="484" y="-20" type="curve" smooth="yes"/>
      <point x="581" y="437" type="line"/>
      <point x="279" y="437" type="line" smooth="yes"/>
      <point x="248" y="437"/>
      <point x="239" y="435"/>
      <point x="224" y="422" type="curve" smooth="yes"/>
      <point x="210" y="410"/>
      <point x="201" y="393"/>
      <point x="201" y="377" type="curve" smooth="yes"/>
      <point x="201" y="348"/>
      <point x="217" y="337"/>
      <point x="258" y="337" type="curve" smooth="yes"/>
    </contour>
    <contour>
      <point x="563" y="623" type="line"/>
      <point x="443" y="623" type="line"/>
      <point x="421" y="518" type="line"/>
      <point x="540" y="518" type="line"/>
    </contour>
  </outline>
</glyph>
<glyph name="k" format="1">
  <advance width="600"/>
  <unicode hex="006B"/>
  <outline>
    <contour>
      <point x="249" y="164" type="line"/>
      <point x="270" y="178" type="line"/>
      <point x="354" y="87" type="line"/>
      <point x="336" y="71"/>
      <point x="329" y="57"/>
      <point x="329" y="40" type="curve" smooth="yes"/>
      <point x="329" y="11"/>
      <point x="345" y="0"/>
      <point x="386" y="0" type="curve" smooth="yes"/>
      <point x="504" y="0" type="line" smooth="yes"/>
      <point x="532" y="0"/>
      <point x="545" y="3"/>
      <point x="559" y="15" type="curve" smooth="yes"/>
      <point x="573" y="27"/>
      <point x="582" y="44"/>
      <point x="582" y="60" type="curve" smooth="yes"/>
      <point x="582" y="76"/>
      <point x="573" y="92"/>
      <point x="560" y="96" type="curve"/>
      <point x="552" y="99"/>
      <point x="544" y="100"/>
      <point x="525" y="100" type="curve" smooth="yes"/>
      <point x="492" y="100" type="line"/>
      <point x="362" y="241" type="line"/>
      <point x="501" y="337" type="line"/>
      <point x="528" y="337" type="line" smooth="yes"/>
      <point x="558" y="337"/>
      <point x="568" y="340"/>
      <point x="583" y="352" type="curve" smooth="yes"/>
      <point x="597" y="364"/>
      <point x="606" y="381"/>
      <point x="606" y="398" type="curve" smooth="yes"/>
      <point x="606" y="426"/>
      <point x="590" y="437"/>
      <point x="549" y="437" type="curve" smooth="yes"/>
      <point x="437" y="437" type="line" smooth="yes"/>
      <point x="407" y="437"/>
      <point x="396" y="434"/>
      <point x="382" y="422" type="curve" smooth="yes"/>
      <point x="367" y="410"/>
      <point x="359" y="393"/>
      <point x="359" y="376" type="curve" smooth="yes"/>
      <point x="359" y="366"/>
      <point x="361" y="361"/>
      <point x="367" y="350" type="curve"/>
      <point x="275" y="287" type="line"/>
      <point x="347" y="624" type="line"/>
      <point x="231" y="624" type="line" smooth="yes"/>
      <point x="201" y="624"/>
      <point x="190" y="621"/>
      <point x="176" y="610" type="curve" smooth="yes"/>
      <point x="162" y="598"/>
      <point x="153" y="580"/>
      <point x="153" y="563" type="curve" smooth="yes"/>
      <point x="153" y="547"/>
      <point x="162" y="532"/>
      <point x="175" y="528" type="curve"/>
      <point x="183" y="525"/>
      <point x="192" y="524"/>
      <point x="210" y="524" type="curve" smooth="yes"/>
      <point x="226" y="524" type="line"/>
      <point x="136" y="100" type="line"/>
      <point x="120" y="100" type="line" smooth="yes"/>
      <point x="89" y="100"/>
      <point x="79" y="97"/>
      <point x="65" y="85" type="curve" smooth="yes"/>
      <point x="51" y="73"/>
      <point x="42" y="56"/>
      <point x="42" y="40" type="curve" smooth="yes"/>
      <point x="42" y="11"/>
      <point x="58" y="0"/>
      <point x="98" y="0" type="curve" smooth="yes"/>
      <point x="215" y="0" type="line"/>
    </contour>
  </outline>
</glyph>
<glyph name="l" format="1">
  <advance width="600"/>
  <unicode hex="006C"/>
  <outline>
    <contour>
      <point x="483" y="624" type="line"/>
      <point x="305" y="624" type="line" smooth="yes"/>
      <point x="274" y="624"/>
      <point x="264" y="621"/>
      <point x="250" y="610" type="curve" smooth="yes"/>
      <point x="235" y="598"/>
      <point x="226" y="580"/>
      <point x="226" y="564" type="curve" smooth="yes"/>
      <point x="226" y="548"/>
      <point x="236" y="532"/>
      <point x="249" y="528" type="curve"/>
      <point x="256" y="525"/>
      <point x="267" y="524"/>
      <point x="283" y="524" type="curve" smooth="yes"/>
      <point x="362" y="524" type="line"/>
      <point x="272" y="100" type="line"/>
      <point x="150" y="100" type="line" smooth="yes"/>
      <point x="118" y="100"/>
      <point x="110" y="98"/>
      <point x="95" y="85" type="curve" smooth="yes"/>
      <point x="81" y="73"/>
      <point x="72" y="56"/>
      <point x="72" y="40" type="curve" smooth="yes"/>
      <point x="72" y="11"/>
      <point x="88" y="0"/>
      <point x="129" y="0" type="curve" smooth="yes"/>
      <point x="472" y="0" type="line" smooth="yes"/>
      <point x="500" y="0"/>
      <point x="513" y="4"/>
      <point x="527" y="15" type="curve" smooth="yes"/>
      <point x="541" y="27"/>
      <point x="550" y="44"/>
      <point x="550" y="60" type="curve" smooth="yes"/>
      <point x="550" y="76"/>
      <point x="541" y="92"/>
      <point x="528" y="96" type="curve"/>
      <point x="520" y="99"/>
      <point x="513" y="100"/>
      <point x="493" y="100" type="curve" smooth="yes"/>
      <point x="372" y="100" type="line"/>
    </contour>
  </outline>
</glyph>
<glyph name="m" format="1">
  <advance width="600"/>
  <unicode hex="006D"/>
  <outline>
    <contour>
      <point x="234" y="437" type="line"/>
      <point x="141" y="437" type="line" smooth="yes"/>
      <point x="110" y="437"/>
      <point x="100" y="434"/>
      <point x="86" y="422" type="curve" smooth="yes"/>
      <point x="71" y="410"/>
      <point x="62" y="393"/>
      <point x="62" y="377" type="curve" smooth="yes"/>
      <point x="62" y="350"/>
      <point x="79" y="337"/>
      <point x="113" y="337" type="curve"/>
      <point x="63" y="100" type="line"/>
      <point x="21" y="100"/>
      <point x="-9" y="75"/>
      <point x="-9" y="40" type="curve" smooth="yes"/>
      <point x="-9" y="11"/>
      <point x="7" y="0"/>
      <point x="48" y="0" type="curve" smooth="yes"/>
      <point x="136" y="0" type="line" smooth="yes"/>
      <point x="164" y="0"/>
      <point x="177" y="3"/>
      <point x="191" y="15" type="curve" smooth="yes"/>
      <point x="205" y="27"/>
      <point x="214" y="44"/>
      <point x="214" y="60" type="curve" smooth="yes"/>
      <point x="214" y="87"/>
      <point x="197" y="100"/>
      <point x="163" y="100" type="curve"/>
      <point x="206" y="305" type="line"/>
      <point x="243" y="339"/>
      <point x="265" y="350"/>
      <point x="293" y="350" type="curve" smooth="yes"/>
      <point x="311" y="350"/>
      <point x="321" y="343"/>
      <point x="321" y="329" type="curve" smooth="yes"/>
      <point x="321" y="326"/>
      <point x="320" y="318"/>
      <point x="318" y="311" type="curve"/>
      <point x="252" y="0" type="line"/>
      <point x="346" y="0" type="line" smooth="yes"/>
      <point x="374" y="0"/>
      <point x="387" y="3"/>
      <point x="401" y="15" type="curve" smooth="yes"/>
      <point x="415" y="27"/>
      <point x="424" y="44"/>
      <point x="424" y="60" type="curve" smooth="yes"/>
      <point x="424" y="87"/>
      <point x="407" y="100"/>
      <point x="374" y="100" type="curve"/>
      <point x="417" y="305" type="line"/>
      <point x="459" y="341"/>
      <point x="476" y="350"/>
      <point x="503" y="350" type="curve" smooth="yes"/>
      <point x="521" y="350"/>
      <point x="530" y="343"/>
      <point x="531" y="330" type="curve"/>
      <point x="531" y="324"/>
      <point x="531" y="318"/>
      <point x="529" y="311" type="curve"/>
      <point x="463" y="0" type="line"/>
      <point x="557" y="0" type="line" smooth="yes"/>
      <point x="585" y="0"/>
      <point x="598" y="3"/>
      <point x="612" y="15" type="curve" smooth="yes"/>
      <point x="626" y="27"/>
      <point x="635" y="44"/>
      <point x="635" y="60" type="curve" smooth="yes"/>
      <point x="635" y="87"/>
      <point x="618" y="100"/>
      <point x="584" y="100" type="curve"/>
      <point x="631" y="319" type="line" smooth="yes"/>
      <point x="633" y="330"/>
      <point x="634" y="337"/>
      <point x="634" y="350" type="curve" smooth="yes"/>
      <point x="634" y="409"/>
      <point x="590" y="450"/>
      <point x="527" y="450" type="curve" smooth="yes"/>
      <point x="487" y="450"/>
      <point x="452" y="435"/>
      <point x="413" y="401" type="curve"/>
      <point x="391" y="434"/>
      <point x="361" y="450"/>
      <point x="322" y="450" type="curve" smooth="yes"/>
      <point x="292" y="450"/>
      <point x="270" y="441"/>
      <point x="229" y="413" type="curve"/>
    </contour>
  </outline>
</glyph>
<glyph name="n" format="1">
  <advance width="600"/>
  <unicode hex="006E"/>
  <outline>
    <contour>
      <point x="288" y="437" type="line"/>
      <point x="194" y="437" type="line" smooth="yes"/>
      <point x="163" y="437"/>
      <point x="153" y="434"/>
      <point x="138" y="422" type="curve" smooth="yes"/>
      <point x="124" y="411"/>
      <point x="115" y="393"/>
      <point x="115" y="377" type="curve" smooth="yes"/>
      <point x="115" y="350"/>
      <point x="132" y="337"/>
      <point x="167" y="337" type="curve"/>
      <point x="117" y="100" type="line"/>
      <point x="111" y="100" type="line" smooth="yes"/>
      <point x="80" y="100"/>
      <point x="70" y="97"/>
      <point x="56" y="85" type="curve" smooth="yes"/>
      <point x="42" y="73"/>
      <point x="33" y="56"/>
      <point x="33" y="40" type="curve" smooth="yes"/>
      <point x="33" y="11"/>
      <point x="49" y="0"/>
      <point x="89" y="0" type="curve" smooth="yes"/>
      <point x="201" y="0" type="line" smooth="yes"/>
      <point x="230" y="0"/>
      <point x="242" y="3"/>
      <point x="256" y="15" type="curve" smooth="yes"/>
      <point x="270" y="27"/>
      <point x="279" y="44"/>
      <point x="279" y="60" type="curve" smooth="yes"/>
      <point x="279" y="76"/>
      <point x="270" y="91"/>
      <point x="257" y="96" type="curve" smooth="yes"/>
      <point x="249" y="99"/>
      <point x="243" y="100"/>
      <point x="223" y="100" type="curve" smooth="yes"/>
      <point x="217" y="100" type="line"/>
      <point x="255" y="282" type="line"/>
      <point x="313" y="333"/>
      <point x="348" y="350"/>
      <point x="394" y="350" type="curve" smooth="yes"/>
      <point x="444" y="350"/>
      <point x="472" y="333"/>
      <point x="472" y="301" type="curve" smooth="yes"/>
      <point x="472" y="294"/>
      <point x="471" y="287"/>
      <point x="469" y="278" type="curve" smooth="yes"/>
      <point x="432" y="100" type="line"/>
      <point x="407" y="100"/>
      <point x="396" y="97"/>
      <point x="382" y="85" type="curve" smooth="yes"/>
      <point x="368" y="73"/>
      <point x="359" y="56"/>
      <point x="359" y="40" type="curve" smooth="yes"/>
      <point x="359" y="11"/>
      <point x="375" y="0"/>
      <point x="416" y="0" type="curve" smooth="yes"/>
      <point x="505" y="0" type="line" smooth="yes"/>
      <point x="533" y="0"/>
      <point x="546" y="3"/>
      <point x="560" y="15" type="curve" smooth="yes"/>
      <point x="574" y="27"/>
      <point x="583" y="44"/>
      <point x="583" y="60" type="curve" smooth="yes"/>
      <point x="583" y="87"/>
      <point x="566" y="100"/>
      <point x="531" y="100" type="curve"/>
      <point x="570" y="282" type="line" smooth="yes"/>
      <point x="573" y="298"/>
      <point x="575" y="312"/>
      <point x="575" y="328" type="curve" smooth="yes"/>
      <point x="575" y="401"/>
      <point x="516" y="450"/>
      <point x="428" y="450" type="curve" smooth="yes"/>
      <point x="373" y="450"/>
      <point x="336" y="435"/>
      <point x="278" y="389" type="curve"/>
    </contour>
  </outline>
</glyph>
<glyph name="p" format="1">
  <advance width="600"/>
  <unicode hex="0070"/>
  <outline>
    <contour>
      <point x="188" y="66" type="line"/>
      <point x="231" y="27"/>
      <point x="272" y="10"/>
      <point x="329" y="10" type="curve" smooth="yes"/>
      <point x="490" y="10"/>
      <point x="623" y="127"/>
      <point x="623" y="269" type="curve" smooth="yes"/>
      <point x="623" y="379"/>
      <point x="545" y="450"/>
      <point x="423" y="450" type="curve" smooth="yes"/>
      <point x="361" y="450"/>
      <point x="315" y="434"/>
      <point x="257" y="392" type="curve"/>
      <point x="267" y="437" type="line"/>
      <point x="151" y="437" type="line" smooth="yes"/>
      <point x="120" y="437"/>
      <point x="110" y="434"/>
      <point x="96" y="422" type="curve" smooth="yes"/>
      <point x="82" y="410"/>
      <point x="73" y="393"/>
      <point x="73" y="377" type="curve" smooth="yes"/>
      <point x="73" y="348"/>
      <point x="88" y="337"/>
      <point x="129" y="337" type="curve" smooth="yes"/>
      <point x="146" y="337" type="line"/>
      <point x="52" y="-105" type="line"/>
      <point x="36" y="-105" type="line" smooth="yes"/>
      <point x="5" y="-105"/>
      <point x="-5" y="-108"/>
      <point x="-19" y="-120" type="curve" smooth="yes"/>
      <point x="-33" y="-132"/>
      <point x="-42" y="-149"/>
      <point x="-42" y="-165" type="curve" smooth="yes"/>
      <point x="-42" y="-194"/>
      <point x="-26" y="-205"/>
      <point x="14" y="-205" type="curve" smooth="yes"/>
      <point x="188" y="-205" type="line" smooth="yes"/>
      <point x="218" y="-205"/>
      <point x="229" y="-202"/>
      <point x="243" y="-190" type="curve" smooth="yes"/>
      <point x="257" y="-178"/>
      <point x="266" y="-161"/>
      <point x="266" y="-144" type="curve" smooth="yes"/>
      <point x="266" y="-128"/>
      <point x="257" y="-113"/>
      <point x="244" y="-109" type="curve"/>
      <point x="236" y="-106"/>
      <point x="228" y="-105"/>
      <point x="210" y="-105" type="curve" smooth="yes"/>
      <point x="152" y="-105" type="line"/>
    </contour>
    <contour>
      <point x="398" y="350" type="curve" smooth="yes"/>
      <point x="473" y="350"/>
      <point x="522" y="312"/>
      <point x="522" y="252" type="curve" smooth="yes"/>
      <point x="522" y="211"/>
      <point x="494" y="166"/>
      <point x="453" y="139" type="curve" smooth="yes"/>
      <point x="423" y="120"/>
      <point x="387" y="110"/>
      <point x="346" y="110" type="curve" smooth="yes"/>
      <point x="304" y="110"/>
      <point x="273" y="120"/>
      <point x="251" y="139" type="curve" smooth="yes"/>
      <point x="232" y="157"/>
      <point x="220" y="186"/>
      <point x="221" y="211" type="curve" smooth="yes"/>
      <point x="225" y="290"/>
      <point x="301" y="350"/>
    </contour>
  </outline>
</glyph>
<glyph name="q" format="1">
  <advance width="600"/>
  <unicode hex="0071"/>
  <outline>
    <contour>
      <point x="408" y="-105" type="line"/>
      <point x="350" y="-105" type="line" smooth="yes"/>
      <point x="320" y="-105"/>
      <point x="309" y="-108"/>
      <point x="295" y="-120" type="curve" smooth="yes"/>
      <point x="281" y="-131"/>
      <point x="272" y="-150"/>
      <point x="272" y="-166" type="curve" smooth="yes"/>
      <point x="272" y="-181"/>
      <point x="282" y="-197"/>
      <point x="294" y="-201" type="curve"/>
      <point x="301" y="-204"/>
      <point x="312" y="-205"/>
      <point x="329" y="-205" type="curve" smooth="yes"/>
      <point x="503" y="-205" type="line" smooth="yes"/>
      <point x="532" y="-205"/>
      <point x="544" y="-202"/>
      <point x="558" y="-190" type="curve" smooth="yes"/>
      <point x="572" y="-178"/>
      <point x="581" y="-161"/>
      <point x="581" y="-145" type="curve" smooth="yes"/>
      <point x="581" y="-128"/>
      <point x="572" y="-114"/>
      <point x="559" y="-109" type="curve" smooth="yes"/>
      <point x="550" y="-106"/>
      <point x="544" y="-105"/>
      <point x="524" y="-105" type="curve" smooth="yes"/>
      <point x="508" y="-105" type="line"/>
      <point x="602" y="337" type="line"/>
      <point x="618" y="337" type="line" smooth="yes"/>
      <point x="648" y="337"/>
      <point x="659" y="340"/>
      <point x="673" y="352" type="curve" smooth="yes"/>
      <point x="687" y="364"/>
      <point x="696" y="381"/>
      <point x="696" y="397" type="curve" smooth="yes"/>
      <point x="696" y="414"/>
      <point x="687" y="428"/>
      <point x="674" y="433" type="curve" smooth="yes"/>
      <point x="666" y="436"/>
      <point x="660" y="437"/>
      <point x="640" y="437" type="curve" smooth="yes"/>
      <point x="523" y="437" type="line"/>
      <point x="514" y="392" type="line"/>
      <point x="474" y="434"/>
      <point x="435" y="450"/>
      <point x="373" y="450" type="curve" smooth="yes"/>
      <point x="300" y="450"/>
      <point x="231" y="426"/>
      <point x="177" y="381" type="curve" smooth="yes"/>
      <point x="114" y="328"/>
      <point x="75" y="250"/>
      <point x="75" y="177" type="curve" smooth="yes"/>
      <point x="75" y="78"/>
      <point x="158" y="10"/>
      <point x="277" y="10" type="curve" smooth="yes"/>
      <point x="336" y="10"/>
      <point x="384" y="26"/>
      <point x="444" y="66" type="curve"/>
    </contour>
    <contour>
      <point x="356" y="350" type="curve" smooth="yes"/>
      <point x="435" y="350"/>
      <point x="482" y="313"/>
      <point x="482" y="249" type="curve" smooth="yes"/>
      <point x="482" y="211"/>
      <point x="453" y="165"/>
      <point x="413" y="139" type="curve" smooth="yes"/>
      <point x="383" y="120"/>
      <point x="347" y="110"/>
      <point x="305" y="110" type="curve" smooth="yes"/>
      <point x="228" y="110"/>
      <point x="179" y="148"/>
      <point x="179" y="208" type="curve" smooth="yes"/>
      <point x="179" y="249"/>
      <point x="207" y="294"/>
      <point x="248" y="321" type="curve" smooth="yes"/>
      <point x="279" y="340"/>
      <point x="314" y="350"/>
    </contour>
  </outline>
</glyph>
<glyph name="s" format="1">
  <advance width="600"/>
  <unicode hex="0073"/>
  <outline>
    <contour>
      <point x="475" y="312" type="line" smooth="yes"/>
      <point x="483" y="290"/>
      <point x="495" y="281"/>
      <point x="516" y="281" type="curve" smooth="yes"/>
      <point x="531" y="281"/>
      <point x="548" y="289"/>
      <point x="561" y="301" type="curve" smooth="yes"/>
      <point x="571" y="311"/>
      <point x="574" y="320"/>
      <point x="580" y="347" type="curve" smooth="yes"/>
      <point x="588" y="384" type="line" smooth="yes"/>
      <point x="591" y="398"/>
      <point x="592" y="407"/>
      <point x="592" y="414" type="curve" smooth="yes"/>
      <point x="592" y="436"/>
      <point x="577" y="450"/>
      <point x="555" y="450" type="curve" smooth="yes"/>
      <point x="539" y="450"/>
      <point x="530" y="444"/>
      <point x="517" y="424" type="curve"/>
      <point x="482" y="442"/>
      <point x="442" y="450"/>
      <point x="394" y="450" type="curve" smooth="yes"/>
      <point x="260" y="450"/>
      <point x="156" y="379"/>
      <point x="156" y="289" type="curve" smooth="yes"/>
      <point x="156" y="224"/>
      <point x="206" y="192"/>
      <point x="328" y="179" type="curve" smooth="yes"/>
      <point x="381" y="173"/>
      <point x="402" y="169"/>
      <point x="417" y="162" type="curve" smooth="yes"/>
      <point x="434" y="155"/>
      <point x="444" y="143"/>
      <point x="444" y="131" type="curve" smooth="yes"/>
      <point x="444" y="106"/>
      <point x="386" y="84"/>
      <point x="318" y="84" type="curve" smooth="yes"/>
      <point x="264" y="84"/>
      <point x="224" y="97"/>
      <point x="201" y="123" type="curve"/>
      <point x="198" y="153"/>
      <point x="185" y="167"/>
      <point x="159" y="167" type="curve" smooth="yes"/>
      <point x="124" y="167"/>
      <point x="104" y="146"/>
      <point x="94" y="100" type="curve" smooth="yes"/>
      <point x="87" y="67" type="line" smooth="yes"/>
      <point x="84" y="52"/>
      <point x="83" y="45"/>
      <point x="83" y="39" type="curve" smooth="yes"/>
      <point x="83" y="16"/>
      <point x="100" y="1"/>
      <point x="124" y="1" type="curve" smooth="yes"/>
      <point x="137" y="1"/>
      <point x="145" y="4"/>
      <point x="159" y="13" type="curve"/>
      <point x="195" y="-6"/>
      <point x="243" y="-16"/>
      <point x="301" y="-16" type="curve" smooth="yes"/>
      <point x="445" y="-16"/>
      <point x="556" y="57"/>
      <point x="556" y="150" type="curve" smooth="yes"/>
      <point x="556" y="187"/>
      <point x="538" y="219"/>
      <point x="507" y="239" type="curve" smooth="yes"/>
      <point x="481" y="255"/>
      <point x="444" y="266"/>
      <point x="371" y="276" type="curve" smooth="yes"/>
      <point x="309" y="285"/>
      <point x="303" y="286"/>
      <point x="291" y="291" type="curve" smooth="yes"/>
      <point x="278" y="296"/>
      <point x="269" y="305"/>
      <point x="269" y="312" type="curve" smooth="yes"/>
      <point x="269" y="331"/>
      <point x="321" y="350"/>
      <point x="376" y="350" type="curve" smooth="yes"/>
      <point x="418" y="350"/>
      <point x="449" y="341"/>
      <point x="472" y="321" type="curve"/>
    </contour>
  </outline>
</glyph>
<glyph name="v" format="1">
  <advance width="600"/>
  <unicode hex="0076"/>
  <outline>
    <contour>
      <point x="327" y="122" type="line"/>
      <point x="264" y="337" type="line"/>
      <point x="270" y="337" type="line" smooth="yes"/>
      <point x="299" y="337"/>
      <point x="310" y="340"/>
      <point x="324" y="352" type="curve" smooth="yes"/>
      <point x="338" y="364"/>
      <point x="347" y="381"/>
      <point x="347" y="397" type="curve" smooth="yes"/>
      <point x="347" y="413"/>
      <point x="338" y="429"/>
      <point x="325" y="433" type="curve"/>
      <point x="317" y="436"/>
      <point x="309" y="437"/>
      <point x="291" y="437" type="curve" smooth="yes"/>
      <point x="159" y="437" type="line" smooth="yes"/>
      <point x="129" y="437"/>
      <point x="118" y="434"/>
      <point x="104" y="422" type="curve" smooth="yes"/>
      <point x="90" y="410"/>
      <point x="81" y="393"/>
      <point x="81" y="377" type="curve" smooth="yes"/>
      <point x="81" y="348"/>
      <point x="97" y="337"/>
      <point x="138" y="337" type="curve" smooth="yes"/>
      <point x="151" y="337" type="line"/>
      <point x="247" y="0" type="line"/>
      <point x="350" y="0" type="line"/>
      <point x="589" y="337" type="line"/>
      <point x="605" y="337" type="line" smooth="yes"/>
      <point x="635" y="337"/>
      <point x="646" y="340"/>
      <point x="660" y="352" type="curve" smooth="yes"/>
      <point x="674" y="364"/>
      <point x="683" y="381"/>
      <point x="683" y="398" type="curve" smooth="yes"/>
      <point x="683" y="414"/>
      <point x="674" y="429"/>
      <point x="661" y="433" type="curve"/>
      <point x="653" y="436"/>
      <point x="645" y="437"/>
      <point x="626" y="437" type="curve" smooth="yes"/>
      <point x="492" y="437" type="line" smooth="yes"/>
      <point x="461" y="437"/>
      <point x="451" y="434"/>
      <point x="437" y="422" type="curve" smooth="yes"/>
      <point x="423" y="410"/>
      <point x="414" y="393"/>
      <point x="414" y="377" type="curve" smooth="yes"/>
      <point x="414" y="348"/>
      <point x="430" y="337"/>
      <point x="471" y="337" type="curve" smooth="yes"/>
      <point x="481" y="337" type="line"/>
    </contour>
  </outline>
</glyph>
<glyph name="w" format="1">
  <advance width="600"/>
  <unicode hex="0077"/>
  <outline>
    <contour>
      <point x="340" y="181" type="line"/>
      <point x="373" y="0" type="line"/>
      <point x="465" y="0" type="line"/>
      <point x="620" y="338" type="line"/>
      <point x="643" y="340"/>
      <point x="654" y="344"/>
      <point x="667" y="358" type="curve" smooth="yes"/>
      <point x="678" y="369"/>
      <point x="684" y="384"/>
      <point x="684" y="397" type="curve" smooth="yes"/>
      <point x="684" y="414"/>
      <point x="675" y="429"/>
      <point x="662" y="433" type="curve"/>
      <point x="654" y="436"/>
      <point x="647" y="437"/>
      <point x="627" y="437" type="curve" smooth="yes"/>
      <point x="535" y="437" type="line" smooth="yes"/>
      <point x="504" y="437"/>
      <point x="494" y="434"/>
      <point x="480" y="422" type="curve" smooth="yes"/>
      <point x="466" y="411"/>
      <point x="457" y="393"/>
      <point x="457" y="377" type="curve" smooth="yes"/>
      <point x="457" y="361"/>
      <point x="466" y="346"/>
      <point x="479" y="342" type="curve"/>
      <point x="487" y="339"/>
      <point x="495" y="338"/>
      <point x="514" y="338" type="curve" smooth="yes"/>
      <point x="521" y="338" type="line"/>
      <point x="448" y="185" type="line"/>
      <point x="421" y="343" type="line"/>
      <point x="332" y="343" type="line"/>
      <point x="239" y="185" type="line"/>
      <point x="233" y="338" type="line"/>
      <point x="263" y="338"/>
      <point x="272" y="341"/>
      <point x="286" y="352" type="curve"/>
      <point x="299" y="364"/>
      <point x="308" y="382"/>
      <point x="308" y="398" type="curve" smooth="yes"/>
      <point x="308" y="414"/>
      <point x="299" y="429"/>
      <point x="286" y="433" type="curve"/>
      <point x="278" y="436"/>
      <point x="272" y="437"/>
      <point x="252" y="437" type="curve" smooth="yes"/>
      <point x="160" y="437" type="line" smooth="yes"/>
      <point x="129" y="437"/>
      <point x="120" y="435"/>
      <point x="105" y="422" type="curve" smooth="yes"/>
      <point x="91" y="411"/>
      <point x="82" y="393"/>
      <point x="82" y="377" type="curve" smooth="yes"/>
      <point x="82" y="352"/>
      <point x="97" y="339"/>
      <point x="127" y="338" type="curve"/>
      <point x="140" y="0" type="line"/>
      <point x="234" y="0" type="line"/>
    </contour>
  </outline>
</glyph>
<glyph name="x" format="1">
  <advance width="600"/>
  <unicode hex="0078"/>
  <outline>
    <contour>
      <point x="421" y="227" type="line"/>
      <point x="576" y="337" type="line"/>
      <point x="615" y="341"/>
      <point x="641" y="365"/>
      <point x="641" y="398" type="curve" smooth="yes"/>
      <point x="641" y="414"/>
      <point x="632" y="429"/>
      <point x="619" y="433" type="curve" smooth="yes"/>
      <point x="610" y="436"/>
      <point x="604" y="437"/>
      <point x="584" y="437" type="curve" smooth="yes"/>
      <point x="492" y="437" type="line" smooth="yes"/>
      <point x="462" y="437"/>
      <point x="452" y="434"/>
      <point x="437" y="422" type="curve" smooth="yes"/>
      <point x="423" y="410"/>
      <point x="414" y="392"/>
      <point x="414" y="376" type="curve" smooth="yes"/>
      <point x="414" y="363"/>
      <point x="419" y="354"/>
      <point x="432" y="343" type="curve"/>
      <point x="361" y="293" type="line"/>
      <point x="310" y="342" type="line"/>
      <point x="333" y="355"/>
      <point x="347" y="377"/>
      <point x="347" y="397" type="curve" smooth="yes"/>
      <point x="347" y="414"/>
      <point x="338" y="428"/>
      <point x="325" y="433" type="curve" smooth="yes"/>
      <point x="317" y="436"/>
      <point x="311" y="437"/>
      <point x="291" y="437" type="curve" smooth="yes"/>
      <point x="198" y="437" type="line" smooth="yes"/>
      <point x="168" y="437"/>
      <point x="158" y="434"/>
      <point x="143" y="422" type="curve" smooth="yes"/>
      <point x="129" y="411"/>
      <point x="120" y="393"/>
      <point x="120" y="377" type="curve" smooth="yes"/>
      <point x="120" y="353"/>
      <point x="134" y="340"/>
      <point x="163" y="337" type="curve"/>
      <point x="268" y="228" type="line"/>
      <point x="96" y="100" type="line"/>
      <point x="72" y="98"/>
      <point x="60" y="94"/>
      <point x="47" y="79" type="curve"/>
      <point x="36" y="68"/>
      <point x="30" y="53"/>
      <point x="30" y="40" type="curve" smooth="yes"/>
      <point x="30" y="11"/>
      <point x="46" y="0"/>
      <point x="87" y="0" type="curve" smooth="yes"/>
      <point x="197" y="0" type="line" smooth="yes"/>
      <point x="226" y="0"/>
      <point x="239" y="3"/>
      <point x="253" y="15" type="curve" smooth="yes"/>
      <point x="267" y="27"/>
      <point x="276" y="45"/>
      <point x="276" y="62" type="curve" smooth="yes"/>
      <point x="276" y="81"/>
      <point x="269" y="89"/>
      <point x="246" y="100" type="curve"/>
      <point x="333" y="161" type="line"/>
      <point x="395" y="100" type="line"/>
      <point x="364" y="92"/>
      <point x="343" y="67"/>
      <point x="343" y="40" type="curve" smooth="yes"/>
      <point x="343" y="11"/>
      <point x="359" y="0"/>
      <point x="400" y="0" type="curve" smooth="yes"/>
      <point x="512" y="0" type="line" smooth="yes"/>
      <point x="541" y="0"/>
      <point x="553" y="3"/>
      <point x="567" y="15" type="curve" smooth="yes"/>
      <point x="581" y="27"/>
      <point x="590" y="44"/>
      <point x="590" y="60" type="curve" smooth="yes"/>
      <point x="590" y="86"/>
      <point x="575" y="99"/>
      <point x="545" y="100" type="curve"/>
    </contour>
  </outline>
</glyph>
<glyph name="y" format="1">
  <advance width="600"/>
  <unicode hex="0079"/>
  <outline>
    <contour>
      <point x="243" y="3" type="line"/>
      <point x="165" y="-105" type="line"/>
      <point x="65" y="-105" type="line" smooth="yes"/>
      <point x="34" y="-105"/>
      <point x="25" y="-108"/>
      <point x="10" y="-120" type="curve" smooth="yes"/>
      <point x="-4" y="-132"/>
      <point x="-13" y="-149"/>
      <point x="-13" y="-165" type="curve" smooth="yes"/>
      <point x="-13" y="-194"/>
      <point x="3" y="-205"/>
      <point x="44" y="-205" type="curve" smooth="yes"/>
      <point x="258" y="-205" type="line" smooth="yes"/>
      <point x="287" y="-205"/>
      <point x="299" y="-202"/>
      <point x="313" y="-190" type="curve" smooth="yes"/>
      <point x="327" y="-178"/>
      <point x="336" y="-161"/>
      <point x="336" y="-144" type="curve" smooth="yes"/>
      <point x="336" y="-128"/>
      <point x="327" y="-113"/>
      <point x="314" y="-109" type="curve"/>
      <point x="306" y="-106"/>
      <point x="298" y="-105"/>
      <point x="279" y="-105" type="curve" smooth="yes"/>
      <point x="274" y="-105" type="line"/>
      <point x="599" y="337" type="line"/>
      <point x="636" y="341"/>
      <point x="662" y="365"/>
      <point x="662" y="397" type="curve" smooth="yes"/>
      <point x="662" y="414"/>
      <point x="653" y="429"/>
      <point x="640" y="433" type="curve"/>
      <point x="632" y="436"/>
      <point x="625" y="437"/>
      <point x="605" y="437" type="curve" smooth="yes"/>
      <point x="513" y="437" type="line" smooth="yes"/>
      <point x="482" y="437"/>
      <point x="472" y="434"/>
      <point x="458" y="422" type="curve" smooth="yes"/>
      <point x="444" y="411"/>
      <point x="435" y="393"/>
      <point x="435" y="377" type="curve" smooth="yes"/>
      <point x="435" y="351"/>
      <point x="452" y="337"/>
      <point x="484" y="337" type="curve" smooth="yes"/>
      <point x="489" y="337" type="line"/>
      <point x="323" y="114" type="line"/>
      <point x="255" y="337" type="line"/>
      <point x="297" y="338"/>
      <point x="326" y="362"/>
      <point x="326" y="398" type="curve" smooth="yes"/>
      <point x="326" y="414"/>
      <point x="317" y="429"/>
      <point x="304" y="433" type="curve"/>
      <point x="296" y="436"/>
      <point x="290" y="437"/>
      <point x="270" y="437" type="curve" smooth="yes"/>
      <point x="180" y="437" type="line" smooth="yes"/>
      <point x="149" y="437"/>
      <point x="140" y="434"/>
      <point x="125" y="422" type="curve" smooth="yes"/>
      <point x="111" y="411"/>
      <point x="102" y="393"/>
      <point x="102" y="377" type="curve" smooth="yes"/>
      <point x="102" y="353"/>
      <point x="115" y="341"/>
      <point x="142" y="337" type="curve"/>
    </contour>
  </outline>
</glyph>
<glyph name="braceleft" format="1">
  <advance width="600"/>
  <unicode hex="007B"/>
  <outline>
    <contour>
      <point x="451" y="485" type="line" smooth="yes"/>
      <point x="458" y="513"/>
      <point x="468" y="522"/>
      <point x="495" y="522" type="curve"/>
      <point x="529" y="525"/>
      <point x="556" y="552"/>
      <point x="556" y="583" type="curve" smooth="yes"/>
      <point x="556" y="608"/>
      <point x="539" y="623"/>
      <point x="511" y="623" type="curve" smooth="yes"/>
      <point x="440" y="623"/>
      <point x="368" y="563"/>
      <point x="353" y="492" type="curve" smooth="yes"/>
      <point x="318" y="328" type="line" smooth="yes"/>
      <point x="312" y="300"/>
      <point x="304" y="293"/>
      <point x="278" y="290" type="curve" smooth="yes"/>
      <point x="240" y="286"/>
      <point x="217" y="262"/>
      <point x="217" y="227" type="curve" smooth="yes"/>
      <point x="217" y="204"/>
      <point x="229" y="192"/>
      <point x="256" y="189" type="curve" smooth="yes"/>
      <point x="276" y="187"/>
      <point x="283" y="181"/>
      <point x="283" y="169" type="curve" smooth="yes"/>
      <point x="283" y="165"/>
      <point x="282" y="158"/>
      <point x="280" y="151" type="curve"/>
      <point x="244" y="-22" type="line" smooth="yes"/>
      <point x="242" y="-31"/>
      <point x="241" y="-39"/>
      <point x="241" y="-48" type="curve" smooth="yes"/>
      <point x="241" y="-108"/>
      <point x="286" y="-153"/>
      <point x="345" y="-153" type="curve" smooth="yes"/>
      <point x="383" y="-153"/>
      <point x="413" y="-126"/>
      <point x="413" y="-91" type="curve" smooth="yes"/>
      <point x="413" y="-69"/>
      <point x="398" y="-54"/>
      <point x="373" y="-52" type="curve" smooth="yes"/>
      <point x="349" y="-51"/>
      <point x="343" y="-46"/>
      <point x="343" y="-30" type="curve" smooth="yes"/>
      <point x="343" y="-27"/>
      <point x="344" y="-21"/>
      <point x="345" y="-15" type="curve" smooth="yes"/>
      <point x="378" y="142" type="line" smooth="yes"/>
      <point x="383" y="164"/>
      <point x="386" y="184"/>
      <point x="386" y="194" type="curve" smooth="yes"/>
      <point x="386" y="209"/>
      <point x="381" y="222"/>
      <point x="370" y="240" type="curve"/>
      <point x="398" y="266"/>
      <point x="408" y="284"/>
      <point x="418" y="328" type="curve" smooth="yes"/>
    </contour>
  </outline>
</glyph>
<glyph name="bar" format="1">
  <advance width="600"/>
  <unicode hex="007C"/>
  <outline>
    <contour>
      <point x="468" y="556" type="line" smooth="yes"/>
      <point x="471" y="570"/>
      <point x="472" y="578"/>
      <point x="472" y="584" type="curve" smooth="yes"/>
      <point x="472" y="606"/>
      <point x="455" y="622"/>
      <point x="432" y="622" type="curve" smooth="yes"/>
      <point x="416" y="622"/>
      <point x="399" y="614"/>
      <point x="387" y="601" type="curve" smooth="yes"/>
      <point x="378" y="592"/>
      <point x="373" y="581"/>
      <point x="368" y="556" type="curve" smooth="yes"/>
      <point x="231" y="-87" type="line" smooth="yes"/>
      <point x="228" y="-100"/>
      <point x="227" y="-109"/>
      <point x="227" y="-116" type="curve" smooth="yes"/>
      <point x="227" y="-137"/>
      <point x="244" y="-153"/>
      <point x="267" y="-153" type="curve" smooth="yes"/>
      <point x="283" y="-153"/>
      <point x="299" y="-145"/>
      <point x="312" y="-132" type="curve" smooth="yes"/>
      <point x="322" y="-122"/>
      <point x="326" y="-113"/>
      <point x="331" y="-87" type="curve" smooth="yes"/>
    </contour>
  </outline>
</glyph>
<glyph name="braceright" format="1">
  <advance width="600"/>
  <unicode hex="007D"/>
  <outline>
    <contour>
      <point x="249" y="-15" type="line" smooth="yes"/>
      <point x="242" y="-43"/>
      <point x="232" y="-52"/>
      <point x="205" y="-52" type="curve"/>
      <point x="171" y="-55"/>
      <point x="144" y="-82"/>
      <point x="144" y="-113" type="curve" smooth="yes"/>
      <point x="144" y="-138"/>
      <point x="161" y="-153"/>
      <point x="189" y="-153" type="curve" smooth="yes"/>
      <point x="260" y="-153"/>
      <point x="332" y="-93"/>
      <point x="347" y="-22" type="curve" smooth="yes"/>
      <point x="382" y="142" type="line" smooth="yes"/>
      <point x="388" y="169"/>
      <point x="396" y="177"/>
      <point x="422" y="180" type="curve" smooth="yes"/>
      <point x="460" y="184"/>
      <point x="483" y="208"/>
      <point x="483" y="243" type="curve" smooth="yes"/>
      <point x="483" y="266"/>
      <point x="471" y="278"/>
      <point x="444" y="281" type="curve" smooth="yes"/>
      <point x="424" y="283"/>
      <point x="417" y="289"/>
      <point x="417" y="301" type="curve" smooth="yes"/>
      <point x="417" y="305"/>
      <point x="418" y="312"/>
      <point x="420" y="319" type="curve"/>
      <point x="456" y="492" type="line" smooth="yes"/>
      <point x="458" y="501"/>
      <point x="459" y="509"/>
      <point x="459" y="518" type="curve" smooth="yes"/>
      <point x="459" y="578"/>
      <point x="414" y="623"/>
      <point x="355" y="623" type="curve" smooth="yes"/>
      <point x="317" y="623"/>
      <point x="287" y="596"/>
      <point x="287" y="562" type="curve" smooth="yes"/>
      <point x="287" y="539"/>
      <point x="302" y="524"/>
      <point x="327" y="522" type="curve" smooth="yes"/>
      <point x="351" y="521"/>
      <point x="357" y="516"/>
      <point x="357" y="500" type="curve" smooth="yes"/>
      <point x="357" y="497"/>
      <point x="356" y="491"/>
      <point x="355" y="485" type="curve" smooth="yes"/>
      <point x="322" y="328" type="line" smooth="yes"/>
      <point x="317" y="306"/>
      <point x="314" y="286"/>
      <point x="314" y="276" type="curve" smooth="yes"/>
      <point x="314" y="261"/>
      <point x="319" y="248"/>
      <point x="330" y="230" type="curve"/>
      <point x="302" y="204"/>
      <point x="292" y="186"/>
      <point x="282" y="142" type="curve" smooth="yes"/>
    </contour>
  </outline>
</glyph>
<glyph name="asciitilde" format="1">
  <advance width="600"/>
  <unicode hex="007E"/>
  <outline>
    <contour>
      <point x="565" y="364" type="curve" smooth="yes"/>
      <point x="546" y="364"/>
      <point x="534" y="357"/>
      <point x="508" y="330" type="curve" smooth="yes"/>
      <point x="477" y="297"/>
      <point x="460" y="284"/>
      <point x="449" y="284" type="curve" smooth="yes"/>
      <point x="441" y="284"/>
      <point x="430" y="292"/>
      <point x="416" y="307" type="curve" smooth="yes"/>
      <point x="361" y="370"/>
      <point x="337" y="385"/>
      <point x="295" y="385" type="curve" smooth="yes"/>
      <point x="253" y="385"/>
      <point x="218" y="367"/>
      <point x="169" y="322" type="curve" smooth="yes"/>
      <point x="128" y="284"/>
      <point x="114" y="264"/>
      <point x="114" y="240" type="curve" smooth="yes"/>
      <point x="114" y="219"/>
      <point x="133" y="201"/>
      <point x="156" y="201" type="curve" smooth="yes"/>
      <point x="174" y="201"/>
      <point x="183" y="207"/>
      <point x="216" y="239" type="curve" smooth="yes"/>
      <point x="250" y="272"/>
      <point x="262" y="281"/>
      <point x="271" y="281" type="curve" smooth="yes"/>
      <point x="279" y="281"/>
      <point x="291" y="272"/>
      <point x="308" y="254" type="curve" smooth="yes"/>
      <point x="356" y="200"/>
      <point x="390" y="179"/>
      <point x="428" y="179" type="curve" smooth="yes"/>
      <point x="474" y="179"/>
      <point x="506" y="197"/>
      <point x="571" y="262" type="curve" smooth="yes"/>
      <point x="596" y="288"/>
      <point x="606" y="305"/>
      <point x="606" y="324" type="curve" smooth="yes"/>
      <point x="606" y="347"/>
      <point x="588" y="364"/>
    </contour>
  </outline>
</glyph>
<glyph name="exclamdown" format="1">
  <advance width="600"/>
  <unicode hex="00A1"/>
  <outline>
    <contour>
      <point x="197" y="-114" type="line" smooth="yes"/>
      <point x="189" y="-142"/>
      <point x="186" y="-154"/>
      <point x="186" y="-167" type="curve" smooth="yes"/>
      <point x="186" y="-202"/>
      <point x="213" y="-227"/>
      <point x="252" y="-227" type="curve" smooth="yes"/>
      <point x="279" y="-227"/>
      <point x="307" y="-214"/>
      <point x="326" y="-192" type="curve" smooth="yes"/>
      <point x="344" y="-173"/>
      <point x="349" y="-158"/>
      <point x="354" y="-114" type="curve" smooth="yes"/>
      <point x="388" y="183" type="line"/>
      <point x="389" y="186"/>
      <point x="389" y="189"/>
      <point x="389" y="191" type="curve" smooth="yes"/>
      <point x="389" y="217"/>
      <point x="374" y="232"/>
      <point x="349" y="232" type="curve" smooth="yes"/>
      <point x="321" y="232"/>
      <point x="299" y="214"/>
      <point x="289" y="183" type="curve" smooth="yes"/>
    </contour>
    <contour>
      <point x="382" y="426" type="line" smooth="yes"/>
      <point x="339" y="426"/>
      <point x="300" y="387"/>
      <point x="300" y="346" type="curve" smooth="yes"/>
      <point x="300" y="316"/>
      <point x="322" y="294"/>
      <point x="353" y="294" type="curve" smooth="yes"/>
      <point x="371" y="294" type="line" smooth="yes"/>
      <point x="413" y="294"/>
      <point x="453" y="333"/>
      <point x="453" y="373" type="curve" smooth="yes"/>
      <point x="453" y="404"/>
      <point x="431" y="426"/>
      <point x="399" y="426" type="curve" smooth="yes"/>
    </contour>
  </outline>
</glyph>
<glyph name="cent" format="1">
  <advance width="600"/>
  <unicode hex="00A2"/>
  <outline>
    <contour>
      <point x="372" y="99" type="line"/>
      <point x="472" y="116"/>
      <point x="541" y="158"/>
      <point x="541" y="204" type="curve" smooth="yes"/>
      <point x="541" y="227"/>
      <point x="523" y="245"/>
      <point x="501" y="245" type="curve" smooth="yes"/>
      <point x="488" y="245"/>
      <point x="478" y="242"/>
      <point x="464" y="233" type="curve" smooth="yes"/>
      <point x="425" y="209"/>
      <point x="388" y="197"/>
      <point x="351" y="197" type="curve" smooth="yes"/>
      <point x="290" y="197"/>
      <point x="246" y="235"/>
      <point x="246" y="288" type="curve" smooth="yes"/>
      <point x="246" y="363"/>
      <point x="322" y="427"/>
      <point x="410" y="427" type="curve" smooth="yes"/>
      <point x="456" y="427"/>
      <point x="476" y="414"/>
      <point x="477" y="384" type="curve" smooth="yes"/>
      <point x="478" y="356"/>
      <point x="478" y="354"/>
      <point x="484" y="347" type="curve"/>
      <point x="490" y="339"/>
      <point x="504" y="333"/>
      <point x="516" y="333" type="curve" smooth="yes"/>
      <point x="531" y="333"/>
      <point x="549" y="341"/>
      <point x="561" y="354" type="curve" smooth="yes"/>
      <point x="571" y="364"/>
      <point x="574" y="373"/>
      <point x="580" y="399" type="curve" smooth="yes"/>
      <point x="589" y="441" type="line" smooth="yes"/>
      <point x="592" y="456"/>
      <point x="593" y="463"/>
      <point x="593" y="469" type="curve" smooth="yes"/>
      <point x="593" y="491"/>
      <point x="576" y="507"/>
      <point x="552" y="507" type="curve" smooth="yes"/>
      <point x="546" y="507"/>
      <point x="540" y="506"/>
      <point x="531" y="503" type="curve"/>
      <point x="514" y="515"/>
      <point x="493" y="523"/>
      <point x="463" y="527" type="curve"/>
      <point x="477" y="594" type="line" smooth="yes"/>
      <point x="482" y="614"/>
      <point x="482" y="616"/>
      <point x="482" y="623" type="curve" smooth="yes"/>
      <point x="482" y="645"/>
      <point x="465" y="661"/>
      <point x="442" y="661" type="curve" smooth="yes"/>
      <point x="426" y="661"/>
      <point x="410" y="654"/>
      <point x="397" y="640" type="curve"/>
      <point x="387" y="631"/>
      <point x="383" y="621"/>
      <point x="377" y="594" type="curve" smooth="yes"/>
      <point x="361" y="517" type="line"/>
      <point x="237" y="489"/>
      <point x="144" y="380"/>
      <point x="144" y="265" type="curve" smooth="yes"/>
      <point x="144" y="183"/>
      <point x="191" y="124"/>
      <point x="273" y="103" type="curve"/>
      <point x="255" y="22" type="line" smooth="yes"/>
      <point x="251" y="2"/>
      <point x="251" y="1"/>
      <point x="251" y="-7" type="curve" smooth="yes"/>
      <point x="251" y="-27"/>
      <point x="269" y="-44"/>
      <point x="291" y="-44" type="curve" smooth="yes"/>
      <point x="307" y="-44"/>
      <point x="324" y="-36"/>
      <point x="336" y="-23" type="curve" smooth="yes"/>
      <point x="346" y="-13"/>
      <point x="350" y="-5"/>
      <point x="356" y="22" type="curve" smooth="yes"/>
    </contour>
  </outline>
</glyph>
<glyph name="sterling" format="1">
  <advance width="600"/>
  <unicode hex="00A3"/>
  <outline>
    <contour>
      <point x="366" y="243" type="line" smooth="yes"/>
      <point x="396" y="243"/>
      <point x="406" y="246"/>
      <point x="421" y="258" type="curve" smooth="yes"/>
      <point x="435" y="270"/>
      <point x="444" y="287"/>
      <point x="444" y="303" type="curve" smooth="yes"/>
      <point x="444" y="320"/>
      <point x="435" y="334"/>
      <point x="422" y="339" type="curve" smooth="yes"/>
      <point x="413" y="342"/>
      <point x="407" y="343"/>
      <point x="387" y="343" type="curve" smooth="yes"/>
      <point x="319" y="343" type="line"/>
      <point x="318" y="355" type="line" smooth="yes"/>
      <point x="316" y="378"/>
      <point x="315" y="399"/>
      <point x="315" y="409" type="curve" smooth="yes"/>
      <point x="315" y="462"/>
      <point x="351" y="498"/>
      <point x="404" y="498" type="curve" smooth="yes"/>
      <point x="430" y="498"/>
      <point x="449" y="490"/>
      <point x="461" y="472" type="curve" smooth="yes"/>
      <point x="479" y="447"/>
      <point x="483" y="444"/>
      <point x="501" y="444" type="curve" smooth="yes"/>
      <point x="532" y="444"/>
      <point x="563" y="474"/>
      <point x="563" y="505" type="curve" smooth="yes"/>
      <point x="563" y="553"/>
      <point x="497" y="598"/>
      <point x="425" y="598" type="curve" smooth="yes"/>
      <point x="306" y="598"/>
      <point x="212" y="504"/>
      <point x="212" y="385" type="curve" smooth="yes"/>
      <point x="212" y="372"/>
      <point x="213" y="361"/>
      <point x="216" y="343" type="curve"/>
      <point x="172" y="343" type="line" smooth="yes"/>
      <point x="140" y="343"/>
      <point x="131" y="341"/>
      <point x="116" y="328" type="curve" smooth="yes"/>
      <point x="102" y="317"/>
      <point x="93" y="299"/>
      <point x="93" y="283" type="curve" smooth="yes"/>
      <point x="93" y="266"/>
      <point x="102" y="252"/>
      <point x="115" y="247" type="curve" smooth="yes"/>
      <point x="124" y="244"/>
      <point x="132" y="243"/>
      <point x="150" y="243" type="curve" smooth="yes"/>
      <point x="219" y="243" type="line"/>
      <point x="204" y="156"/>
      <point x="170" y="104"/>
      <point x="126" y="100" type="curve"/>
      <point x="84" y="92"/>
      <point x="64" y="72"/>
      <point x="64" y="40" type="curve" smooth="yes"/>
      <point x="64" y="11"/>
      <point x="80" y="0"/>
      <point x="121" y="0" type="curve" smooth="yes"/>
      <point x="442" y="0" type="line" smooth="yes"/>
      <point x="487" y="0"/>
      <point x="515" y="10"/>
      <point x="539" y="34" type="curve" smooth="yes"/>
      <point x="558" y="53"/>
      <point x="571" y="83"/>
      <point x="571" y="108" type="curve" smooth="yes"/>
      <point x="571" y="131"/>
      <point x="554" y="146"/>
      <point x="530" y="146" type="curve" smooth="yes"/>
      <point x="501" y="146"/>
      <point x="482" y="130"/>
      <point x="471" y="100" type="curve"/>
      <point x="267" y="100" type="line"/>
      <point x="297" y="148"/>
      <point x="309" y="180"/>
      <point x="320" y="243" type="curve"/>
    </contour>
  </outline>
</glyph>
<glyph name="currency" format="1">
  <advance width="600"/>
  <unicode hex="00A4"/>
  <outline>
    <contour>
      <point x="213" y="388" type="line"/>
      <point x="181" y="344"/>
      <point x="163" y="297"/>
      <point x="163" y="258" type="curve" smooth="yes"/>
      <point x="163" y="243"/>
      <point x="166" y="221"/>
      <point x="173" y="196" type="curve"/>
      <point x="133" y="162" type="line" smooth="yes"/>
      <point x="104" y="137"/>
      <point x="96" y="125"/>
      <point x="96" y="105" type="curve" smooth="yes"/>
      <point x="96" y="81"/>
      <point x="114" y="64"/>
      <point x="137" y="64" type="curve" smooth="yes"/>
      <point x="155" y="64"/>
      <point x="162" y="68"/>
      <point x="190" y="91" type="curve" smooth="yes"/>
      <point x="229" y="123" type="line"/>
      <point x="262" y="103"/>
      <point x="285" y="97"/>
      <point x="320" y="97" type="curve" smooth="yes"/>
      <point x="355" y="97"/>
      <point x="380" y="103"/>
      <point x="421" y="122" type="curve"/>
      <point x="448" y="90" type="line" smooth="yes"/>
      <point x="465" y="69"/>
      <point x="472" y="64"/>
      <point x="488" y="64" type="curve" smooth="yes"/>
      <point x="520" y="64"/>
      <point x="553" y="95"/>
      <point x="553" y="124" type="curve" smooth="yes"/>
      <point x="553" y="136"/>
      <point x="549" y="144"/>
      <point x="535" y="162" type="curve" smooth="yes"/>
      <point x="510" y="196" type="line"/>
      <point x="543" y="240"/>
      <point x="561" y="286"/>
      <point x="561" y="326" type="curve" smooth="yes"/>
      <point x="561" y="341"/>
      <point x="558" y="363"/>
      <point x="551" y="388" type="curve"/>
      <point x="589" y="420" type="line" smooth="yes"/>
      <point x="618" y="444"/>
      <point x="626" y="456"/>
      <point x="626" y="476" type="curve" smooth="yes"/>
      <point x="626" y="500"/>
      <point x="609" y="517"/>
      <point x="585" y="517" type="curve" smooth="yes"/>
      <point x="568" y="517"/>
      <point x="559" y="513"/>
      <point x="532" y="491" type="curve" smooth="yes"/>
      <point x="495" y="461" type="line"/>
      <point x="462" y="482"/>
      <point x="440" y="488"/>
      <point x="403" y="488" type="curve" smooth="yes"/>
      <point x="368" y="488"/>
      <point x="342" y="481"/>
      <point x="301" y="462" type="curve"/>
      <point x="275" y="493" type="line" smooth="yes"/>
      <point x="257" y="515"/>
      <point x="251" y="519"/>
      <point x="234" y="519" type="curve" smooth="yes"/>
      <point x="204" y="519"/>
      <point x="171" y="489"/>
      <point x="171" y="461" type="curve" smooth="yes"/>
      <point x="171" y="454"/>
      <point x="181" y="428"/>
      <point x="188" y="420" type="curve"/>
    </contour>
    <contour>
      <point x="382" y="388" type="curve" smooth="yes"/>
      <point x="427" y="388"/>
      <point x="459" y="357"/>
      <point x="459" y="313" type="curve" smooth="yes"/>
      <point x="459" y="254"/>
      <point x="401" y="197"/>
      <point x="341" y="197" type="curve" smooth="yes"/>
      <point x="298" y="197"/>
      <point x="266" y="230"/>
      <point x="266" y="273" type="curve" smooth="yes"/>
      <point x="266" y="332"/>
      <point x="322" y="388"/>
    </contour>
  </outline>
</glyph>
<glyph name="yen" format="1">
  <advance width="600"/>
  <unicode hex="00A5"/>
  <outline>
    <contour>
      <point x="375" y="348" type="line"/>
      <point x="310" y="481" type="line"/>
      <point x="338" y="487"/>
      <point x="360" y="513"/>
      <point x="360" y="541" type="curve" smooth="yes"/>
      <point x="360" y="556"/>
      <point x="351" y="571"/>
      <point x="338" y="576" type="curve"/>
      <point x="329" y="580"/>
      <point x="325" y="580"/>
      <point x="303" y="580" type="curve" smooth="yes"/>
      <point x="211" y="580" type="line" smooth="yes"/>
      <point x="179" y="580"/>
      <point x="171" y="578"/>
      <point x="156" y="565" type="curve" smooth="yes"/>
      <point x="142" y="554"/>
      <point x="133" y="536"/>
      <point x="133" y="520" type="curve" smooth="yes"/>
      <point x="133" y="494"/>
      <point x="150" y="480"/>
      <point x="181" y="480" type="curve" smooth="yes"/>
      <point x="189" y="480" type="line"/>
      <point x="285" y="281" type="line"/>
      <point x="213" y="281" type="line" smooth="yes"/>
      <point x="191" y="281"/>
      <point x="176" y="267"/>
      <point x="176" y="247" type="curve" smooth="yes"/>
      <point x="176" y="231"/>
      <point x="183" y="225"/>
      <point x="201" y="225" type="curve" smooth="yes"/>
      <point x="298" y="225" type="line"/>
      <point x="291" y="191" type="line"/>
      <point x="194" y="191" type="line" smooth="yes"/>
      <point x="171" y="191"/>
      <point x="156" y="177"/>
      <point x="156" y="157" type="curve" smooth="yes"/>
      <point x="156" y="141"/>
      <point x="163" y="135"/>
      <point x="182" y="135" type="curve" smooth="yes"/>
      <point x="279" y="135" type="line"/>
      <point x="272" y="100" type="line"/>
      <point x="225" y="100" type="line" smooth="yes"/>
      <point x="194" y="100"/>
      <point x="185" y="98"/>
      <point x="170" y="86" type="curve" smooth="yes"/>
      <point x="156" y="74"/>
      <point x="147" y="56"/>
      <point x="147" y="40" type="curve" smooth="yes"/>
      <point x="147" y="11"/>
      <point x="163" y="0"/>
      <point x="204" y="0" type="curve" smooth="yes"/>
      <point x="397" y="0" type="line" smooth="yes"/>
      <point x="425" y="0"/>
      <point x="438" y="4"/>
      <point x="452" y="15" type="curve" smooth="yes"/>
      <point x="466" y="27"/>
      <point x="475" y="44"/>
      <point x="475" y="61" type="curve" smooth="yes"/>
      <point x="475" y="77"/>
      <point x="466" y="91"/>
      <point x="453" y="96" type="curve"/>
      <point x="444" y="100"/>
      <point x="440" y="100"/>
      <point x="418" y="100" type="curve" smooth="yes"/>
      <point x="372" y="100" type="line"/>
      <point x="379" y="135" type="line"/>
      <point x="476" y="135" type="line" smooth="yes"/>
      <point x="499" y="135"/>
      <point x="514" y="149"/>
      <point x="514" y="170" type="curve" smooth="yes"/>
      <point x="514" y="185"/>
      <point x="507" y="191"/>
      <point x="488" y="191" type="curve" smooth="yes"/>
      <point x="391" y="191" type="line"/>
      <point x="398" y="225" type="line"/>
      <point x="495" y="225" type="line" smooth="yes"/>
      <point x="517" y="225"/>
      <point x="533" y="239"/>
      <point x="533" y="259" type="curve" smooth="yes"/>
      <point x="533" y="275"/>
      <point x="526" y="281"/>
      <point x="507" y="281" type="curve" smooth="yes"/>
      <point x="435" y="281" type="line"/>
      <point x="616" y="480" type="line"/>
      <point x="618" y="480" type="line" smooth="yes"/>
      <point x="644" y="480"/>
      <point x="656" y="483"/>
      <point x="670" y="495" type="curve" smooth="yes"/>
      <point x="684" y="507"/>
      <point x="693" y="524"/>
      <point x="693" y="540" type="curve" smooth="yes"/>
      <point x="693" y="557"/>
      <point x="684" y="572"/>
      <point x="671" y="576" type="curve"/>
      <point x="662" y="580"/>
      <point x="658" y="580"/>
      <point x="636" y="580" type="curve" smooth="yes"/>
      <point x="545" y="580" type="line" smooth="yes"/>
      <point x="514" y="580"/>
      <point x="505" y="578"/>
      <point x="490" y="565" type="curve" smooth="yes"/>
      <point x="476" y="553"/>
      <point x="467" y="536"/>
      <point x="467" y="520" type="curve" smooth="yes"/>
      <point x="467" y="500"/>
      <point x="477" y="487"/>
      <point x="498" y="481" type="curve"/>
    </contour>
  </outline>
</glyph>
<glyph name="section" format="1">
  <advance width="600"/>
  <unicode hex="00A7"/>
  <outline>
    <contour>
      <point x="536" y="493" type="line"/>
      <point x="528" y="456" type="line"/>
      <point x="526" y="449"/>
      <point x="525" y="437"/>
      <point x="525" y="432" type="curve" smooth="yes"/>
      <point x="525" y="415"/>
      <point x="541" y="401"/>
      <point x="560" y="401" type="curve" smooth="yes"/>
      <point x="591" y="401"/>
      <point x="608" y="418"/>
      <point x="616" y="456" type="curve" smooth="yes"/>
      <point x="643" y="583" type="line"/>
      <point x="418" y="583" type="line" smooth="yes"/>
      <point x="358" y="583"/>
      <point x="311" y="563"/>
      <point x="270" y="518" type="curve" smooth="yes"/>
      <point x="243" y="488"/>
      <point x="222" y="444"/>
      <point x="222" y="415" type="curve" smooth="yes"/>
      <point x="222" y="411"/>
      <point x="222" y="408"/>
      <point x="223" y="402" type="curve"/>
      <point x="144" y="382"/>
      <point x="93" y="325"/>
      <point x="93" y="259" type="curve" smooth="yes"/>
      <point x="93" y="215"/>
      <point x="123" y="178"/>
      <point x="198" y="130" type="curve" smooth="yes"/>
      <point x="291" y="69" type="line" smooth="yes"/>
      <point x="345" y="34"/>
      <point x="376" y="2"/>
      <point x="376" y="-21" type="curve" smooth="yes"/>
      <point x="376" y="-52"/>
      <point x="337" y="-82"/>
      <point x="297" y="-82" type="curve" smooth="yes"/>
      <point x="152" y="-82" type="line"/>
      <point x="160" y="-43" type="line" smooth="yes"/>
      <point x="164" y="-27"/>
      <point x="164" y="-26"/>
      <point x="164" y="-20" type="curve" smooth="yes"/>
      <point x="164" y="-2"/>
      <point x="149" y="12"/>
      <point x="128" y="12" type="curve" smooth="yes"/>
      <point x="98" y="12"/>
      <point x="80" y="-6"/>
      <point x="72" y="-43" type="curve" smooth="yes"/>
      <point x="45" y="-170" type="line"/>
      <point x="276" y="-170" type="line" smooth="yes"/>
      <point x="348" y="-170"/>
      <point x="406" y="-137"/>
      <point x="444" y="-73" type="curve" smooth="yes"/>
      <point x="457" y="-51"/>
      <point x="465" y="-23"/>
      <point x="465" y="3" type="curve" smooth="yes"/>
      <point x="465" y="4"/>
      <point x="465" y="7"/>
      <point x="464" y="10" type="curve"/>
      <point x="542" y="27"/>
      <point x="594" y="85"/>
      <point x="594" y="154" type="curve" smooth="yes"/>
      <point x="594" y="204"/>
      <point x="569" y="233"/>
      <point x="478" y="291" type="curve" smooth="yes"/>
      <point x="397" y="342" type="line" smooth="yes"/>
      <point x="340" y="379"/>
      <point x="310" y="410"/>
      <point x="310" y="433" type="curve" smooth="yes"/>
      <point x="310" y="464"/>
      <point x="350" y="493"/>
      <point x="392" y="493" type="curve" smooth="yes"/>
    </contour>
    <contour>
      <point x="261" y="326" type="line"/>
      <point x="291" y="297"/>
      <point x="300" y="290"/>
      <point x="329" y="271" type="curve" smooth="yes"/>
      <point x="417" y="214" type="line" smooth="yes"/>
      <point x="466" y="181"/>
      <point x="494" y="150"/>
      <point x="494" y="126" type="curve" smooth="yes"/>
      <point x="494" y="106"/>
      <point x="472" y="89"/>
      <point x="443" y="88" type="curve" smooth="yes"/>
      <point x="433" y="88" type="line"/>
      <point x="425" y="88" type="line"/>
      <point x="412" y="103"/>
      <point x="398" y="114"/>
      <point x="352" y="147" type="curve" smooth="yes"/>
      <point x="262" y="205" type="line" smooth="yes"/>
      <point x="213" y="237"/>
      <point x="193" y="260"/>
      <point x="193" y="284" type="curve" smooth="yes"/>
      <point x="193" y="307"/>
      <point x="217" y="325"/>
      <point x="247" y="326" type="curve" smooth="yes"/>
      <point x="258" y="326" type="line"/>
    </contour>
  </outline>
</glyph>
<glyph name="dieresis" format="1">
  <advance width="600"/>
  <unicode hex="00A8"/>
  <outline>
    <contour>
      <point x="335" y="654" type="curve" smooth="yes"/>
      <point x="298" y="654"/>
      <point x="261" y="618"/>
      <point x="261" y="582" type="curve" smooth="yes"/>
      <point x="261" y="555"/>
      <point x="282" y="534"/>
      <point x="309" y="534" type="curve" smooth="yes"/>
      <point x="348" y="534"/>
      <point x="384" y="569"/>
      <point x="384" y="606" type="curve" smooth="yes"/>
      <point x="384" y="634"/>
      <point x="364" y="654"/>
    </contour>
    <contour>
      <point x="543" y="654" type="curve" smooth="yes"/>
      <point x="506" y="654"/>
      <point x="469" y="618"/>
      <point x="469" y="582" type="curve" smooth="yes"/>
      <point x="469" y="555"/>
      <point x="490" y="534"/>
      <point x="517" y="534" type="curve" smooth="yes"/>
      <point x="556" y="534"/>
      <point x="592" y="569"/>
      <point x="592" y="606" type="curve" smooth="yes"/>
      <point x="592" y="634"/>
      <point x="572" y="654"/>
    </contour>
  </outline>
</glyph>
<glyph name="copyright" format="1">
  <advance width="600"/>
  <unicode hex="00A9"/>
  <outline>
    <contour>
      <point x="192" y="269" type="line" smooth="yes"/>
      <point x="190" y="258"/>
      <point x="189" y="250"/>
      <point x="189" y="238" type="curve" smooth="yes"/>
      <point x="189" y="166"/>
      <point x="245" y="118"/>
      <point x="327" y="118" type="curve" smooth="yes"/>
      <point x="404" y="118"/>
      <point x="481" y="159"/>
      <point x="481" y="200" type="curve" smooth="yes"/>
      <point x="481" y="217"/>
      <point x="469" y="229"/>
      <point x="452" y="229" type="curve" smooth="yes"/>
      <point x="443" y="229"/>
      <point x="433" y="225"/>
      <point x="425" y="218" type="curve" smooth="yes"/>
      <point x="397" y="194"/>
      <point x="383" y="189"/>
      <point x="344" y="189" type="curve" smooth="yes"/>
      <point x="293" y="189"/>
      <point x="264" y="211"/>
      <point x="262" y="252" type="curve" smooth="yes"/>
      <point x="262" y="258"/>
      <point x="262" y="264"/>
      <point x="263" y="270" type="curve"/>
      <point x="271" y="304" type="line" smooth="yes"/>
      <point x="282" y="357"/>
      <point x="326" y="395"/>
      <point x="377" y="395" type="curve" smooth="yes"/>
      <point x="409" y="395"/>
      <point x="437" y="380"/>
      <point x="437" y="363" type="curve" smooth="yes"/>
      <point x="437" y="334"/>
      <point x="444" y="324"/>
      <point x="465" y="324" type="curve" smooth="yes"/>
      <point x="488" y="324"/>
      <point x="503" y="340"/>
      <point x="509" y="368" type="curve" smooth="yes"/>
      <point x="521" y="422" type="line"/>
      <point x="522" y="428" type="line"/>
      <point x="523" y="432"/>
      <point x="524" y="437"/>
      <point x="524" y="441" type="curve" smooth="yes"/>
      <point x="524" y="455"/>
      <point x="513" y="466"/>
      <point x="497" y="466" type="curve" smooth="yes"/>
      <point x="483" y="466"/>
      <point x="472" y="460"/>
      <point x="465" y="447" type="curve"/>
      <point x="439" y="461"/>
      <point x="419" y="466"/>
      <point x="390" y="466" type="curve" smooth="yes"/>
      <point x="301" y="466"/>
      <point x="219" y="397"/>
      <point x="200" y="305" type="curve" smooth="yes"/>
    </contour>
    <contour>
      <point x="429" y="598" type="curve" smooth="yes"/>
      <point x="232" y="598"/>
      <point x="48" y="420"/>
      <point x="48" y="228" type="curve" smooth="yes"/>
      <point x="48" y="88"/>
      <point x="152" y="-15"/>
      <point x="293" y="-15" type="curve" smooth="yes"/>
      <point x="491" y="-15"/>
      <point x="675" y="164"/>
      <point x="675" y="355" type="curve" smooth="yes"/>
      <point x="675" y="495"/>
      <point x="571" y="598"/>
    </contour>
    <contour>
      <point x="412" y="525" type="curve" smooth="yes"/>
      <point x="521" y="525"/>
      <point x="600" y="447"/>
      <point x="600" y="340" type="curve" smooth="yes"/>
      <point x="600" y="194"/>
      <point x="460" y="58"/>
      <point x="310" y="58" type="curve" smooth="yes"/>
      <point x="202" y="58"/>
      <point x="123" y="136"/>
      <point x="123" y="243" type="curve" smooth="yes"/>
      <point x="123" y="389"/>
      <point x="263" y="525"/>
    </contour>
  </outline>
</glyph>
<glyph name="ordfeminine" format="1">
  <advance width="600"/>
  <unicode hex="00AA"/>
  <outline>
    <contour>
      <point x="415" y="284" type="line"/>
      <point x="500" y="284" type="line" smooth="yes"/>
      <point x="536" y="284"/>
      <point x="559" y="303"/>
      <point x="559" y="331" type="curve" smooth="yes"/>
      <point x="559" y="354"/>
      <point x="548" y="362"/>
      <point x="516" y="362" type="curve" smooth="yes"/>
      <point x="509" y="362" type="line"/>
      <point x="537" y="490" type="line" smooth="yes"/>
      <point x="539" y="499"/>
      <point x="539" y="504"/>
      <point x="539" y="515" type="curve" smooth="yes"/>
      <point x="539" y="565"/>
      <point x="494" y="595"/>
      <point x="420" y="595" type="curve" smooth="yes"/>
      <point x="381" y="595"/>
      <point x="315" y="583"/>
      <point x="292" y="572" type="curve" smooth="yes"/>
      <point x="276" y="565"/>
      <point x="266" y="549"/>
      <point x="266" y="532" type="curve" smooth="yes"/>
      <point x="266" y="514"/>
      <point x="279" y="501"/>
      <point x="296" y="501" type="curve" smooth="yes"/>
      <point x="303" y="501"/>
      <point x="313" y="503"/>
      <point x="326" y="506" type="curve" smooth="yes"/>
      <point x="357" y="513"/>
      <point x="384" y="517"/>
      <point x="406" y="517" type="curve" smooth="yes"/>
      <point x="443" y="517"/>
      <point x="458" y="511"/>
      <point x="459" y="496" type="curve"/>
      <point x="459" y="490" type="line"/>
      <point x="457" y="482" type="line"/>
      <point x="429" y="486"/>
      <point x="416" y="487"/>
      <point x="396" y="487" type="curve" smooth="yes"/>
      <point x="320" y="487"/>
      <point x="261" y="464"/>
      <point x="223" y="419" type="curve" smooth="yes"/>
      <point x="205" y="397"/>
      <point x="195" y="374"/>
      <point x="195" y="354" type="curve" smooth="yes"/>
      <point x="195" y="307"/>
      <point x="241" y="273"/>
      <point x="305" y="273" type="curve" smooth="yes"/>
      <point x="343" y="273"/>
      <point x="374" y="279"/>
      <point x="417" y="295" type="curve"/>
    </contour>
    <contour>
      <point x="436" y="383" type="line"/>
      <point x="404" y="365"/>
      <point x="359" y="352"/>
      <point x="326" y="352" type="curve" smooth="yes"/>
      <point x="305" y="352"/>
      <point x="288" y="360"/>
      <point x="288" y="370" type="curve" smooth="yes"/>
      <point x="288" y="394"/>
      <point x="332" y="417"/>
      <point x="377" y="417" type="curve" smooth="yes"/>
      <point x="396" y="417"/>
      <point x="410" y="416"/>
      <point x="442" y="410" type="curve"/>
    </contour>
    <contour>
      <point x="471" y="182" type="line" smooth="yes"/>
      <point x="494" y="182"/>
      <point x="502" y="184"/>
      <point x="513" y="193" type="curve"/>
      <point x="524" y="203"/>
      <point x="531" y="216"/>
      <point x="531" y="229" type="curve" smooth="yes"/>
      <point x="531" y="251"/>
      <point x="519" y="259"/>
      <point x="486" y="259" type="curve" smooth="yes"/>
      <point x="232" y="259" type="line" smooth="yes"/>
      <point x="184" y="259"/>
      <point x="170" y="246"/>
      <point x="170" y="204" type="curve" smooth="yes"/>
      <point x="170" y="186"/>
      <point x="179" y="182"/>
      <point x="215" y="182" type="curve" smooth="yes"/>
    </contour>
  </outline>
</glyph>
<glyph name="guillemotleft" format="1">
  <advance width="600"/>
  <unicode hex="00AB"/>
  <outline>
    <contour>
      <point x="222" y="218" type="line"/>
      <point x="403" y="358" type="line" smooth="yes"/>
      <point x="419" y="370"/>
      <point x="425" y="380"/>
      <point x="425" y="391" type="curve" smooth="yes"/>
      <point x="425" y="405"/>
      <point x="414" y="415"/>
      <point x="398" y="415" type="curve" smooth="yes"/>
      <point x="389" y="415"/>
      <point x="384" y="413"/>
      <point x="367" y="402" type="curve" smooth="yes"/>
      <point x="80" y="218" type="line"/>
      <point x="289" y="33" type="line" smooth="yes"/>
      <point x="301" y="22"/>
      <point x="305" y="20"/>
      <point x="314" y="20" type="curve" smooth="yes"/>
      <point x="334" y="20"/>
      <point x="354" y="38"/>
      <point x="354" y="55" type="curve" smooth="yes"/>
      <point x="354" y="60"/>
      <point x="350" y="70"/>
      <point x="343" y="77" type="curve"/>
    </contour>
    <contour>
      <point x="451" y="218" type="line"/>
      <point x="632" y="358" type="line" smooth="yes"/>
      <point x="648" y="370"/>
      <point x="654" y="380"/>
      <point x="654" y="391" type="curve" smooth="yes"/>
      <point x="654" y="405"/>
      <point x="643" y="415"/>
      <point x="627" y="415" type="curve" smooth="yes"/>
      <point x="618" y="415"/>
      <point x="613" y="413"/>
      <point x="596" y="402" type="curve" smooth="yes"/>
      <point x="309" y="218" type="line"/>
      <point x="518" y="33" type="line" smooth="yes"/>
      <point x="530" y="22"/>
      <point x="534" y="20"/>
      <point x="543" y="20" type="curve" smooth="yes"/>
      <point x="563" y="20"/>
      <point x="583" y="38"/>
      <point x="583" y="54" type="curve" smooth="yes"/>
      <point x="583" y="61"/>
      <point x="579" y="69"/>
      <point x="572" y="77" type="curve" smooth="yes"/>
    </contour>
  </outline>
</glyph>
<glyph name="logicalnot" format="1">
  <advance width="600"/>
  <unicode hex="00AC"/>
  <outline>
    <contour>
      <point x="560" y="445" type="line"/>
      <point x="203" y="445" type="line" smooth="yes"/>
      <point x="171" y="445"/>
      <point x="163" y="443"/>
      <point x="148" y="431" type="curve" smooth="yes"/>
      <point x="134" y="419"/>
      <point x="125" y="401"/>
      <point x="125" y="385" type="curve" smooth="yes"/>
      <point x="125" y="356"/>
      <point x="141" y="345"/>
      <point x="182" y="345" type="curve" smooth="yes"/>
      <point x="439" y="345" type="line"/>
      <point x="404" y="181" type="line"/>
      <point x="401" y="170"/>
      <point x="400" y="159"/>
      <point x="400" y="152" type="curve" smooth="yes"/>
      <point x="400" y="131"/>
      <point x="417" y="115"/>
      <point x="440" y="115" type="curve" smooth="yes"/>
      <point x="455" y="115"/>
      <point x="473" y="123"/>
      <point x="485" y="136" type="curve" smooth="yes"/>
      <point x="495" y="146"/>
      <point x="498" y="154"/>
      <point x="504" y="181" type="curve" smooth="yes"/>
    </contour>
  </outline>
</glyph>
<glyph name="registered" format="1">
  <advance width="600"/>
  <unicode hex="00AE"/>
  <outline>
    <contour>
      <point x="321" y="246" type="line"/>
      <point x="336" y="246" type="line"/>
      <point x="362" y="233"/>
      <point x="388" y="175"/>
      <point x="390" y="126" type="curve"/>
      <point x="430" y="126" type="line" smooth="yes"/>
      <point x="461" y="126"/>
      <point x="482" y="144"/>
      <point x="482" y="169" type="curve" smooth="yes"/>
      <point x="482" y="187"/>
      <point x="473" y="195"/>
      <point x="453" y="197" type="curve"/>
      <point x="439" y="235"/>
      <point x="434" y="244"/>
      <point x="415" y="266" type="curve"/>
      <point x="464" y="287"/>
      <point x="496" y="329"/>
      <point x="496" y="373" type="curve" smooth="yes"/>
      <point x="496" y="426"/>
      <point x="455" y="458"/>
      <point x="389" y="458" type="curve" smooth="yes"/>
      <point x="296" y="458" type="line" smooth="yes"/>
      <point x="264" y="458"/>
      <point x="243" y="441"/>
      <point x="243" y="416" type="curve" smooth="yes"/>
      <point x="243" y="396"/>
      <point x="254" y="388"/>
      <point x="279" y="387" type="curve"/>
      <point x="239" y="197" type="line"/>
      <point x="208" y="197"/>
      <point x="187" y="179"/>
      <point x="187" y="154" type="curve" smooth="yes"/>
      <point x="187" y="135"/>
      <point x="200" y="126"/>
      <point x="225" y="126" type="curve" smooth="yes"/>
      <point x="294" y="126" type="line" smooth="yes"/>
      <point x="324" y="126"/>
      <point x="346" y="144"/>
      <point x="346" y="169" type="curve" smooth="yes"/>
      <point x="346" y="188"/>
      <point x="335" y="197"/>
      <point x="311" y="197" type="curve"/>
    </contour>
    <contour>
      <point x="336" y="316" type="line"/>
      <point x="351" y="387" type="line"/>
      <point x="376" y="387" type="line" smooth="yes"/>
      <point x="406" y="387"/>
      <point x="424" y="377"/>
      <point x="424" y="360" type="curve" smooth="yes"/>
      <point x="424" y="337"/>
      <point x="395" y="316"/>
      <point x="362" y="316" type="curve" smooth="yes"/>
    </contour>
    <contour>
      <point x="429" y="598" type="curve" smooth="yes"/>
      <point x="232" y="598"/>
      <point x="48" y="420"/>
      <point x="48" y="228" type="curve" smooth="yes"/>
      <point x="48" y="88"/>
      <point x="152" y="-15"/>
      <point x="293" y="-15" type="curve" smooth="yes"/>
      <point x="491" y="-15"/>
      <point x="675" y="163"/>
      <point x="675" y="355" type="curve" smooth="yes"/>
      <point x="675" y="495"/>
      <point x="572" y="598"/>
    </contour>
    <contour>
      <point x="413" y="525" type="curve" smooth="yes"/>
      <point x="521" y="525"/>
      <point x="600" y="447"/>
      <point x="600" y="340" type="curve" smooth="yes"/>
      <point x="600" y="194"/>
      <point x="460" y="58"/>
      <point x="310" y="58" type="curve" smooth="yes"/>
      <point x="202" y="58"/>
      <point x="123" y="136"/>
      <point x="123" y="243" type="curve" smooth="yes"/>
      <point x="123" y="389"/>
      <point x="263" y="525"/>
    </contour>
  </outline>
</glyph>
<glyph name="macron" format="1">
  <advance width="600"/>
  <unicode hex="00AF"/>
  <outline>
    <contour>
      <point x="311" y="626" type="line" smooth="yes"/>
      <point x="274" y="626"/>
      <point x="249" y="607"/>
      <point x="249" y="579" type="curve" smooth="yes"/>
      <point x="249" y="554"/>
      <point x="261" y="546"/>
      <point x="294" y="546" type="curve" smooth="yes"/>
      <point x="538" y="546" type="line" smooth="yes"/>
      <point x="574" y="546"/>
      <point x="600" y="566"/>
      <point x="600" y="593" type="curve" smooth="yes"/>
      <point x="600" y="617"/>
      <point x="588" y="626"/>
      <point x="555" y="626" type="curve" smooth="yes"/>
    </contour>
  </outline>
</glyph>
<glyph name="degree" format="1">
  <advance width="600"/>
  <unicode hex="00B0"/>
  <outline>
    <contour>
      <point x="428" y="596" type="curve" smooth="yes"/>
      <point x="315" y="596"/>
      <point x="210" y="494"/>
      <point x="210" y="383" type="curve" smooth="yes"/>
      <point x="210" y="302"/>
      <point x="269" y="243"/>
      <point x="350" y="243" type="curve" smooth="yes"/>
      <point x="462" y="243"/>
      <point x="568" y="346"/>
      <point x="568" y="457" type="curve" smooth="yes"/>
      <point x="568" y="537"/>
      <point x="509" y="596"/>
    </contour>
    <contour>
      <point x="414" y="535" type="curve" smooth="yes"/>
      <point x="467" y="535"/>
      <point x="506" y="497"/>
      <point x="506" y="444" type="curve" smooth="yes"/>
      <point x="506" y="372"/>
      <point x="437" y="304"/>
      <point x="363" y="304" type="curve" smooth="yes"/>
      <point x="310" y="304"/>
      <point x="272" y="343"/>
      <point x="272" y="396" type="curve" smooth="yes"/>
      <point x="272" y="468"/>
      <point x="341" y="535"/>
    </contour>
  </outline>
</glyph>
